<?xml version="1.0" encoding="utf-8" standalone="no"?>
<!DOCTYPE svg PUBLIC "-//W3C//DTD SVG 1.1//EN"
  "http://www.w3.org/Graphics/SVG/1.1/DTD/svg11.dtd">
<!-- Created with matplotlib (https://matplotlib.org/) -->
<svg height="1359pt" version="1.1" viewBox="0 0 1395 1359" width="1395pt" xmlns="http://www.w3.org/2000/svg" xmlns:xlink="http://www.w3.org/1999/xlink">
 <defs>
  <style type="text/css">
*{stroke-linecap:butt;stroke-linejoin:round;}
  </style>
 </defs>
 <g id="figure_1">
  <g id="patch_1">
   <path d="M 0 1359 
L 1395 1359 
L 1395 0 
L 0 0 
z
" style="fill:#ffffff;"/>
  </g>
  <g id="axes_1">
   <g id="patch_2">
    <path clip-path="url(#pd515b06fd6)" d="M 121.053719 701.671011 
Q 161.066818 701.671011 199.961884 701.671011 
" style="fill:none;stroke:#000000;stroke-linecap:round;"/>
    <path clip-path="url(#pd515b06fd6)" d="M 195.961884 699.671011 
L 199.961884 701.671011 
L 195.961884 703.671011 
L 195.961884 699.671011 
z
" style="stroke:#000000;stroke-linecap:round;"/>
   </g>
   <g id="patch_3">
    <path clip-path="url(#pd515b06fd6)" d="M 121.053719 701.671011 
Q 161.521497 681.437122 200.989275 661.703233 
" style="fill:none;stroke:#000000;stroke-linecap:round;"/>
    <path clip-path="url(#pd515b06fd6)" d="M 196.517139 661.703233 
L 200.989275 661.703233 
L 198.305994 665.280941 
L 196.517139 661.703233 
z
" style="stroke:#000000;stroke-linecap:round;"/>
   </g>
   <g id="patch_4">
    <path clip-path="url(#pd515b06fd6)" d="M 209.737762 701.671011 
Q 249.750862 701.671011 288.645927 701.671011 
" style="fill:none;stroke:#000000;stroke-linecap:round;"/>
    <path clip-path="url(#pd515b06fd6)" d="M 284.645927 699.671011 
L 288.645927 701.671011 
L 284.645927 703.671011 
L 284.645927 699.671011 
z
" style="stroke:#000000;stroke-linecap:round;"/>
   </g>
   <g id="patch_5">
    <path clip-path="url(#pd515b06fd6)" d="M 209.737762 701.671011 
Q 250.20554 681.437122 289.673319 661.703233 
" style="fill:none;stroke:#000000;stroke-linecap:round;"/>
    <path clip-path="url(#pd515b06fd6)" d="M 285.201183 661.703233 
L 289.673319 661.703233 
L 286.990037 665.280941 
L 285.201183 661.703233 
z
" style="stroke:#000000;stroke-linecap:round;"/>
   </g>
   <g id="patch_6">
    <path clip-path="url(#pd515b06fd6)" d="M 298.421805 701.671011 
Q 338.434905 701.671011 377.32997 701.671011 
" style="fill:none;stroke:#000000;stroke-linecap:round;"/>
    <path clip-path="url(#pd515b06fd6)" d="M 373.32997 699.671011 
L 377.32997 701.671011 
L 373.32997 703.671011 
L 373.32997 699.671011 
z
" style="stroke:#000000;stroke-linecap:round;"/>
   </g>
   <g id="patch_7">
    <path clip-path="url(#pd515b06fd6)" d="M 298.421805 701.671011 
Q 338.889584 681.437122 378.357362 661.703233 
" style="fill:none;stroke:#000000;stroke-linecap:round;"/>
    <path clip-path="url(#pd515b06fd6)" d="M 373.885226 661.703233 
L 378.357362 661.703233 
L 375.67408 665.280941 
L 373.885226 661.703233 
z
" style="stroke:#000000;stroke-linecap:round;"/>
   </g>
   <g id="patch_8">
    <path clip-path="url(#pd515b06fd6)" d="M 387.105849 701.671011 
Q 427.118948 701.671011 466.014013 701.671011 
" style="fill:none;stroke:#000000;stroke-linecap:round;"/>
    <path clip-path="url(#pd515b06fd6)" d="M 462.014013 699.671011 
L 466.014013 701.671011 
L 462.014013 703.671011 
L 462.014013 699.671011 
z
" style="stroke:#000000;stroke-linecap:round;"/>
   </g>
   <g id="patch_9">
    <path clip-path="url(#pd515b06fd6)" d="M 387.105849 701.671011 
Q 427.573627 681.437122 467.041405 661.703233 
" style="fill:none;stroke:#000000;stroke-linecap:round;"/>
    <path clip-path="url(#pd515b06fd6)" d="M 462.569269 661.703233 
L 467.041405 661.703233 
L 464.358124 665.280941 
L 462.569269 661.703233 
z
" style="stroke:#000000;stroke-linecap:round;"/>
   </g>
   <g id="patch_10">
    <path clip-path="url(#pd515b06fd6)" d="M 475.789892 701.671011 
Q 515.802991 701.671011 554.698056 701.671011 
" style="fill:none;stroke:#000000;stroke-linecap:round;"/>
    <path clip-path="url(#pd515b06fd6)" d="M 550.698056 699.671011 
L 554.698056 701.671011 
L 550.698056 703.671011 
L 550.698056 699.671011 
z
" style="stroke:#000000;stroke-linecap:round;"/>
   </g>
   <g id="patch_11">
    <path clip-path="url(#pd515b06fd6)" d="M 475.789892 701.671011 
Q 516.25767 681.437122 555.725448 661.703233 
" style="fill:none;stroke:#000000;stroke-linecap:round;"/>
    <path clip-path="url(#pd515b06fd6)" d="M 551.253312 661.703233 
L 555.725448 661.703233 
L 553.042167 665.280941 
L 551.253312 661.703233 
z
" style="stroke:#000000;stroke-linecap:round;"/>
   </g>
   <g id="patch_12">
    <path clip-path="url(#pd515b06fd6)" d="M 564.473935 701.671011 
Q 604.487034 701.671011 643.3821 701.671011 
" style="fill:none;stroke:#000000;stroke-linecap:round;"/>
    <path clip-path="url(#pd515b06fd6)" d="M 639.3821 699.671011 
L 643.3821 701.671011 
L 639.3821 703.671011 
L 639.3821 699.671011 
z
" style="stroke:#000000;stroke-linecap:round;"/>
   </g>
   <g id="patch_13">
    <path clip-path="url(#pd515b06fd6)" d="M 564.473935 701.671011 
Q 604.941713 681.437122 644.409492 661.703233 
" style="fill:none;stroke:#000000;stroke-linecap:round;"/>
    <path clip-path="url(#pd515b06fd6)" d="M 639.937356 661.703233 
L 644.409492 661.703233 
L 641.72621 665.280941 
L 639.937356 661.703233 
z
" style="stroke:#000000;stroke-linecap:round;"/>
   </g>
   <g id="patch_14">
    <path clip-path="url(#pd515b06fd6)" d="M 653.157978 701.671011 
Q 693.171078 701.671011 732.066143 701.671011 
" style="fill:none;stroke:#000000;stroke-linecap:round;"/>
    <path clip-path="url(#pd515b06fd6)" d="M 728.066143 699.671011 
L 732.066143 701.671011 
L 728.066143 703.671011 
L 728.066143 699.671011 
z
" style="stroke:#000000;stroke-linecap:round;"/>
   </g>
   <g id="patch_15">
    <path clip-path="url(#pd515b06fd6)" d="M 653.157978 701.671011 
Q 693.625757 681.437122 733.093535 661.703233 
" style="fill:none;stroke:#000000;stroke-linecap:round;"/>
    <path clip-path="url(#pd515b06fd6)" d="M 728.621399 661.703233 
L 733.093535 661.703233 
L 730.410253 665.280941 
L 728.621399 661.703233 
z
" style="stroke:#000000;stroke-linecap:round;"/>
   </g>
   <g id="patch_16">
    <path clip-path="url(#pd515b06fd6)" d="M 741.842022 701.671011 
Q 781.855121 701.671011 820.750186 701.671011 
" style="fill:none;stroke:#000000;stroke-linecap:round;"/>
    <path clip-path="url(#pd515b06fd6)" d="M 816.750186 699.671011 
L 820.750186 701.671011 
L 816.750186 703.671011 
L 816.750186 699.671011 
z
" style="stroke:#000000;stroke-linecap:round;"/>
   </g>
   <g id="patch_17">
    <path clip-path="url(#pd515b06fd6)" d="M 741.842022 701.671011 
Q 782.3098 681.437122 821.777578 661.703233 
" style="fill:none;stroke:#000000;stroke-linecap:round;"/>
    <path clip-path="url(#pd515b06fd6)" d="M 817.305442 661.703233 
L 821.777578 661.703233 
L 819.094296 665.280941 
L 817.305442 661.703233 
z
" style="stroke:#000000;stroke-linecap:round;"/>
   </g>
   <g id="patch_18">
    <path clip-path="url(#pd515b06fd6)" d="M 830.526065 701.671011 
Q 870.539164 701.671011 909.434229 701.671011 
" style="fill:none;stroke:#000000;stroke-linecap:round;"/>
    <path clip-path="url(#pd515b06fd6)" d="M 905.434229 699.671011 
L 909.434229 701.671011 
L 905.434229 703.671011 
L 905.434229 699.671011 
z
" style="stroke:#000000;stroke-linecap:round;"/>
   </g>
   <g id="patch_19">
    <path clip-path="url(#pd515b06fd6)" d="M 830.526065 701.671011 
Q 870.993843 681.437122 910.461621 661.703233 
" style="fill:none;stroke:#000000;stroke-linecap:round;"/>
    <path clip-path="url(#pd515b06fd6)" d="M 905.989485 661.703233 
L 910.461621 661.703233 
L 907.77834 665.280941 
L 905.989485 661.703233 
z
" style="stroke:#000000;stroke-linecap:round;"/>
   </g>
   <g id="patch_20">
    <path clip-path="url(#pd515b06fd6)" d="M 919.210108 701.671011 
Q 959.223207 701.671011 998.118273 701.671011 
" style="fill:none;stroke:#000000;stroke-linecap:round;"/>
    <path clip-path="url(#pd515b06fd6)" d="M 994.118273 699.671011 
L 998.118273 701.671011 
L 994.118273 703.671011 
L 994.118273 699.671011 
z
" style="stroke:#000000;stroke-linecap:round;"/>
   </g>
   <g id="patch_21">
    <path clip-path="url(#pd515b06fd6)" d="M 919.210108 701.671011 
Q 959.677886 681.437122 999.145664 661.703233 
" style="fill:none;stroke:#000000;stroke-linecap:round;"/>
    <path clip-path="url(#pd515b06fd6)" d="M 994.673529 661.703233 
L 999.145664 661.703233 
L 996.462383 665.280941 
L 994.673529 661.703233 
z
" style="stroke:#000000;stroke-linecap:round;"/>
   </g>
   <g id="patch_22">
    <path clip-path="url(#pd515b06fd6)" d="M 1007.894151 701.671011 
Q 1047.907251 701.671011 1086.802316 701.671011 
" style="fill:none;stroke:#000000;stroke-linecap:round;"/>
    <path clip-path="url(#pd515b06fd6)" d="M 1082.802316 699.671011 
L 1086.802316 701.671011 
L 1082.802316 703.671011 
L 1082.802316 699.671011 
z
" style="stroke:#000000;stroke-linecap:round;"/>
   </g>
   <g id="patch_23">
    <path clip-path="url(#pd515b06fd6)" d="M 1007.894151 701.671011 
Q 1048.36193 681.437122 1087.829708 661.703233 
" style="fill:none;stroke:#000000;stroke-linecap:round;"/>
    <path clip-path="url(#pd515b06fd6)" d="M 1083.357572 661.703233 
L 1087.829708 661.703233 
L 1085.146426 665.280941 
L 1083.357572 661.703233 
z
" style="stroke:#000000;stroke-linecap:round;"/>
   </g>
   <g id="patch_24">
    <path clip-path="url(#pd515b06fd6)" d="M 1096.578195 701.671011 
Q 1136.591294 701.671011 1175.486359 701.671011 
" style="fill:none;stroke:#000000;stroke-linecap:round;"/>
    <path clip-path="url(#pd515b06fd6)" d="M 1171.486359 699.671011 
L 1175.486359 701.671011 
L 1171.486359 703.671011 
L 1171.486359 699.671011 
z
" style="stroke:#000000;stroke-linecap:round;"/>
   </g>
   <g id="patch_25">
    <path clip-path="url(#pd515b06fd6)" d="M 1096.578195 701.671011 
Q 1137.045973 681.437122 1176.513751 661.703233 
" style="fill:none;stroke:#000000;stroke-linecap:round;"/>
    <path clip-path="url(#pd515b06fd6)" d="M 1172.041615 661.703233 
L 1176.513751 661.703233 
L 1173.830469 665.280941 
L 1172.041615 661.703233 
z
" style="stroke:#000000;stroke-linecap:round;"/>
   </g>
   <g id="patch_26">
    <path clip-path="url(#pd515b06fd6)" d="M 1185.262238 701.671011 
Q 1225.275337 701.671011 1264.170402 701.671011 
" style="fill:none;stroke:#000000;stroke-linecap:round;"/>
    <path clip-path="url(#pd515b06fd6)" d="M 1260.170402 699.671011 
L 1264.170402 701.671011 
L 1260.170402 703.671011 
L 1260.170402 699.671011 
z
" style="stroke:#000000;stroke-linecap:round;"/>
   </g>
   <g id="patch_27">
    <path clip-path="url(#pd515b06fd6)" d="M 121.053719 657.328989 
Q 161.066818 657.328989 199.961884 657.328989 
" style="fill:none;stroke:#000000;stroke-linecap:round;"/>
    <path clip-path="url(#pd515b06fd6)" d="M 195.961884 655.328989 
L 199.961884 657.328989 
L 195.961884 659.328989 
L 195.961884 655.328989 
z
" style="stroke:#000000;stroke-linecap:round;"/>
   </g>
   <g id="patch_28">
    <path clip-path="url(#pd515b06fd6)" d="M 121.053719 657.328989 
Q 161.521497 677.562878 200.989275 697.296767 
" style="fill:none;stroke:#000000;stroke-linecap:round;"/>
    <path clip-path="url(#pd515b06fd6)" d="M 198.305994 693.719059 
L 200.989275 697.296767 
L 196.517139 697.296767 
L 198.305994 693.719059 
z
" style="stroke:#000000;stroke-linecap:round;"/>
   </g>
   <g id="patch_29">
    <path clip-path="url(#pd515b06fd6)" d="M 209.737762 657.328989 
Q 249.750862 657.328989 288.645927 657.328989 
" style="fill:none;stroke:#000000;stroke-linecap:round;"/>
    <path clip-path="url(#pd515b06fd6)" d="M 284.645927 655.328989 
L 288.645927 657.328989 
L 284.645927 659.328989 
L 284.645927 655.328989 
z
" style="stroke:#000000;stroke-linecap:round;"/>
   </g>
   <g id="patch_30">
    <path clip-path="url(#pd515b06fd6)" d="M 209.737762 657.328989 
Q 250.20554 677.562878 289.673319 697.296767 
" style="fill:none;stroke:#000000;stroke-linecap:round;"/>
    <path clip-path="url(#pd515b06fd6)" d="M 286.990037 693.719059 
L 289.673319 697.296767 
L 285.201183 697.296767 
L 286.990037 693.719059 
z
" style="stroke:#000000;stroke-linecap:round;"/>
   </g>
   <g id="patch_31">
    <path clip-path="url(#pd515b06fd6)" d="M 298.421805 657.328989 
Q 338.434905 657.328989 377.32997 657.328989 
" style="fill:none;stroke:#000000;stroke-linecap:round;"/>
    <path clip-path="url(#pd515b06fd6)" d="M 373.32997 655.328989 
L 377.32997 657.328989 
L 373.32997 659.328989 
L 373.32997 655.328989 
z
" style="stroke:#000000;stroke-linecap:round;"/>
   </g>
   <g id="patch_32">
    <path clip-path="url(#pd515b06fd6)" d="M 298.421805 657.328989 
Q 338.889584 677.562878 378.357362 697.296767 
" style="fill:none;stroke:#000000;stroke-linecap:round;"/>
    <path clip-path="url(#pd515b06fd6)" d="M 375.67408 693.719059 
L 378.357362 697.296767 
L 373.885226 697.296767 
L 375.67408 693.719059 
z
" style="stroke:#000000;stroke-linecap:round;"/>
   </g>
   <g id="patch_33">
    <path clip-path="url(#pd515b06fd6)" d="M 387.105849 657.328989 
Q 427.118948 657.328989 466.014013 657.328989 
" style="fill:none;stroke:#000000;stroke-linecap:round;"/>
    <path clip-path="url(#pd515b06fd6)" d="M 462.014013 655.328989 
L 466.014013 657.328989 
L 462.014013 659.328989 
L 462.014013 655.328989 
z
" style="stroke:#000000;stroke-linecap:round;"/>
   </g>
   <g id="patch_34">
    <path clip-path="url(#pd515b06fd6)" d="M 387.105849 657.328989 
Q 427.573627 677.562878 467.041405 697.296767 
" style="fill:none;stroke:#000000;stroke-linecap:round;"/>
    <path clip-path="url(#pd515b06fd6)" d="M 464.358124 693.719059 
L 467.041405 697.296767 
L 462.569269 697.296767 
L 464.358124 693.719059 
z
" style="stroke:#000000;stroke-linecap:round;"/>
   </g>
   <g id="patch_35">
    <path clip-path="url(#pd515b06fd6)" d="M 475.789892 657.328989 
Q 515.802991 657.328989 554.698056 657.328989 
" style="fill:none;stroke:#000000;stroke-linecap:round;"/>
    <path clip-path="url(#pd515b06fd6)" d="M 550.698056 655.328989 
L 554.698056 657.328989 
L 550.698056 659.328989 
L 550.698056 655.328989 
z
" style="stroke:#000000;stroke-linecap:round;"/>
   </g>
   <g id="patch_36">
    <path clip-path="url(#pd515b06fd6)" d="M 475.789892 657.328989 
Q 516.25767 677.562878 555.725448 697.296767 
" style="fill:none;stroke:#000000;stroke-linecap:round;"/>
    <path clip-path="url(#pd515b06fd6)" d="M 553.042167 693.719059 
L 555.725448 697.296767 
L 551.253312 697.296767 
L 553.042167 693.719059 
z
" style="stroke:#000000;stroke-linecap:round;"/>
   </g>
   <g id="patch_37">
    <path clip-path="url(#pd515b06fd6)" d="M 564.473935 657.328989 
Q 604.487034 657.328989 643.3821 657.328989 
" style="fill:none;stroke:#000000;stroke-linecap:round;"/>
    <path clip-path="url(#pd515b06fd6)" d="M 639.3821 655.328989 
L 643.3821 657.328989 
L 639.3821 659.328989 
L 639.3821 655.328989 
z
" style="stroke:#000000;stroke-linecap:round;"/>
   </g>
   <g id="patch_38">
    <path clip-path="url(#pd515b06fd6)" d="M 564.473935 657.328989 
Q 604.941713 677.562878 644.409492 697.296767 
" style="fill:none;stroke:#000000;stroke-linecap:round;"/>
    <path clip-path="url(#pd515b06fd6)" d="M 641.72621 693.719059 
L 644.409492 697.296767 
L 639.937356 697.296767 
L 641.72621 693.719059 
z
" style="stroke:#000000;stroke-linecap:round;"/>
   </g>
   <g id="patch_39">
    <path clip-path="url(#pd515b06fd6)" d="M 653.157978 657.328989 
Q 693.171078 657.328989 732.066143 657.328989 
" style="fill:none;stroke:#000000;stroke-linecap:round;"/>
    <path clip-path="url(#pd515b06fd6)" d="M 728.066143 655.328989 
L 732.066143 657.328989 
L 728.066143 659.328989 
L 728.066143 655.328989 
z
" style="stroke:#000000;stroke-linecap:round;"/>
   </g>
   <g id="patch_40">
    <path clip-path="url(#pd515b06fd6)" d="M 653.157978 657.328989 
Q 693.625757 677.562878 733.093535 697.296767 
" style="fill:none;stroke:#000000;stroke-linecap:round;"/>
    <path clip-path="url(#pd515b06fd6)" d="M 730.410253 693.719059 
L 733.093535 697.296767 
L 728.621399 697.296767 
L 730.410253 693.719059 
z
" style="stroke:#000000;stroke-linecap:round;"/>
   </g>
   <g id="patch_41">
    <path clip-path="url(#pd515b06fd6)" d="M 741.842022 657.328989 
Q 781.855121 657.328989 820.750186 657.328989 
" style="fill:none;stroke:#000000;stroke-linecap:round;"/>
    <path clip-path="url(#pd515b06fd6)" d="M 816.750186 655.328989 
L 820.750186 657.328989 
L 816.750186 659.328989 
L 816.750186 655.328989 
z
" style="stroke:#000000;stroke-linecap:round;"/>
   </g>
   <g id="patch_42">
    <path clip-path="url(#pd515b06fd6)" d="M 741.842022 657.328989 
Q 782.3098 677.562878 821.777578 697.296767 
" style="fill:none;stroke:#000000;stroke-linecap:round;"/>
    <path clip-path="url(#pd515b06fd6)" d="M 819.094296 693.719059 
L 821.777578 697.296767 
L 817.305442 697.296767 
L 819.094296 693.719059 
z
" style="stroke:#000000;stroke-linecap:round;"/>
   </g>
   <g id="patch_43">
    <path clip-path="url(#pd515b06fd6)" d="M 830.526065 657.328989 
Q 870.539164 657.328989 909.434229 657.328989 
" style="fill:none;stroke:#000000;stroke-linecap:round;"/>
    <path clip-path="url(#pd515b06fd6)" d="M 905.434229 655.328989 
L 909.434229 657.328989 
L 905.434229 659.328989 
L 905.434229 655.328989 
z
" style="stroke:#000000;stroke-linecap:round;"/>
   </g>
   <g id="patch_44">
    <path clip-path="url(#pd515b06fd6)" d="M 830.526065 657.328989 
Q 870.993843 677.562878 910.461621 697.296767 
" style="fill:none;stroke:#000000;stroke-linecap:round;"/>
    <path clip-path="url(#pd515b06fd6)" d="M 907.77834 693.719059 
L 910.461621 697.296767 
L 905.989485 697.296767 
L 907.77834 693.719059 
z
" style="stroke:#000000;stroke-linecap:round;"/>
   </g>
   <g id="patch_45">
    <path clip-path="url(#pd515b06fd6)" d="M 919.210108 657.328989 
Q 959.223207 657.328989 998.118273 657.328989 
" style="fill:none;stroke:#000000;stroke-linecap:round;"/>
    <path clip-path="url(#pd515b06fd6)" d="M 994.118273 655.328989 
L 998.118273 657.328989 
L 994.118273 659.328989 
L 994.118273 655.328989 
z
" style="stroke:#000000;stroke-linecap:round;"/>
   </g>
   <g id="patch_46">
    <path clip-path="url(#pd515b06fd6)" d="M 919.210108 657.328989 
Q 959.677886 677.562878 999.145664 697.296767 
" style="fill:none;stroke:#000000;stroke-linecap:round;"/>
    <path clip-path="url(#pd515b06fd6)" d="M 996.462383 693.719059 
L 999.145664 697.296767 
L 994.673529 697.296767 
L 996.462383 693.719059 
z
" style="stroke:#000000;stroke-linecap:round;"/>
   </g>
   <g id="patch_47">
    <path clip-path="url(#pd515b06fd6)" d="M 1007.894151 657.328989 
Q 1047.907251 657.328989 1086.802316 657.328989 
" style="fill:none;stroke:#000000;stroke-linecap:round;"/>
    <path clip-path="url(#pd515b06fd6)" d="M 1082.802316 655.328989 
L 1086.802316 657.328989 
L 1082.802316 659.328989 
L 1082.802316 655.328989 
z
" style="stroke:#000000;stroke-linecap:round;"/>
   </g>
   <g id="patch_48">
    <path clip-path="url(#pd515b06fd6)" d="M 1007.894151 657.328989 
Q 1048.36193 677.562878 1087.829708 697.296767 
" style="fill:none;stroke:#000000;stroke-linecap:round;"/>
    <path clip-path="url(#pd515b06fd6)" d="M 1085.146426 693.719059 
L 1087.829708 697.296767 
L 1083.357572 697.296767 
L 1085.146426 693.719059 
z
" style="stroke:#000000;stroke-linecap:round;"/>
   </g>
   <g id="patch_49">
    <path clip-path="url(#pd515b06fd6)" d="M 1096.578195 657.328989 
Q 1136.591294 657.328989 1175.486359 657.328989 
" style="fill:none;stroke:#000000;stroke-linecap:round;"/>
    <path clip-path="url(#pd515b06fd6)" d="M 1171.486359 655.328989 
L 1175.486359 657.328989 
L 1171.486359 659.328989 
L 1171.486359 655.328989 
z
" style="stroke:#000000;stroke-linecap:round;"/>
   </g>
   <g id="patch_50">
    <path clip-path="url(#pd515b06fd6)" d="M 1096.578195 657.328989 
Q 1137.045973 677.562878 1176.513751 697.296767 
" style="fill:none;stroke:#000000;stroke-linecap:round;"/>
    <path clip-path="url(#pd515b06fd6)" d="M 1173.830469 693.719059 
L 1176.513751 697.296767 
L 1172.041615 697.296767 
L 1173.830469 693.719059 
z
" style="stroke:#000000;stroke-linecap:round;"/>
   </g>
   <g id="patch_51">
    <path clip-path="url(#pd515b06fd6)" d="M 1185.262238 657.328989 
Q 1225.275337 657.328989 1264.170402 657.328989 
" style="fill:none;stroke:#000000;stroke-linecap:round;"/>
    <path clip-path="url(#pd515b06fd6)" d="M 1260.170402 655.328989 
L 1264.170402 657.328989 
L 1260.170402 659.328989 
L 1260.170402 655.328989 
z
" style="stroke:#000000;stroke-linecap:round;"/>
   </g>
   <g id="PathCollection_1">
    <defs>
     <path d="M 0 8.660254 
C 2.296726 8.660254 4.499694 7.747755 6.123724 6.123724 
C 7.747755 4.499694 8.660254 2.296726 8.660254 0 
C 8.660254 -2.296726 7.747755 -4.499694 6.123724 -6.123724 
C 4.499694 -7.747755 2.296726 -8.660254 0 -8.660254 
C -2.296726 -8.660254 -4.499694 -7.747755 -6.123724 -6.123724 
C -7.747755 -4.499694 -8.660254 -2.296726 -8.660254 0 
C -8.660254 2.296726 -7.747755 4.499694 -6.123724 6.123724 
C -4.499694 7.747755 -2.296726 8.660254 0 8.660254 
z
" id="C0_0_9bfcce078a"/>
    </defs>
    <g clip-path="url(#pd515b06fd6)">
     <use style="fill:#66b3ff;stroke:#000000;" x="121.053719" xlink:href="#C0_0_9bfcce078a" y="701.671011"/>
    </g>
    <g clip-path="url(#pd515b06fd6)">
     <use style="fill:#66b3ff;stroke:#000000;" x="209.737762" xlink:href="#C0_0_9bfcce078a" y="701.671011"/>
    </g>
    <g clip-path="url(#pd515b06fd6)">
     <use style="fill:#66b3ff;stroke:#000000;" x="298.421805" xlink:href="#C0_0_9bfcce078a" y="701.671011"/>
    </g>
    <g clip-path="url(#pd515b06fd6)">
     <use style="fill:#66b3ff;stroke:#000000;" x="387.105849" xlink:href="#C0_0_9bfcce078a" y="701.671011"/>
    </g>
    <g clip-path="url(#pd515b06fd6)">
     <use style="fill:#66b3ff;stroke:#000000;" x="475.789892" xlink:href="#C0_0_9bfcce078a" y="701.671011"/>
    </g>
    <g clip-path="url(#pd515b06fd6)">
     <use style="fill:#66b3ff;stroke:#000000;" x="564.473935" xlink:href="#C0_0_9bfcce078a" y="701.671011"/>
    </g>
    <g clip-path="url(#pd515b06fd6)">
     <use style="fill:#66b3ff;stroke:#000000;" x="653.157978" xlink:href="#C0_0_9bfcce078a" y="701.671011"/>
    </g>
    <g clip-path="url(#pd515b06fd6)">
     <use style="fill:#66b3ff;stroke:#000000;" x="741.842022" xlink:href="#C0_0_9bfcce078a" y="701.671011"/>
    </g>
    <g clip-path="url(#pd515b06fd6)">
     <use style="fill:#808080;stroke:#000000;" x="830.526065" xlink:href="#C0_0_9bfcce078a" y="701.671011"/>
    </g>
    <g clip-path="url(#pd515b06fd6)">
     <use style="fill:#808080;stroke:#000000;" x="919.210108" xlink:href="#C0_0_9bfcce078a" y="701.671011"/>
    </g>
    <g clip-path="url(#pd515b06fd6)">
     <use style="fill:#808080;stroke:#000000;" x="1007.894151" xlink:href="#C0_0_9bfcce078a" y="701.671011"/>
    </g>
    <g clip-path="url(#pd515b06fd6)">
     <use style="fill:#808080;stroke:#000000;" x="1096.578195" xlink:href="#C0_0_9bfcce078a" y="701.671011"/>
    </g>
    <g clip-path="url(#pd515b06fd6)">
     <use style="fill:#808080;stroke:#000000;" x="1185.262238" xlink:href="#C0_0_9bfcce078a" y="701.671011"/>
    </g>
    <g clip-path="url(#pd515b06fd6)">
     <use style="fill:#ff4d4d;stroke:#000000;" x="1273.946281" xlink:href="#C0_0_9bfcce078a" y="701.671011"/>
    </g>
    <g clip-path="url(#pd515b06fd6)">
     <use style="fill:#66b3ff;stroke:#000000;" x="121.053719" xlink:href="#C0_0_9bfcce078a" y="657.328989"/>
    </g>
    <g clip-path="url(#pd515b06fd6)">
     <use style="fill:#66b3ff;stroke:#000000;" x="209.737762" xlink:href="#C0_0_9bfcce078a" y="657.328989"/>
    </g>
    <g clip-path="url(#pd515b06fd6)">
     <use style="fill:#66b3ff;stroke:#000000;" x="298.421805" xlink:href="#C0_0_9bfcce078a" y="657.328989"/>
    </g>
    <g clip-path="url(#pd515b06fd6)">
     <use style="fill:#66b3ff;stroke:#000000;" x="387.105849" xlink:href="#C0_0_9bfcce078a" y="657.328989"/>
    </g>
    <g clip-path="url(#pd515b06fd6)">
     <use style="fill:#66b3ff;stroke:#000000;" x="475.789892" xlink:href="#C0_0_9bfcce078a" y="657.328989"/>
    </g>
    <g clip-path="url(#pd515b06fd6)">
     <use style="fill:#66b3ff;stroke:#000000;" x="564.473935" xlink:href="#C0_0_9bfcce078a" y="657.328989"/>
    </g>
    <g clip-path="url(#pd515b06fd6)">
     <use style="fill:#66b3ff;stroke:#000000;" x="653.157978" xlink:href="#C0_0_9bfcce078a" y="657.328989"/>
    </g>
    <g clip-path="url(#pd515b06fd6)">
     <use style="fill:#66b3ff;stroke:#000000;" x="741.842022" xlink:href="#C0_0_9bfcce078a" y="657.328989"/>
    </g>
    <g clip-path="url(#pd515b06fd6)">
     <use style="fill:#808080;stroke:#000000;" x="830.526065" xlink:href="#C0_0_9bfcce078a" y="657.328989"/>
    </g>
    <g clip-path="url(#pd515b06fd6)">
     <use style="fill:#808080;stroke:#000000;" x="919.210108" xlink:href="#C0_0_9bfcce078a" y="657.328989"/>
    </g>
    <g clip-path="url(#pd515b06fd6)">
     <use style="fill:#808080;stroke:#000000;" x="1007.894151" xlink:href="#C0_0_9bfcce078a" y="657.328989"/>
    </g>
    <g clip-path="url(#pd515b06fd6)">
     <use style="fill:#808080;stroke:#000000;" x="1096.578195" xlink:href="#C0_0_9bfcce078a" y="657.328989"/>
    </g>
    <g clip-path="url(#pd515b06fd6)">
     <use style="fill:#808080;stroke:#000000;" x="1185.262238" xlink:href="#C0_0_9bfcce078a" y="657.328989"/>
    </g>
    <g clip-path="url(#pd515b06fd6)">
     <use style="fill:#ff4d4d;stroke:#000000;" x="1273.946281" xlink:href="#C0_0_9bfcce078a" y="657.328989"/>
    </g>
   </g>
   <g id="text_1">
    <g clip-path="url(#pd515b06fd6)">
     <!-- 0 -->
     <defs>
      <path d="M 31.78125 66.40625 
Q 24.171875 66.40625 20.328125 58.90625 
Q 16.5 51.421875 16.5 36.375 
Q 16.5 21.390625 20.328125 13.890625 
Q 24.171875 6.390625 31.78125 6.390625 
Q 39.453125 6.390625 43.28125 13.890625 
Q 47.125 21.390625 47.125 36.375 
Q 47.125 51.421875 43.28125 58.90625 
Q 39.453125 66.40625 31.78125 66.40625 
z
M 31.78125 74.21875 
Q 44.046875 74.21875 50.515625 64.515625 
Q 56.984375 54.828125 56.984375 36.375 
Q 56.984375 17.96875 50.515625 8.265625 
Q 44.046875 -1.421875 31.78125 -1.421875 
Q 19.53125 -1.421875 13.0625 8.265625 
Q 6.59375 17.96875 6.59375 36.375 
Q 6.59375 54.828125 13.0625 64.515625 
Q 19.53125 74.21875 31.78125 74.21875 
z
" id="DejaVuSans-48"/>
     </defs>
     <g transform="translate(117.236219 704.982261)scale(0.12 -0.12)">
      <use xlink:href="#DejaVuSans-48"/>
     </g>
    </g>
   </g>
   <g id="text_2">
    <g clip-path="url(#pd515b06fd6)">
     <!-- 1 -->
     <defs>
      <path d="M 12.40625 8.296875 
L 28.515625 8.296875 
L 28.515625 63.921875 
L 10.984375 60.40625 
L 10.984375 69.390625 
L 28.421875 72.90625 
L 38.28125 72.90625 
L 38.28125 8.296875 
L 54.390625 8.296875 
L 54.390625 0 
L 12.40625 0 
z
" id="DejaVuSans-49"/>
     </defs>
     <g transform="translate(205.920262 704.982261)scale(0.12 -0.12)">
      <use xlink:href="#DejaVuSans-49"/>
     </g>
    </g>
   </g>
   <g id="text_3">
    <g clip-path="url(#pd515b06fd6)">
     <!-- 2 -->
     <defs>
      <path d="M 19.1875 8.296875 
L 53.609375 8.296875 
L 53.609375 0 
L 7.328125 0 
L 7.328125 8.296875 
Q 12.9375 14.109375 22.625 23.890625 
Q 32.328125 33.6875 34.8125 36.53125 
Q 39.546875 41.84375 41.421875 45.53125 
Q 43.3125 49.21875 43.3125 52.78125 
Q 43.3125 58.59375 39.234375 62.25 
Q 35.15625 65.921875 28.609375 65.921875 
Q 23.96875 65.921875 18.8125 64.3125 
Q 13.671875 62.703125 7.8125 59.421875 
L 7.8125 69.390625 
Q 13.765625 71.78125 18.9375 73 
Q 24.125 74.21875 28.421875 74.21875 
Q 39.75 74.21875 46.484375 68.546875 
Q 53.21875 62.890625 53.21875 53.421875 
Q 53.21875 48.921875 51.53125 44.890625 
Q 49.859375 40.875 45.40625 35.40625 
Q 44.1875 33.984375 37.640625 27.21875 
Q 31.109375 20.453125 19.1875 8.296875 
z
" id="DejaVuSans-50"/>
     </defs>
     <g transform="translate(294.604305 704.982261)scale(0.12 -0.12)">
      <use xlink:href="#DejaVuSans-50"/>
     </g>
    </g>
   </g>
   <g id="text_4">
    <g clip-path="url(#pd515b06fd6)">
     <!-- 3 -->
     <defs>
      <path d="M 40.578125 39.3125 
Q 47.65625 37.796875 51.625 33 
Q 55.609375 28.21875 55.609375 21.1875 
Q 55.609375 10.40625 48.1875 4.484375 
Q 40.765625 -1.421875 27.09375 -1.421875 
Q 22.515625 -1.421875 17.65625 -0.515625 
Q 12.796875 0.390625 7.625 2.203125 
L 7.625 11.71875 
Q 11.71875 9.328125 16.59375 8.109375 
Q 21.484375 6.890625 26.8125 6.890625 
Q 36.078125 6.890625 40.9375 10.546875 
Q 45.796875 14.203125 45.796875 21.1875 
Q 45.796875 27.640625 41.28125 31.265625 
Q 36.765625 34.90625 28.71875 34.90625 
L 20.21875 34.90625 
L 20.21875 43.015625 
L 29.109375 43.015625 
Q 36.375 43.015625 40.234375 45.921875 
Q 44.09375 48.828125 44.09375 54.296875 
Q 44.09375 59.90625 40.109375 62.90625 
Q 36.140625 65.921875 28.71875 65.921875 
Q 24.65625 65.921875 20.015625 65.03125 
Q 15.375 64.15625 9.8125 62.3125 
L 9.8125 71.09375 
Q 15.4375 72.65625 20.34375 73.4375 
Q 25.25 74.21875 29.59375 74.21875 
Q 40.828125 74.21875 47.359375 69.109375 
Q 53.90625 64.015625 53.90625 55.328125 
Q 53.90625 49.265625 50.4375 45.09375 
Q 46.96875 40.921875 40.578125 39.3125 
z
" id="DejaVuSans-51"/>
     </defs>
     <g transform="translate(383.288349 704.982261)scale(0.12 -0.12)">
      <use xlink:href="#DejaVuSans-51"/>
     </g>
    </g>
   </g>
   <g id="text_5">
    <g clip-path="url(#pd515b06fd6)">
     <!-- 4 -->
     <defs>
      <path d="M 37.796875 64.3125 
L 12.890625 25.390625 
L 37.796875 25.390625 
z
M 35.203125 72.90625 
L 47.609375 72.90625 
L 47.609375 25.390625 
L 58.015625 25.390625 
L 58.015625 17.1875 
L 47.609375 17.1875 
L 47.609375 0 
L 37.796875 0 
L 37.796875 17.1875 
L 4.890625 17.1875 
L 4.890625 26.703125 
z
" id="DejaVuSans-52"/>
     </defs>
     <g transform="translate(471.972392 704.982261)scale(0.12 -0.12)">
      <use xlink:href="#DejaVuSans-52"/>
     </g>
    </g>
   </g>
   <g id="text_6">
    <g clip-path="url(#pd515b06fd6)">
     <!-- 5 -->
     <defs>
      <path d="M 10.796875 72.90625 
L 49.515625 72.90625 
L 49.515625 64.59375 
L 19.828125 64.59375 
L 19.828125 46.734375 
Q 21.96875 47.46875 24.109375 47.828125 
Q 26.265625 48.1875 28.421875 48.1875 
Q 40.625 48.1875 47.75 41.5 
Q 54.890625 34.8125 54.890625 23.390625 
Q 54.890625 11.625 47.5625 5.09375 
Q 40.234375 -1.421875 26.90625 -1.421875 
Q 22.3125 -1.421875 17.546875 -0.640625 
Q 12.796875 0.140625 7.71875 1.703125 
L 7.71875 11.625 
Q 12.109375 9.234375 16.796875 8.0625 
Q 21.484375 6.890625 26.703125 6.890625 
Q 35.15625 6.890625 40.078125 11.328125 
Q 45.015625 15.765625 45.015625 23.390625 
Q 45.015625 31 40.078125 35.4375 
Q 35.15625 39.890625 26.703125 39.890625 
Q 22.75 39.890625 18.8125 39.015625 
Q 14.890625 38.140625 10.796875 36.28125 
z
" id="DejaVuSans-53"/>
     </defs>
     <g transform="translate(560.656435 704.982261)scale(0.12 -0.12)">
      <use xlink:href="#DejaVuSans-53"/>
     </g>
    </g>
   </g>
   <g id="text_7">
    <g clip-path="url(#pd515b06fd6)">
     <!-- 6 -->
     <defs>
      <path d="M 33.015625 40.375 
Q 26.375 40.375 22.484375 35.828125 
Q 18.609375 31.296875 18.609375 23.390625 
Q 18.609375 15.53125 22.484375 10.953125 
Q 26.375 6.390625 33.015625 6.390625 
Q 39.65625 6.390625 43.53125 10.953125 
Q 47.40625 15.53125 47.40625 23.390625 
Q 47.40625 31.296875 43.53125 35.828125 
Q 39.65625 40.375 33.015625 40.375 
z
M 52.59375 71.296875 
L 52.59375 62.3125 
Q 48.875 64.0625 45.09375 64.984375 
Q 41.3125 65.921875 37.59375 65.921875 
Q 27.828125 65.921875 22.671875 59.328125 
Q 17.53125 52.734375 16.796875 39.40625 
Q 19.671875 43.65625 24.015625 45.921875 
Q 28.375 48.1875 33.59375 48.1875 
Q 44.578125 48.1875 50.953125 41.515625 
Q 57.328125 34.859375 57.328125 23.390625 
Q 57.328125 12.15625 50.6875 5.359375 
Q 44.046875 -1.421875 33.015625 -1.421875 
Q 20.359375 -1.421875 13.671875 8.265625 
Q 6.984375 17.96875 6.984375 36.375 
Q 6.984375 53.65625 15.1875 63.9375 
Q 23.390625 74.21875 37.203125 74.21875 
Q 40.921875 74.21875 44.703125 73.484375 
Q 48.484375 72.75 52.59375 71.296875 
z
" id="DejaVuSans-54"/>
     </defs>
     <g transform="translate(649.340478 704.982261)scale(0.12 -0.12)">
      <use xlink:href="#DejaVuSans-54"/>
     </g>
    </g>
   </g>
   <g id="text_8">
    <g clip-path="url(#pd515b06fd6)">
     <!-- 7 -->
     <defs>
      <path d="M 8.203125 72.90625 
L 55.078125 72.90625 
L 55.078125 68.703125 
L 28.609375 0 
L 18.3125 0 
L 43.21875 64.59375 
L 8.203125 64.59375 
z
" id="DejaVuSans-55"/>
     </defs>
     <g transform="translate(738.024522 704.982261)scale(0.12 -0.12)">
      <use xlink:href="#DejaVuSans-55"/>
     </g>
    </g>
   </g>
   <g id="text_9">
    <g clip-path="url(#pd515b06fd6)">
     <!-- 8 -->
     <defs>
      <path d="M 31.78125 34.625 
Q 24.75 34.625 20.71875 30.859375 
Q 16.703125 27.09375 16.703125 20.515625 
Q 16.703125 13.921875 20.71875 10.15625 
Q 24.75 6.390625 31.78125 6.390625 
Q 38.8125 6.390625 42.859375 10.171875 
Q 46.921875 13.96875 46.921875 20.515625 
Q 46.921875 27.09375 42.890625 30.859375 
Q 38.875 34.625 31.78125 34.625 
z
M 21.921875 38.8125 
Q 15.578125 40.375 12.03125 44.71875 
Q 8.5 49.078125 8.5 55.328125 
Q 8.5 64.0625 14.71875 69.140625 
Q 20.953125 74.21875 31.78125 74.21875 
Q 42.671875 74.21875 48.875 69.140625 
Q 55.078125 64.0625 55.078125 55.328125 
Q 55.078125 49.078125 51.53125 44.71875 
Q 48 40.375 41.703125 38.8125 
Q 48.828125 37.15625 52.796875 32.3125 
Q 56.78125 27.484375 56.78125 20.515625 
Q 56.78125 9.90625 50.3125 4.234375 
Q 43.84375 -1.421875 31.78125 -1.421875 
Q 19.734375 -1.421875 13.25 4.234375 
Q 6.78125 9.90625 6.78125 20.515625 
Q 6.78125 27.484375 10.78125 32.3125 
Q 14.796875 37.15625 21.921875 38.8125 
z
M 18.3125 54.390625 
Q 18.3125 48.734375 21.84375 45.5625 
Q 25.390625 42.390625 31.78125 42.390625 
Q 38.140625 42.390625 41.71875 45.5625 
Q 45.3125 48.734375 45.3125 54.390625 
Q 45.3125 60.0625 41.71875 63.234375 
Q 38.140625 66.40625 31.78125 66.40625 
Q 25.390625 66.40625 21.84375 63.234375 
Q 18.3125 60.0625 18.3125 54.390625 
z
" id="DejaVuSans-56"/>
     </defs>
     <g transform="translate(826.708565 704.982261)scale(0.12 -0.12)">
      <use xlink:href="#DejaVuSans-56"/>
     </g>
    </g>
   </g>
   <g id="text_10">
    <g clip-path="url(#pd515b06fd6)">
     <!-- 9 -->
     <defs>
      <path d="M 10.984375 1.515625 
L 10.984375 10.5 
Q 14.703125 8.734375 18.5 7.8125 
Q 22.3125 6.890625 25.984375 6.890625 
Q 35.75 6.890625 40.890625 13.453125 
Q 46.046875 20.015625 46.78125 33.40625 
Q 43.953125 29.203125 39.59375 26.953125 
Q 35.25 24.703125 29.984375 24.703125 
Q 19.046875 24.703125 12.671875 31.3125 
Q 6.296875 37.9375 6.296875 49.421875 
Q 6.296875 60.640625 12.9375 67.421875 
Q 19.578125 74.21875 30.609375 74.21875 
Q 43.265625 74.21875 49.921875 64.515625 
Q 56.59375 54.828125 56.59375 36.375 
Q 56.59375 19.140625 48.40625 8.859375 
Q 40.234375 -1.421875 26.421875 -1.421875 
Q 22.703125 -1.421875 18.890625 -0.6875 
Q 15.09375 0.046875 10.984375 1.515625 
z
M 30.609375 32.421875 
Q 37.25 32.421875 41.125 36.953125 
Q 45.015625 41.5 45.015625 49.421875 
Q 45.015625 57.28125 41.125 61.84375 
Q 37.25 66.40625 30.609375 66.40625 
Q 23.96875 66.40625 20.09375 61.84375 
Q 16.21875 57.28125 16.21875 49.421875 
Q 16.21875 41.5 20.09375 36.953125 
Q 23.96875 32.421875 30.609375 32.421875 
z
" id="DejaVuSans-57"/>
     </defs>
     <g transform="translate(915.392608 704.982261)scale(0.12 -0.12)">
      <use xlink:href="#DejaVuSans-57"/>
     </g>
    </g>
   </g>
   <g id="text_11">
    <g clip-path="url(#pd515b06fd6)">
     <!-- 10 -->
     <g transform="translate(1000.259151 704.982261)scale(0.12 -0.12)">
      <use xlink:href="#DejaVuSans-49"/>
      <use x="63.623047" xlink:href="#DejaVuSans-48"/>
     </g>
    </g>
   </g>
   <g id="text_12">
    <g clip-path="url(#pd515b06fd6)">
     <!-- 11 -->
     <g transform="translate(1088.943195 704.982261)scale(0.12 -0.12)">
      <use xlink:href="#DejaVuSans-49"/>
      <use x="63.623047" xlink:href="#DejaVuSans-49"/>
     </g>
    </g>
   </g>
   <g id="text_13">
    <g clip-path="url(#pd515b06fd6)">
     <!-- 12 -->
     <g transform="translate(1177.627238 704.982261)scale(0.12 -0.12)">
      <use xlink:href="#DejaVuSans-49"/>
      <use x="63.623047" xlink:href="#DejaVuSans-50"/>
     </g>
    </g>
   </g>
   <g id="text_14">
    <g clip-path="url(#pd515b06fd6)">
     <!-- 13 -->
     <g transform="translate(1266.311281 704.982261)scale(0.12 -0.12)">
      <use xlink:href="#DejaVuSans-49"/>
      <use x="63.623047" xlink:href="#DejaVuSans-51"/>
     </g>
    </g>
   </g>
   <g id="text_15">
    <g clip-path="url(#pd515b06fd6)">
     <!-- 14 -->
     <g transform="translate(113.418719 660.640239)scale(0.12 -0.12)">
      <use xlink:href="#DejaVuSans-49"/>
      <use x="63.623047" xlink:href="#DejaVuSans-52"/>
     </g>
    </g>
   </g>
   <g id="text_16">
    <g clip-path="url(#pd515b06fd6)">
     <!-- 15 -->
     <g transform="translate(202.102762 660.640239)scale(0.12 -0.12)">
      <use xlink:href="#DejaVuSans-49"/>
      <use x="63.623047" xlink:href="#DejaVuSans-53"/>
     </g>
    </g>
   </g>
   <g id="text_17">
    <g clip-path="url(#pd515b06fd6)">
     <!-- 16 -->
     <g transform="translate(290.786805 660.640239)scale(0.12 -0.12)">
      <use xlink:href="#DejaVuSans-49"/>
      <use x="63.623047" xlink:href="#DejaVuSans-54"/>
     </g>
    </g>
   </g>
   <g id="text_18">
    <g clip-path="url(#pd515b06fd6)">
     <!-- 17 -->
     <g transform="translate(379.470849 660.640239)scale(0.12 -0.12)">
      <use xlink:href="#DejaVuSans-49"/>
      <use x="63.623047" xlink:href="#DejaVuSans-55"/>
     </g>
    </g>
   </g>
   <g id="text_19">
    <g clip-path="url(#pd515b06fd6)">
     <!-- 18 -->
     <g transform="translate(468.154892 660.640239)scale(0.12 -0.12)">
      <use xlink:href="#DejaVuSans-49"/>
      <use x="63.623047" xlink:href="#DejaVuSans-56"/>
     </g>
    </g>
   </g>
   <g id="text_20">
    <g clip-path="url(#pd515b06fd6)">
     <!-- 19 -->
     <g transform="translate(556.838935 660.640239)scale(0.12 -0.12)">
      <use xlink:href="#DejaVuSans-49"/>
      <use x="63.623047" xlink:href="#DejaVuSans-57"/>
     </g>
    </g>
   </g>
   <g id="text_21">
    <g clip-path="url(#pd515b06fd6)">
     <!-- 20 -->
     <g transform="translate(645.522978 660.640239)scale(0.12 -0.12)">
      <use xlink:href="#DejaVuSans-50"/>
      <use x="63.623047" xlink:href="#DejaVuSans-48"/>
     </g>
    </g>
   </g>
   <g id="text_22">
    <g clip-path="url(#pd515b06fd6)">
     <!-- 21 -->
     <g transform="translate(734.207022 660.640239)scale(0.12 -0.12)">
      <use xlink:href="#DejaVuSans-50"/>
      <use x="63.623047" xlink:href="#DejaVuSans-49"/>
     </g>
    </g>
   </g>
   <g id="text_23">
    <g clip-path="url(#pd515b06fd6)">
     <!-- 22 -->
     <g transform="translate(822.891065 660.640239)scale(0.12 -0.12)">
      <use xlink:href="#DejaVuSans-50"/>
      <use x="63.623047" xlink:href="#DejaVuSans-50"/>
     </g>
    </g>
   </g>
   <g id="text_24">
    <g clip-path="url(#pd515b06fd6)">
     <!-- 23 -->
     <g transform="translate(911.575108 660.640239)scale(0.12 -0.12)">
      <use xlink:href="#DejaVuSans-50"/>
      <use x="63.623047" xlink:href="#DejaVuSans-51"/>
     </g>
    </g>
   </g>
   <g id="text_25">
    <g clip-path="url(#pd515b06fd6)">
     <!-- 24 -->
     <g transform="translate(1000.259151 660.640239)scale(0.12 -0.12)">
      <use xlink:href="#DejaVuSans-50"/>
      <use x="63.623047" xlink:href="#DejaVuSans-52"/>
     </g>
    </g>
   </g>
   <g id="text_26">
    <g clip-path="url(#pd515b06fd6)">
     <!-- 25 -->
     <g transform="translate(1088.943195 660.640239)scale(0.12 -0.12)">
      <use xlink:href="#DejaVuSans-50"/>
      <use x="63.623047" xlink:href="#DejaVuSans-53"/>
     </g>
    </g>
   </g>
   <g id="text_27">
    <g clip-path="url(#pd515b06fd6)">
     <!-- 26 -->
     <g transform="translate(1177.627238 660.640239)scale(0.12 -0.12)">
      <use xlink:href="#DejaVuSans-50"/>
      <use x="63.623047" xlink:href="#DejaVuSans-54"/>
     </g>
    </g>
   </g>
   <g id="text_28">
    <g clip-path="url(#pd515b06fd6)">
     <!-- 27 -->
     <g transform="translate(1266.311281 660.640239)scale(0.12 -0.12)">
      <use xlink:href="#DejaVuSans-50"/>
      <use x="63.623047" xlink:href="#DejaVuSans-55"/>
     </g>
    </g>
   </g>
  </g>
 </g>
 <defs>
  <clipPath id="pd515b06fd6">
   <rect height="1359" width="1395" x="0" y="0"/>
  </clipPath>
 </defs>
</svg>
