<?xml version="1.0" encoding="utf-8" standalone="no"?>
<!DOCTYPE svg PUBLIC "-//W3C//DTD SVG 1.1//EN"
  "http://www.w3.org/Graphics/SVG/1.1/DTD/svg11.dtd">
<!-- Created with matplotlib (https://matplotlib.org/) -->
<svg height="1359pt" version="1.1" viewBox="0 0 1395 1359" width="1395pt" xmlns="http://www.w3.org/2000/svg" xmlns:xlink="http://www.w3.org/1999/xlink">
 <defs>
  <style type="text/css">
*{stroke-linecap:butt;stroke-linejoin:round;}
  </style>
 </defs>
 <g id="figure_1">
  <g id="patch_1">
   <path d="M 0 1359 
L 1395 1359 
L 1395 0 
L 0 0 
z
" style="fill:#ffffff;"/>
  </g>
  <g id="axes_1">
   <g id="patch_2">
    <path clip-path="url(#pea71aaa319)" d="M 121.053719 770.517834 
Q 177.401002 770.517834 232.630252 770.517834 
" style="fill:none;stroke:#000000;stroke-linecap:round;"/>
    <path clip-path="url(#pea71aaa319)" d="M 228.630252 768.517834 
L 232.630252 770.517834 
L 228.630252 772.517834 
L 228.630252 768.517834 
z
" style="stroke:#000000;stroke-linecap:round;"/>
   </g>
   <g id="patch_3">
    <path clip-path="url(#pea71aaa319)" d="M 121.053719 770.517834 
Q 177.860239 742.114574 233.66676 714.211313 
" style="fill:none;stroke:#000000;stroke-linecap:round;"/>
    <path clip-path="url(#pea71aaa319)" d="M 229.194624 714.211313 
L 233.66676 714.211313 
L 230.983478 717.789022 
L 229.194624 714.211313 
z
" style="stroke:#000000;stroke-linecap:round;"/>
   </g>
   <g id="patch_4">
    <path clip-path="url(#pea71aaa319)" d="M 242.410831 770.517834 
Q 298.758114 770.517834 353.987363 770.517834 
" style="fill:none;stroke:#000000;stroke-linecap:round;"/>
    <path clip-path="url(#pea71aaa319)" d="M 349.987363 768.517834 
L 353.987363 770.517834 
L 349.987363 772.517834 
L 349.987363 768.517834 
z
" style="stroke:#000000;stroke-linecap:round;"/>
   </g>
   <g id="patch_5">
    <path clip-path="url(#pea71aaa319)" d="M 242.410831 770.517834 
Q 299.217351 742.114574 355.023872 714.211313 
" style="fill:none;stroke:#000000;stroke-linecap:round;"/>
    <path clip-path="url(#pea71aaa319)" d="M 350.551736 714.211313 
L 355.023872 714.211313 
L 352.34059 717.789022 
L 350.551736 714.211313 
z
" style="stroke:#000000;stroke-linecap:round;"/>
   </g>
   <g id="patch_6">
    <path clip-path="url(#pea71aaa319)" d="M 363.767943 770.517834 
Q 420.115226 770.517834 475.344475 770.517834 
" style="fill:none;stroke:#000000;stroke-linecap:round;"/>
    <path clip-path="url(#pea71aaa319)" d="M 471.344475 768.517834 
L 475.344475 770.517834 
L 471.344475 772.517834 
L 471.344475 768.517834 
z
" style="stroke:#000000;stroke-linecap:round;"/>
   </g>
   <g id="patch_7">
    <path clip-path="url(#pea71aaa319)" d="M 363.767943 770.517834 
Q 420.574463 742.114574 476.380983 714.211313 
" style="fill:none;stroke:#000000;stroke-linecap:round;"/>
    <path clip-path="url(#pea71aaa319)" d="M 471.908847 714.211313 
L 476.380983 714.211313 
L 473.697702 717.789022 
L 471.908847 714.211313 
z
" style="stroke:#000000;stroke-linecap:round;"/>
   </g>
   <g id="patch_8">
    <path clip-path="url(#pea71aaa319)" d="M 485.125054 770.517834 
Q 535.430962 776.107379 584.625674 781.573458 
" style="fill:none;stroke:#000000;stroke-linecap:round;"/>
    <path clip-path="url(#pea71aaa319)" d="M 580.871002 779.143965 
L 584.625674 781.573458 
L 580.429276 783.1195 
L 580.871002 779.143965 
z
" style="stroke:#000000;stroke-linecap:round;"/>
   </g>
   <g id="patch_9">
    <path clip-path="url(#pea71aaa319)" d="M 121.053719 709.839278 
Q 177.401002 709.839278 232.630252 709.839278 
" style="fill:none;stroke:#000000;stroke-linecap:round;"/>
    <path clip-path="url(#pea71aaa319)" d="M 228.630252 707.839278 
L 232.630252 709.839278 
L 228.630252 711.839278 
L 228.630252 707.839278 
z
" style="stroke:#000000;stroke-linecap:round;"/>
   </g>
   <g id="patch_10">
    <path clip-path="url(#pea71aaa319)" d="M 121.053719 709.839278 
Q 177.860239 738.242538 233.66676 766.145798 
" style="fill:none;stroke:#000000;stroke-linecap:round;"/>
    <path clip-path="url(#pea71aaa319)" d="M 230.983478 762.56809 
L 233.66676 766.145798 
L 229.194624 766.145798 
L 230.983478 762.56809 
z
" style="stroke:#000000;stroke-linecap:round;"/>
   </g>
   <g id="patch_11">
    <path clip-path="url(#pea71aaa319)" d="M 242.410831 709.839278 
Q 298.758114 709.839278 353.987363 709.839278 
" style="fill:none;stroke:#000000;stroke-linecap:round;"/>
    <path clip-path="url(#pea71aaa319)" d="M 349.987363 707.839278 
L 353.987363 709.839278 
L 349.987363 711.839278 
L 349.987363 707.839278 
z
" style="stroke:#000000;stroke-linecap:round;"/>
   </g>
   <g id="patch_12">
    <path clip-path="url(#pea71aaa319)" d="M 242.410831 709.839278 
Q 299.217351 738.242538 355.023872 766.145798 
" style="fill:none;stroke:#000000;stroke-linecap:round;"/>
    <path clip-path="url(#pea71aaa319)" d="M 352.34059 762.56809 
L 355.023872 766.145798 
L 350.551736 766.145798 
L 352.34059 762.56809 
z
" style="stroke:#000000;stroke-linecap:round;"/>
   </g>
   <g id="patch_13">
    <path clip-path="url(#pea71aaa319)" d="M 363.767943 709.839278 
Q 420.115226 709.839278 475.344475 709.839278 
" style="fill:none;stroke:#000000;stroke-linecap:round;"/>
    <path clip-path="url(#pea71aaa319)" d="M 471.344475 707.839278 
L 475.344475 709.839278 
L 471.344475 711.839278 
L 471.344475 707.839278 
z
" style="stroke:#000000;stroke-linecap:round;"/>
   </g>
   <g id="patch_14">
    <path clip-path="url(#pea71aaa319)" d="M 363.767943 709.839278 
Q 420.574463 738.242538 476.380983 766.145798 
" style="fill:none;stroke:#000000;stroke-linecap:round;"/>
    <path clip-path="url(#pea71aaa319)" d="M 473.697702 762.56809 
L 476.380983 766.145798 
L 471.908847 766.145798 
L 473.697702 762.56809 
z
" style="stroke:#000000;stroke-linecap:round;"/>
   </g>
   <g id="patch_15">
    <path clip-path="url(#pea71aaa319)" d="M 485.125054 709.839278 
Q 541.472338 709.839278 596.701587 709.839278 
" style="fill:none;stroke:#000000;stroke-linecap:round;"/>
    <path clip-path="url(#pea71aaa319)" d="M 592.701587 707.839278 
L 596.701587 709.839278 
L 592.701587 711.839278 
L 592.701587 707.839278 
z
" style="stroke:#000000;stroke-linecap:round;"/>
   </g>
   <g id="patch_16">
    <path clip-path="url(#pea71aaa319)" d="M 485.125054 588.482166 
Q 428.777771 588.482166 373.548522 588.482166 
" style="fill:none;stroke:#000000;stroke-linecap:round;"/>
    <path clip-path="url(#pea71aaa319)" d="M 377.548522 590.482166 
L 373.548522 588.482166 
L 377.548522 586.482166 
L 377.548522 590.482166 
z
" style="stroke:#000000;stroke-linecap:round;"/>
   </g>
   <g id="patch_17">
    <path clip-path="url(#pea71aaa319)" d="M 485.125054 649.160722 
Q 428.777771 649.160722 373.548522 649.160722 
" style="fill:none;stroke:#000000;stroke-linecap:round;"/>
    <path clip-path="url(#pea71aaa319)" d="M 377.548522 651.160722 
L 373.548522 649.160722 
L 377.548522 647.160722 
L 377.548522 651.160722 
z
" style="stroke:#000000;stroke-linecap:round;"/>
   </g>
   <g id="patch_18">
    <path clip-path="url(#pea71aaa319)" d="M 1273.946281 588.482166 
Q 1217.598998 588.482166 1162.369748 588.482166 
" style="fill:none;stroke:#000000;stroke-linecap:round;"/>
    <path clip-path="url(#pea71aaa319)" d="M 1166.369748 590.482166 
L 1162.369748 588.482166 
L 1166.369748 586.482166 
L 1166.369748 590.482166 
z
" style="stroke:#000000;stroke-linecap:round;"/>
   </g>
   <g id="patch_19">
    <path clip-path="url(#pea71aaa319)" d="M 1273.946281 588.482166 
Q 1217.139761 616.885426 1161.33324 644.788687 
" style="fill:none;stroke:#000000;stroke-linecap:round;"/>
    <path clip-path="url(#pea71aaa319)" d="M 1165.805376 644.788687 
L 1161.33324 644.788687 
L 1164.016522 641.210978 
L 1165.805376 644.788687 
z
" style="stroke:#000000;stroke-linecap:round;"/>
   </g>
   <g id="patch_20">
    <path clip-path="url(#pea71aaa319)" d="M 1152.589169 588.482166 
Q 1096.241886 588.482166 1041.012637 588.482166 
" style="fill:none;stroke:#000000;stroke-linecap:round;"/>
    <path clip-path="url(#pea71aaa319)" d="M 1045.012637 590.482166 
L 1041.012637 588.482166 
L 1045.012637 586.482166 
L 1045.012637 590.482166 
z
" style="stroke:#000000;stroke-linecap:round;"/>
   </g>
   <g id="patch_21">
    <path clip-path="url(#pea71aaa319)" d="M 1152.589169 588.482166 
Q 1095.782649 616.885426 1039.976128 644.788687 
" style="fill:none;stroke:#000000;stroke-linecap:round;"/>
    <path clip-path="url(#pea71aaa319)" d="M 1044.448264 644.788687 
L 1039.976128 644.788687 
L 1042.65941 641.210978 
L 1044.448264 644.788687 
z
" style="stroke:#000000;stroke-linecap:round;"/>
   </g>
   <g id="patch_22">
    <path clip-path="url(#pea71aaa319)" d="M 1031.232057 588.482166 
Q 974.884774 588.482166 919.655525 588.482166 
" style="fill:none;stroke:#000000;stroke-linecap:round;"/>
    <path clip-path="url(#pea71aaa319)" d="M 923.655525 590.482166 
L 919.655525 588.482166 
L 923.655525 586.482166 
L 923.655525 590.482166 
z
" style="stroke:#000000;stroke-linecap:round;"/>
   </g>
   <g id="patch_23">
    <path clip-path="url(#pea71aaa319)" d="M 1031.232057 588.482166 
Q 974.425537 616.885426 918.619017 644.788687 
" style="fill:none;stroke:#000000;stroke-linecap:round;"/>
    <path clip-path="url(#pea71aaa319)" d="M 923.091153 644.788687 
L 918.619017 644.788687 
L 921.302298 641.210978 
L 923.091153 644.788687 
z
" style="stroke:#000000;stroke-linecap:round;"/>
   </g>
   <g id="patch_24">
    <path clip-path="url(#pea71aaa319)" d="M 909.874946 588.482166 
Q 859.569038 582.892621 810.374326 577.426542 
" style="fill:none;stroke:#000000;stroke-linecap:round;"/>
    <path clip-path="url(#pea71aaa319)" d="M 814.128998 579.856035 
L 810.374326 577.426542 
L 814.570724 575.8805 
L 814.128998 579.856035 
z
" style="stroke:#000000;stroke-linecap:round;"/>
   </g>
   <g id="patch_25">
    <path clip-path="url(#pea71aaa319)" d="M 1273.946281 649.160722 
Q 1217.598998 649.160722 1162.369748 649.160722 
" style="fill:none;stroke:#000000;stroke-linecap:round;"/>
    <path clip-path="url(#pea71aaa319)" d="M 1166.369748 651.160722 
L 1162.369748 649.160722 
L 1166.369748 647.160722 
L 1166.369748 651.160722 
z
" style="stroke:#000000;stroke-linecap:round;"/>
   </g>
   <g id="patch_26">
    <path clip-path="url(#pea71aaa319)" d="M 1273.946281 649.160722 
Q 1217.139761 620.757462 1161.33324 592.854202 
" style="fill:none;stroke:#000000;stroke-linecap:round;"/>
    <path clip-path="url(#pea71aaa319)" d="M 1164.016522 596.43191 
L 1161.33324 592.854202 
L 1165.805376 592.854202 
L 1164.016522 596.43191 
z
" style="stroke:#000000;stroke-linecap:round;"/>
   </g>
   <g id="patch_27">
    <path clip-path="url(#pea71aaa319)" d="M 1152.589169 649.160722 
Q 1096.241886 649.160722 1041.012637 649.160722 
" style="fill:none;stroke:#000000;stroke-linecap:round;"/>
    <path clip-path="url(#pea71aaa319)" d="M 1045.012637 651.160722 
L 1041.012637 649.160722 
L 1045.012637 647.160722 
L 1045.012637 651.160722 
z
" style="stroke:#000000;stroke-linecap:round;"/>
   </g>
   <g id="patch_28">
    <path clip-path="url(#pea71aaa319)" d="M 1152.589169 649.160722 
Q 1095.782649 620.757462 1039.976128 592.854202 
" style="fill:none;stroke:#000000;stroke-linecap:round;"/>
    <path clip-path="url(#pea71aaa319)" d="M 1042.65941 596.43191 
L 1039.976128 592.854202 
L 1044.448264 592.854202 
L 1042.65941 596.43191 
z
" style="stroke:#000000;stroke-linecap:round;"/>
   </g>
   <g id="patch_29">
    <path clip-path="url(#pea71aaa319)" d="M 1031.232057 649.160722 
Q 974.884774 649.160722 919.655525 649.160722 
" style="fill:none;stroke:#000000;stroke-linecap:round;"/>
    <path clip-path="url(#pea71aaa319)" d="M 923.655525 651.160722 
L 919.655525 649.160722 
L 923.655525 647.160722 
L 923.655525 651.160722 
z
" style="stroke:#000000;stroke-linecap:round;"/>
   </g>
   <g id="patch_30">
    <path clip-path="url(#pea71aaa319)" d="M 1031.232057 649.160722 
Q 974.425537 620.757462 918.619017 592.854202 
" style="fill:none;stroke:#000000;stroke-linecap:round;"/>
    <path clip-path="url(#pea71aaa319)" d="M 921.302298 596.43191 
L 918.619017 592.854202 
L 923.091153 592.854202 
L 921.302298 596.43191 
z
" style="stroke:#000000;stroke-linecap:round;"/>
   </g>
   <g id="patch_31">
    <path clip-path="url(#pea71aaa319)" d="M 909.874946 649.160722 
Q 853.527662 649.160722 798.298413 649.160722 
" style="fill:none;stroke:#000000;stroke-linecap:round;"/>
    <path clip-path="url(#pea71aaa319)" d="M 802.298413 651.160722 
L 798.298413 649.160722 
L 802.298413 647.160722 
L 802.298413 651.160722 
z
" style="stroke:#000000;stroke-linecap:round;"/>
   </g>
   <g id="patch_32">
    <path clip-path="url(#pea71aaa319)" d="M 909.874946 770.517834 
Q 966.222229 770.517834 1021.451478 770.517834 
" style="fill:none;stroke:#000000;stroke-linecap:round;"/>
    <path clip-path="url(#pea71aaa319)" d="M 1017.451478 768.517834 
L 1021.451478 770.517834 
L 1017.451478 772.517834 
L 1017.451478 768.517834 
z
" style="stroke:#000000;stroke-linecap:round;"/>
   </g>
   <g id="patch_33">
    <path clip-path="url(#pea71aaa319)" d="M 909.874946 709.839278 
Q 966.222229 709.839278 1021.451478 709.839278 
" style="fill:none;stroke:#000000;stroke-linecap:round;"/>
    <path clip-path="url(#pea71aaa319)" d="M 1017.451478 707.839278 
L 1021.451478 709.839278 
L 1017.451478 711.839278 
L 1017.451478 707.839278 
z
" style="stroke:#000000;stroke-linecap:round;"/>
   </g>
   <g id="patch_34">
    <path clip-path="url(#pea71aaa319)" d="M 788.517834 1255.946281 
Q 788.517834 1199.598998 788.517834 1144.369748 
" style="fill:none;stroke:#000000;stroke-linecap:round;"/>
    <path clip-path="url(#pea71aaa319)" d="M 786.517834 1148.369748 
L 788.517834 1144.369748 
L 790.517834 1148.369748 
L 786.517834 1148.369748 
z
" style="stroke:#000000;stroke-linecap:round;"/>
   </g>
   <g id="patch_35">
    <path clip-path="url(#pea71aaa319)" d="M 788.517834 1255.946281 
Q 760.114574 1199.139761 732.211313 1143.33324 
" style="fill:none;stroke:#000000;stroke-linecap:round;"/>
    <path clip-path="url(#pea71aaa319)" d="M 732.211313 1147.805376 
L 732.211313 1143.33324 
L 735.789022 1146.016522 
L 732.211313 1147.805376 
z
" style="stroke:#000000;stroke-linecap:round;"/>
   </g>
   <g id="patch_36">
    <path clip-path="url(#pea71aaa319)" d="M 788.517834 1134.589169 
Q 788.517834 1078.241886 788.517834 1023.012637 
" style="fill:none;stroke:#000000;stroke-linecap:round;"/>
    <path clip-path="url(#pea71aaa319)" d="M 786.517834 1027.012637 
L 788.517834 1023.012637 
L 790.517834 1027.012637 
L 786.517834 1027.012637 
z
" style="stroke:#000000;stroke-linecap:round;"/>
   </g>
   <g id="patch_37">
    <path clip-path="url(#pea71aaa319)" d="M 788.517834 1134.589169 
Q 760.114574 1077.782649 732.211313 1021.976128 
" style="fill:none;stroke:#000000;stroke-linecap:round;"/>
    <path clip-path="url(#pea71aaa319)" d="M 732.211313 1026.448264 
L 732.211313 1021.976128 
L 735.789022 1024.65941 
L 732.211313 1026.448264 
z
" style="stroke:#000000;stroke-linecap:round;"/>
   </g>
   <g id="patch_38">
    <path clip-path="url(#pea71aaa319)" d="M 788.517834 1013.232057 
Q 788.517834 956.884774 788.517834 901.655525 
" style="fill:none;stroke:#000000;stroke-linecap:round;"/>
    <path clip-path="url(#pea71aaa319)" d="M 786.517834 905.655525 
L 788.517834 901.655525 
L 790.517834 905.655525 
L 786.517834 905.655525 
z
" style="stroke:#000000;stroke-linecap:round;"/>
   </g>
   <g id="patch_39">
    <path clip-path="url(#pea71aaa319)" d="M 788.517834 1013.232057 
Q 760.114574 956.425537 732.211313 900.619017 
" style="fill:none;stroke:#000000;stroke-linecap:round;"/>
    <path clip-path="url(#pea71aaa319)" d="M 732.211313 905.091153 
L 732.211313 900.619017 
L 735.789022 903.302298 
L 732.211313 905.091153 
z
" style="stroke:#000000;stroke-linecap:round;"/>
   </g>
   <g id="patch_40">
    <path clip-path="url(#pea71aaa319)" d="M 788.517834 891.874946 
Q 794.107379 841.569038 799.573458 792.374326 
" style="fill:none;stroke:#000000;stroke-linecap:round;"/>
    <path clip-path="url(#pea71aaa319)" d="M 797.143965 796.128998 
L 799.573458 792.374326 
L 801.1195 796.570724 
L 797.143965 796.128998 
z
" style="stroke:#000000;stroke-linecap:round;"/>
   </g>
   <g id="patch_41">
    <path clip-path="url(#pea71aaa319)" d="M 727.839278 1255.946281 
Q 727.839278 1199.598998 727.839278 1144.369748 
" style="fill:none;stroke:#000000;stroke-linecap:round;"/>
    <path clip-path="url(#pea71aaa319)" d="M 725.839278 1148.369748 
L 727.839278 1144.369748 
L 729.839278 1148.369748 
L 725.839278 1148.369748 
z
" style="stroke:#000000;stroke-linecap:round;"/>
   </g>
   <g id="patch_42">
    <path clip-path="url(#pea71aaa319)" d="M 727.839278 1255.946281 
Q 756.242538 1199.139761 784.145798 1143.33324 
" style="fill:none;stroke:#000000;stroke-linecap:round;"/>
    <path clip-path="url(#pea71aaa319)" d="M 780.56809 1146.016522 
L 784.145798 1143.33324 
L 784.145798 1147.805376 
L 780.56809 1146.016522 
z
" style="stroke:#000000;stroke-linecap:round;"/>
   </g>
   <g id="patch_43">
    <path clip-path="url(#pea71aaa319)" d="M 727.839278 1134.589169 
Q 727.839278 1078.241886 727.839278 1023.012637 
" style="fill:none;stroke:#000000;stroke-linecap:round;"/>
    <path clip-path="url(#pea71aaa319)" d="M 725.839278 1027.012637 
L 727.839278 1023.012637 
L 729.839278 1027.012637 
L 725.839278 1027.012637 
z
" style="stroke:#000000;stroke-linecap:round;"/>
   </g>
   <g id="patch_44">
    <path clip-path="url(#pea71aaa319)" d="M 727.839278 1134.589169 
Q 756.242538 1077.782649 784.145798 1021.976128 
" style="fill:none;stroke:#000000;stroke-linecap:round;"/>
    <path clip-path="url(#pea71aaa319)" d="M 780.56809 1024.65941 
L 784.145798 1021.976128 
L 784.145798 1026.448264 
L 780.56809 1024.65941 
z
" style="stroke:#000000;stroke-linecap:round;"/>
   </g>
   <g id="patch_45">
    <path clip-path="url(#pea71aaa319)" d="M 727.839278 1013.232057 
Q 727.839278 956.884774 727.839278 901.655525 
" style="fill:none;stroke:#000000;stroke-linecap:round;"/>
    <path clip-path="url(#pea71aaa319)" d="M 725.839278 905.655525 
L 727.839278 901.655525 
L 729.839278 905.655525 
L 725.839278 905.655525 
z
" style="stroke:#000000;stroke-linecap:round;"/>
   </g>
   <g id="patch_46">
    <path clip-path="url(#pea71aaa319)" d="M 727.839278 1013.232057 
Q 756.242538 956.425537 784.145798 900.619017 
" style="fill:none;stroke:#000000;stroke-linecap:round;"/>
    <path clip-path="url(#pea71aaa319)" d="M 780.56809 903.302298 
L 784.145798 900.619017 
L 784.145798 905.091153 
L 780.56809 903.302298 
z
" style="stroke:#000000;stroke-linecap:round;"/>
   </g>
   <g id="patch_47">
    <path clip-path="url(#pea71aaa319)" d="M 727.839278 891.874946 
Q 727.839278 835.527662 727.839278 780.298413 
" style="fill:none;stroke:#000000;stroke-linecap:round;"/>
    <path clip-path="url(#pea71aaa319)" d="M 725.839278 784.298413 
L 727.839278 780.298413 
L 729.839278 784.298413 
L 725.839278 784.298413 
z
" style="stroke:#000000;stroke-linecap:round;"/>
   </g>
   <g id="patch_48">
    <path clip-path="url(#pea71aaa319)" d="M 606.482166 891.874946 
Q 606.482166 948.222229 606.482166 1003.451478 
" style="fill:none;stroke:#000000;stroke-linecap:round;"/>
    <path clip-path="url(#pea71aaa319)" d="M 608.482166 999.451478 
L 606.482166 1003.451478 
L 604.482166 999.451478 
L 608.482166 999.451478 
z
" style="stroke:#000000;stroke-linecap:round;"/>
   </g>
   <g id="patch_49">
    <path clip-path="url(#pea71aaa319)" d="M 667.160722 891.874946 
Q 667.160722 948.222229 667.160722 1003.451478 
" style="fill:none;stroke:#000000;stroke-linecap:round;"/>
    <path clip-path="url(#pea71aaa319)" d="M 669.160722 999.451478 
L 667.160722 1003.451478 
L 665.160722 999.451478 
L 669.160722 999.451478 
z
" style="stroke:#000000;stroke-linecap:round;"/>
   </g>
   <g id="patch_50">
    <path clip-path="url(#pea71aaa319)" d="M 606.482166 103.053719 
Q 606.482166 159.401002 606.482166 214.630252 
" style="fill:none;stroke:#000000;stroke-linecap:round;"/>
    <path clip-path="url(#pea71aaa319)" d="M 608.482166 210.630252 
L 606.482166 214.630252 
L 604.482166 210.630252 
L 608.482166 210.630252 
z
" style="stroke:#000000;stroke-linecap:round;"/>
   </g>
   <g id="patch_51">
    <path clip-path="url(#pea71aaa319)" d="M 606.482166 103.053719 
Q 634.885426 159.860239 662.788687 215.66676 
" style="fill:none;stroke:#000000;stroke-linecap:round;"/>
    <path clip-path="url(#pea71aaa319)" d="M 662.788687 211.194624 
L 662.788687 215.66676 
L 659.210978 212.983478 
L 662.788687 211.194624 
z
" style="stroke:#000000;stroke-linecap:round;"/>
   </g>
   <g id="patch_52">
    <path clip-path="url(#pea71aaa319)" d="M 606.482166 224.410831 
Q 606.482166 280.758114 606.482166 335.987363 
" style="fill:none;stroke:#000000;stroke-linecap:round;"/>
    <path clip-path="url(#pea71aaa319)" d="M 608.482166 331.987363 
L 606.482166 335.987363 
L 604.482166 331.987363 
L 608.482166 331.987363 
z
" style="stroke:#000000;stroke-linecap:round;"/>
   </g>
   <g id="patch_53">
    <path clip-path="url(#pea71aaa319)" d="M 606.482166 224.410831 
Q 634.885426 281.217351 662.788687 337.023872 
" style="fill:none;stroke:#000000;stroke-linecap:round;"/>
    <path clip-path="url(#pea71aaa319)" d="M 662.788687 332.551736 
L 662.788687 337.023872 
L 659.210978 334.34059 
L 662.788687 332.551736 
z
" style="stroke:#000000;stroke-linecap:round;"/>
   </g>
   <g id="patch_54">
    <path clip-path="url(#pea71aaa319)" d="M 606.482166 345.767943 
Q 606.482166 402.115226 606.482166 457.344475 
" style="fill:none;stroke:#000000;stroke-linecap:round;"/>
    <path clip-path="url(#pea71aaa319)" d="M 608.482166 453.344475 
L 606.482166 457.344475 
L 604.482166 453.344475 
L 608.482166 453.344475 
z
" style="stroke:#000000;stroke-linecap:round;"/>
   </g>
   <g id="patch_55">
    <path clip-path="url(#pea71aaa319)" d="M 606.482166 345.767943 
Q 634.885426 402.574463 662.788687 458.380983 
" style="fill:none;stroke:#000000;stroke-linecap:round;"/>
    <path clip-path="url(#pea71aaa319)" d="M 662.788687 453.908847 
L 662.788687 458.380983 
L 659.210978 455.697702 
L 662.788687 453.908847 
z
" style="stroke:#000000;stroke-linecap:round;"/>
   </g>
   <g id="patch_56">
    <path clip-path="url(#pea71aaa319)" d="M 606.482166 467.125054 
Q 600.892621 517.430962 595.426542 566.625674 
" style="fill:none;stroke:#000000;stroke-linecap:round;"/>
    <path clip-path="url(#pea71aaa319)" d="M 597.856035 562.871002 
L 595.426542 566.625674 
L 593.8805 562.429276 
L 597.856035 562.871002 
z
" style="stroke:#000000;stroke-linecap:round;"/>
   </g>
   <g id="patch_57">
    <path clip-path="url(#pea71aaa319)" d="M 667.160722 103.053719 
Q 667.160722 159.401002 667.160722 214.630252 
" style="fill:none;stroke:#000000;stroke-linecap:round;"/>
    <path clip-path="url(#pea71aaa319)" d="M 669.160722 210.630252 
L 667.160722 214.630252 
L 665.160722 210.630252 
L 669.160722 210.630252 
z
" style="stroke:#000000;stroke-linecap:round;"/>
   </g>
   <g id="patch_58">
    <path clip-path="url(#pea71aaa319)" d="M 667.160722 103.053719 
Q 638.757462 159.860239 610.854202 215.66676 
" style="fill:none;stroke:#000000;stroke-linecap:round;"/>
    <path clip-path="url(#pea71aaa319)" d="M 614.43191 212.983478 
L 610.854202 215.66676 
L 610.854202 211.194624 
L 614.43191 212.983478 
z
" style="stroke:#000000;stroke-linecap:round;"/>
   </g>
   <g id="patch_59">
    <path clip-path="url(#pea71aaa319)" d="M 667.160722 224.410831 
Q 667.160722 280.758114 667.160722 335.987363 
" style="fill:none;stroke:#000000;stroke-linecap:round;"/>
    <path clip-path="url(#pea71aaa319)" d="M 669.160722 331.987363 
L 667.160722 335.987363 
L 665.160722 331.987363 
L 669.160722 331.987363 
z
" style="stroke:#000000;stroke-linecap:round;"/>
   </g>
   <g id="patch_60">
    <path clip-path="url(#pea71aaa319)" d="M 667.160722 224.410831 
Q 638.757462 281.217351 610.854202 337.023872 
" style="fill:none;stroke:#000000;stroke-linecap:round;"/>
    <path clip-path="url(#pea71aaa319)" d="M 614.43191 334.34059 
L 610.854202 337.023872 
L 610.854202 332.551736 
L 614.43191 334.34059 
z
" style="stroke:#000000;stroke-linecap:round;"/>
   </g>
   <g id="patch_61">
    <path clip-path="url(#pea71aaa319)" d="M 667.160722 345.767943 
Q 667.160722 402.115226 667.160722 457.344475 
" style="fill:none;stroke:#000000;stroke-linecap:round;"/>
    <path clip-path="url(#pea71aaa319)" d="M 669.160722 453.344475 
L 667.160722 457.344475 
L 665.160722 453.344475 
L 669.160722 453.344475 
z
" style="stroke:#000000;stroke-linecap:round;"/>
   </g>
   <g id="patch_62">
    <path clip-path="url(#pea71aaa319)" d="M 667.160722 345.767943 
Q 638.757462 402.574463 610.854202 458.380983 
" style="fill:none;stroke:#000000;stroke-linecap:round;"/>
    <path clip-path="url(#pea71aaa319)" d="M 614.43191 455.697702 
L 610.854202 458.380983 
L 610.854202 453.908847 
L 614.43191 455.697702 
z
" style="stroke:#000000;stroke-linecap:round;"/>
   </g>
   <g id="patch_63">
    <path clip-path="url(#pea71aaa319)" d="M 667.160722 467.125054 
Q 667.160722 523.472338 667.160722 578.701587 
" style="fill:none;stroke:#000000;stroke-linecap:round;"/>
    <path clip-path="url(#pea71aaa319)" d="M 669.160722 574.701587 
L 667.160722 578.701587 
L 665.160722 574.701587 
L 669.160722 574.701587 
z
" style="stroke:#000000;stroke-linecap:round;"/>
   </g>
   <g id="patch_64">
    <path clip-path="url(#pea71aaa319)" d="M 788.517834 467.125054 
Q 788.517834 410.777771 788.517834 355.548522 
" style="fill:none;stroke:#000000;stroke-linecap:round;"/>
    <path clip-path="url(#pea71aaa319)" d="M 786.517834 359.548522 
L 788.517834 355.548522 
L 790.517834 359.548522 
L 786.517834 359.548522 
z
" style="stroke:#000000;stroke-linecap:round;"/>
   </g>
   <g id="patch_65">
    <path clip-path="url(#pea71aaa319)" d="M 727.839278 467.125054 
Q 727.839278 410.777771 727.839278 355.548522 
" style="fill:none;stroke:#000000;stroke-linecap:round;"/>
    <path clip-path="url(#pea71aaa319)" d="M 725.839278 359.548522 
L 727.839278 355.548522 
L 729.839278 359.548522 
L 725.839278 359.548522 
z
" style="stroke:#000000;stroke-linecap:round;"/>
   </g>
   <g id="patch_66">
    <path clip-path="url(#pea71aaa319)" d="M 594.346455 782.653545 
Q 599.936 832.959453 605.402079 882.154165 
" style="fill:none;stroke:#000000;stroke-linecap:round;"/>
    <path clip-path="url(#pea71aaa319)" d="M 606.948121 877.957767 
L 605.402079 882.154165 
L 602.972586 878.399493 
L 606.948121 877.957767 
z
" style="stroke:#000000;stroke-linecap:round;"/>
   </g>
   <g id="patch_67">
    <path clip-path="url(#pea71aaa319)" d="M 594.346455 782.653545 
Q 626.480461 777.297877 657.511646 772.126013 
" style="fill:none;stroke:#000000;stroke-linecap:round;"/>
    <path clip-path="url(#pea71aaa319)" d="M 653.237272 770.810821 
L 657.511646 772.126013 
L 653.894868 774.756397 
L 653.237272 770.810821 
z
" style="stroke:#000000;stroke-linecap:round;"/>
   </g>
   <g id="patch_68">
    <path clip-path="url(#pea71aaa319)" d="M 667.160722 770.517834 
Q 667.160722 826.865117 667.160722 882.094366 
" style="fill:none;stroke:#000000;stroke-linecap:round;"/>
    <path clip-path="url(#pea71aaa319)" d="M 669.160722 878.094366 
L 667.160722 882.094366 
L 665.160722 878.094366 
L 669.160722 878.094366 
z
" style="stroke:#000000;stroke-linecap:round;"/>
   </g>
   <g id="patch_69">
    <path clip-path="url(#pea71aaa319)" d="M 667.160722 770.517834 
Q 693.168727 770.517834 718.058699 770.517834 
" style="fill:none;stroke:#000000;stroke-linecap:round;"/>
    <path clip-path="url(#pea71aaa319)" d="M 714.058699 768.517834 
L 718.058699 770.517834 
L 714.058699 772.517834 
L 714.058699 768.517834 
z
" style="stroke:#000000;stroke-linecap:round;"/>
   </g>
   <g id="patch_70">
    <path clip-path="url(#pea71aaa319)" d="M 727.839278 770.517834 
Q 727.839278 744.509829 727.839278 719.619857 
" style="fill:none;stroke:#000000;stroke-linecap:round;"/>
    <path clip-path="url(#pea71aaa319)" d="M 725.839278 723.619857 
L 727.839278 719.619857 
L 729.839278 723.619857 
L 725.839278 723.619857 
z
" style="stroke:#000000;stroke-linecap:round;"/>
   </g>
   <g id="patch_71">
    <path clip-path="url(#pea71aaa319)" d="M 727.839278 770.517834 
Q 714.335299 738.108285 701.261334 706.730768 
" style="fill:none;stroke:#000000;stroke-linecap:round;"/>
    <path clip-path="url(#pea71aaa319)" d="M 700.953642 711.192307 
L 701.261334 706.730768 
L 704.645949 709.653845 
L 700.953642 711.192307 
z
" style="stroke:#000000;stroke-linecap:round;"/>
   </g>
   <g id="patch_72">
    <path clip-path="url(#pea71aaa319)" d="M 727.839278 770.517834 
Q 759.973284 775.873502 791.004468 781.045366 
" style="fill:none;stroke:#000000;stroke-linecap:round;"/>
    <path clip-path="url(#pea71aaa319)" d="M 787.387691 778.414982 
L 791.004468 781.045366 
L 786.730095 782.360557 
L 787.387691 778.414982 
z
" style="stroke:#000000;stroke-linecap:round;"/>
   </g>
   <g id="patch_73">
    <path clip-path="url(#pea71aaa319)" d="M 800.653545 782.653545 
Q 795.297877 750.519539 790.126013 719.488354 
" style="fill:none;stroke:#000000;stroke-linecap:round;"/>
    <path clip-path="url(#pea71aaa319)" d="M 788.810821 723.762728 
L 790.126013 719.488354 
L 792.756397 723.105132 
L 788.810821 723.762728 
z
" style="stroke:#000000;stroke-linecap:round;"/>
   </g>
   <g id="patch_74">
    <path clip-path="url(#pea71aaa319)" d="M 800.653545 782.653545 
Q 850.959453 777.064 900.154165 771.597921 
" style="fill:none;stroke:#000000;stroke-linecap:round;"/>
    <path clip-path="url(#pea71aaa319)" d="M 895.957767 770.051879 
L 900.154165 771.597921 
L 896.399493 774.027414 
L 895.957767 770.051879 
z
" style="stroke:#000000;stroke-linecap:round;"/>
   </g>
   <g id="patch_75">
    <path clip-path="url(#pea71aaa319)" d="M 606.482166 709.839278 
Q 601.126498 741.973284 595.954634 773.004468 
" style="fill:none;stroke:#000000;stroke-linecap:round;"/>
    <path clip-path="url(#pea71aaa319)" d="M 598.585018 769.387691 
L 595.954634 773.004468 
L 594.639443 768.730095 
L 598.585018 769.387691 
z
" style="stroke:#000000;stroke-linecap:round;"/>
   </g>
   <g id="patch_76">
    <path clip-path="url(#pea71aaa319)" d="M 606.482166 709.839278 
Q 632.490171 709.839278 657.380143 709.839278 
" style="fill:none;stroke:#000000;stroke-linecap:round;"/>
    <path clip-path="url(#pea71aaa319)" d="M 653.380143 707.839278 
L 657.380143 709.839278 
L 653.380143 711.839278 
L 653.380143 707.839278 
z
" style="stroke:#000000;stroke-linecap:round;"/>
   </g>
   <g id="patch_77">
    <path clip-path="url(#pea71aaa319)" d="M 606.482166 709.839278 
Q 638.891715 696.335299 670.269232 683.261334 
" style="fill:none;stroke:#000000;stroke-linecap:round;"/>
    <path clip-path="url(#pea71aaa319)" d="M 665.807693 682.953642 
L 670.269232 683.261334 
L 667.346155 686.645949 
L 665.807693 682.953642 
z
" style="stroke:#000000;stroke-linecap:round;"/>
   </g>
   <g id="patch_78">
    <path clip-path="url(#pea71aaa319)" d="M 667.160722 709.839278 
Q 667.160722 735.847283 667.160722 760.737255 
" style="fill:none;stroke:#000000;stroke-linecap:round;"/>
    <path clip-path="url(#pea71aaa319)" d="M 669.160722 756.737255 
L 667.160722 760.737255 
L 665.160722 756.737255 
L 669.160722 756.737255 
z
" style="stroke:#000000;stroke-linecap:round;"/>
   </g>
   <g id="patch_79">
    <path clip-path="url(#pea71aaa319)" d="M 667.160722 709.839278 
Q 693.168727 709.839278 718.058699 709.839278 
" style="fill:none;stroke:#000000;stroke-linecap:round;"/>
    <path clip-path="url(#pea71aaa319)" d="M 714.058699 707.839278 
L 718.058699 709.839278 
L 714.058699 711.839278 
L 714.058699 707.839278 
z
" style="stroke:#000000;stroke-linecap:round;"/>
   </g>
   <g id="patch_80">
    <path clip-path="url(#pea71aaa319)" d="M 727.839278 709.839278 
Q 727.839278 683.831273 727.839278 658.941301 
" style="fill:none;stroke:#000000;stroke-linecap:round;"/>
    <path clip-path="url(#pea71aaa319)" d="M 725.839278 662.941301 
L 727.839278 658.941301 
L 729.839278 662.941301 
L 725.839278 662.941301 
z
" style="stroke:#000000;stroke-linecap:round;"/>
   </g>
   <g id="patch_81">
    <path clip-path="url(#pea71aaa319)" d="M 727.839278 709.839278 
Q 753.847283 709.839278 778.737255 709.839278 
" style="fill:none;stroke:#000000;stroke-linecap:round;"/>
    <path clip-path="url(#pea71aaa319)" d="M 774.737255 707.839278 
L 778.737255 709.839278 
L 774.737255 711.839278 
L 774.737255 707.839278 
z
" style="stroke:#000000;stroke-linecap:round;"/>
   </g>
   <g id="patch_82">
    <path clip-path="url(#pea71aaa319)" d="M 788.517834 709.839278 
Q 788.517834 683.831273 788.517834 658.941301 
" style="fill:none;stroke:#000000;stroke-linecap:round;"/>
    <path clip-path="url(#pea71aaa319)" d="M 786.517834 662.941301 
L 788.517834 658.941301 
L 790.517834 662.941301 
L 786.517834 662.941301 
z
" style="stroke:#000000;stroke-linecap:round;"/>
   </g>
   <g id="patch_83">
    <path clip-path="url(#pea71aaa319)" d="M 788.517834 709.839278 
Q 844.865117 709.839278 900.094366 709.839278 
" style="fill:none;stroke:#000000;stroke-linecap:round;"/>
    <path clip-path="url(#pea71aaa319)" d="M 896.094366 707.839278 
L 900.094366 709.839278 
L 896.094366 711.839278 
L 896.094366 707.839278 
z
" style="stroke:#000000;stroke-linecap:round;"/>
   </g>
   <g id="patch_84">
    <path clip-path="url(#pea71aaa319)" d="M 606.482166 649.160722 
Q 550.134883 649.160722 494.905634 649.160722 
" style="fill:none;stroke:#000000;stroke-linecap:round;"/>
    <path clip-path="url(#pea71aaa319)" d="M 498.905634 651.160722 
L 494.905634 649.160722 
L 498.905634 647.160722 
L 498.905634 651.160722 
z
" style="stroke:#000000;stroke-linecap:round;"/>
   </g>
   <g id="patch_85">
    <path clip-path="url(#pea71aaa319)" d="M 606.482166 649.160722 
Q 606.482166 675.168727 606.482166 700.058699 
" style="fill:none;stroke:#000000;stroke-linecap:round;"/>
    <path clip-path="url(#pea71aaa319)" d="M 608.482166 696.058699 
L 606.482166 700.058699 
L 604.482166 696.058699 
L 608.482166 696.058699 
z
" style="stroke:#000000;stroke-linecap:round;"/>
   </g>
   <g id="patch_86">
    <path clip-path="url(#pea71aaa319)" d="M 667.160722 649.160722 
Q 641.152717 649.160722 616.262745 649.160722 
" style="fill:none;stroke:#000000;stroke-linecap:round;"/>
    <path clip-path="url(#pea71aaa319)" d="M 620.262745 651.160722 
L 616.262745 649.160722 
L 620.262745 647.160722 
L 620.262745 651.160722 
z
" style="stroke:#000000;stroke-linecap:round;"/>
   </g>
   <g id="patch_87">
    <path clip-path="url(#pea71aaa319)" d="M 667.160722 649.160722 
Q 667.160722 675.168727 667.160722 700.058699 
" style="fill:none;stroke:#000000;stroke-linecap:round;"/>
    <path clip-path="url(#pea71aaa319)" d="M 669.160722 696.058699 
L 667.160722 700.058699 
L 665.160722 696.058699 
L 669.160722 696.058699 
z
" style="stroke:#000000;stroke-linecap:round;"/>
   </g>
   <g id="patch_88">
    <path clip-path="url(#pea71aaa319)" d="M 727.839278 649.160722 
Q 727.839278 623.152717 727.839278 598.262745 
" style="fill:none;stroke:#000000;stroke-linecap:round;"/>
    <path clip-path="url(#pea71aaa319)" d="M 725.839278 602.262745 
L 727.839278 598.262745 
L 729.839278 602.262745 
L 725.839278 602.262745 
z
" style="stroke:#000000;stroke-linecap:round;"/>
   </g>
   <g id="patch_89">
    <path clip-path="url(#pea71aaa319)" d="M 727.839278 649.160722 
Q 701.831273 649.160722 676.941301 649.160722 
" style="fill:none;stroke:#000000;stroke-linecap:round;"/>
    <path clip-path="url(#pea71aaa319)" d="M 680.941301 651.160722 
L 676.941301 649.160722 
L 680.941301 647.160722 
L 680.941301 651.160722 
z
" style="stroke:#000000;stroke-linecap:round;"/>
   </g>
   <g id="patch_90">
    <path clip-path="url(#pea71aaa319)" d="M 788.517834 649.160722 
Q 793.873502 617.026716 799.045366 585.995532 
" style="fill:none;stroke:#000000;stroke-linecap:round;"/>
    <path clip-path="url(#pea71aaa319)" d="M 796.414982 589.612309 
L 799.045366 585.995532 
L 800.360557 590.269905 
L 796.414982 589.612309 
z
" style="stroke:#000000;stroke-linecap:round;"/>
   </g>
   <g id="patch_91">
    <path clip-path="url(#pea71aaa319)" d="M 788.517834 649.160722 
Q 762.509829 649.160722 737.619857 649.160722 
" style="fill:none;stroke:#000000;stroke-linecap:round;"/>
    <path clip-path="url(#pea71aaa319)" d="M 741.619857 651.160722 
L 737.619857 649.160722 
L 741.619857 647.160722 
L 741.619857 651.160722 
z
" style="stroke:#000000;stroke-linecap:round;"/>
   </g>
   <g id="patch_92">
    <path clip-path="url(#pea71aaa319)" d="M 788.517834 649.160722 
Q 756.108285 662.664701 724.730768 675.738666 
" style="fill:none;stroke:#000000;stroke-linecap:round;"/>
    <path clip-path="url(#pea71aaa319)" d="M 729.192307 676.046358 
L 724.730768 675.738666 
L 727.653845 672.354051 
L 729.192307 676.046358 
z
" style="stroke:#000000;stroke-linecap:round;"/>
   </g>
   <g id="patch_93">
    <path clip-path="url(#pea71aaa319)" d="M 594.346455 576.346455 
Q 544.040547 581.936 494.845835 587.402079 
" style="fill:none;stroke:#000000;stroke-linecap:round;"/>
    <path clip-path="url(#pea71aaa319)" d="M 499.042233 588.948121 
L 494.845835 587.402079 
L 498.600507 584.972586 
L 499.042233 588.948121 
z
" style="stroke:#000000;stroke-linecap:round;"/>
   </g>
   <g id="patch_94">
    <path clip-path="url(#pea71aaa319)" d="M 594.346455 576.346455 
Q 599.702123 608.480461 604.873987 639.511646 
" style="fill:none;stroke:#000000;stroke-linecap:round;"/>
    <path clip-path="url(#pea71aaa319)" d="M 606.189179 635.237272 
L 604.873987 639.511646 
L 602.243603 635.894868 
L 606.189179 635.237272 
z
" style="stroke:#000000;stroke-linecap:round;"/>
   </g>
   <g id="patch_95">
    <path clip-path="url(#pea71aaa319)" d="M 667.160722 588.482166 
Q 635.026716 583.126498 603.995532 577.954634 
" style="fill:none;stroke:#000000;stroke-linecap:round;"/>
    <path clip-path="url(#pea71aaa319)" d="M 607.612309 580.585018 
L 603.995532 577.954634 
L 608.269905 576.639443 
L 607.612309 580.585018 
z
" style="stroke:#000000;stroke-linecap:round;"/>
   </g>
   <g id="patch_96">
    <path clip-path="url(#pea71aaa319)" d="M 667.160722 588.482166 
Q 667.160722 614.490171 667.160722 639.380143 
" style="fill:none;stroke:#000000;stroke-linecap:round;"/>
    <path clip-path="url(#pea71aaa319)" d="M 669.160722 635.380143 
L 667.160722 639.380143 
L 665.160722 635.380143 
L 669.160722 635.380143 
z
" style="stroke:#000000;stroke-linecap:round;"/>
   </g>
   <g id="patch_97">
    <path clip-path="url(#pea71aaa319)" d="M 667.160722 588.482166 
Q 680.664701 620.891715 693.738666 652.269232 
" style="fill:none;stroke:#000000;stroke-linecap:round;"/>
    <path clip-path="url(#pea71aaa319)" d="M 694.046358 647.807693 
L 693.738666 652.269232 
L 690.354051 649.346155 
L 694.046358 647.807693 
z
" style="stroke:#000000;stroke-linecap:round;"/>
   </g>
   <g id="patch_98">
    <path clip-path="url(#pea71aaa319)" d="M 727.839278 588.482166 
Q 727.839278 532.134883 727.839278 476.905634 
" style="fill:none;stroke:#000000;stroke-linecap:round;"/>
    <path clip-path="url(#pea71aaa319)" d="M 725.839278 480.905634 
L 727.839278 476.905634 
L 729.839278 480.905634 
L 725.839278 480.905634 
z
" style="stroke:#000000;stroke-linecap:round;"/>
   </g>
   <g id="patch_99">
    <path clip-path="url(#pea71aaa319)" d="M 727.839278 588.482166 
Q 701.831273 588.482166 676.941301 588.482166 
" style="fill:none;stroke:#000000;stroke-linecap:round;"/>
    <path clip-path="url(#pea71aaa319)" d="M 680.941301 590.482166 
L 676.941301 588.482166 
L 680.941301 586.482166 
L 680.941301 590.482166 
z
" style="stroke:#000000;stroke-linecap:round;"/>
   </g>
   <g id="patch_100">
    <path clip-path="url(#pea71aaa319)" d="M 800.653545 576.346455 
Q 795.064 526.040547 789.597921 476.845835 
" style="fill:none;stroke:#000000;stroke-linecap:round;"/>
    <path clip-path="url(#pea71aaa319)" d="M 788.051879 481.042233 
L 789.597921 476.845835 
L 792.027414 480.600507 
L 788.051879 481.042233 
z
" style="stroke:#000000;stroke-linecap:round;"/>
   </g>
   <g id="patch_101">
    <path clip-path="url(#pea71aaa319)" d="M 800.653545 576.346455 
Q 768.519539 581.702123 737.488354 586.873987 
" style="fill:none;stroke:#000000;stroke-linecap:round;"/>
    <path clip-path="url(#pea71aaa319)" d="M 741.762728 588.189179 
L 737.488354 586.873987 
L 741.105132 584.243603 
L 741.762728 588.189179 
z
" style="stroke:#000000;stroke-linecap:round;"/>
   </g>
   <g id="patch_102">
    <path clip-path="url(#pea71aaa319)" d="M 679.296433 679.5 
Q 646.886885 665.996021 615.509368 652.922056 
" style="fill:none;stroke:#000000;stroke-linecap:round;"/>
    <path clip-path="url(#pea71aaa319)" d="M 618.432445 656.306671 
L 615.509368 652.922056 
L 619.970906 652.614364 
L 618.432445 656.306671 
z
" style="stroke:#000000;stroke-linecap:round;"/>
   </g>
   <g id="patch_103">
    <path clip-path="url(#pea71aaa319)" d="M 679.296433 679.5 
Q 685.337253 673.45918 690.587504 668.20893 
" style="fill:none;stroke:#000000;stroke-linecap:round;"/>
    <path clip-path="url(#pea71aaa319)" d="M 686.344863 669.623143 
L 690.587504 668.20893 
L 689.17329 672.45157 
L 686.344863 669.623143 
z
" style="stroke:#000000;stroke-linecap:round;"/>
   </g>
   <g id="patch_104">
    <path clip-path="url(#pea71aaa319)" d="M 697.5 697.703567 
Q 691.45918 691.662747 686.20893 686.412496 
" style="fill:none;stroke:#000000;stroke-linecap:round;"/>
    <path clip-path="url(#pea71aaa319)" d="M 687.623143 690.655137 
L 686.20893 686.412496 
L 690.45157 687.82671 
L 687.623143 690.655137 
z
" style="stroke:#000000;stroke-linecap:round;"/>
   </g>
   <g id="patch_105">
    <path clip-path="url(#pea71aaa319)" d="M 697.5 697.703567 
Q 683.996021 730.113115 670.922056 761.490632 
" style="fill:none;stroke:#000000;stroke-linecap:round;"/>
    <path clip-path="url(#pea71aaa319)" d="M 674.306671 758.567555 
L 670.922056 761.490632 
L 670.614364 757.029094 
L 674.306671 758.567555 
z
" style="stroke:#000000;stroke-linecap:round;"/>
   </g>
   <g id="patch_106">
    <path clip-path="url(#pea71aaa319)" d="M 715.703567 679.5 
Q 709.662747 685.54082 704.412496 690.79107 
" style="fill:none;stroke:#000000;stroke-linecap:round;"/>
    <path clip-path="url(#pea71aaa319)" d="M 708.655137 689.376857 
L 704.412496 690.79107 
L 705.82671 686.54843 
L 708.655137 689.376857 
z
" style="stroke:#000000;stroke-linecap:round;"/>
   </g>
   <g id="patch_107">
    <path clip-path="url(#pea71aaa319)" d="M 715.703567 679.5 
Q 748.113115 693.003979 779.490632 706.077944 
" style="fill:none;stroke:#000000;stroke-linecap:round;"/>
    <path clip-path="url(#pea71aaa319)" d="M 776.567555 702.693329 
L 779.490632 706.077944 
L 775.029094 706.385636 
L 776.567555 702.693329 
z
" style="stroke:#000000;stroke-linecap:round;"/>
   </g>
   <g id="patch_108">
    <path clip-path="url(#pea71aaa319)" d="M 697.5 661.296433 
Q 703.54082 667.337253 708.79107 672.587504 
" style="fill:none;stroke:#000000;stroke-linecap:round;"/>
    <path clip-path="url(#pea71aaa319)" d="M 707.376857 668.344863 
L 708.79107 672.587504 
L 704.54843 671.17329 
L 707.376857 668.344863 
z
" style="stroke:#000000;stroke-linecap:round;"/>
   </g>
   <g id="patch_109">
    <path clip-path="url(#pea71aaa319)" d="M 697.5 661.296433 
Q 711.003979 628.886885 724.077944 597.509368 
" style="fill:none;stroke:#000000;stroke-linecap:round;"/>
    <path clip-path="url(#pea71aaa319)" d="M 720.693329 600.432445 
L 724.077944 597.509368 
L 724.385636 601.970906 
L 720.693329 600.432445 
z
" style="stroke:#000000;stroke-linecap:round;"/>
   </g>
   <g id="PathCollection_1">
    <defs>
     <path d="M 0 8.660254 
C 2.296726 8.660254 4.499694 7.747755 6.123724 6.123724 
C 7.747755 4.499694 8.660254 2.296726 8.660254 0 
C 8.660254 -2.296726 7.747755 -4.499694 6.123724 -6.123724 
C 4.499694 -7.747755 2.296726 -8.660254 0 -8.660254 
C -2.296726 -8.660254 -4.499694 -7.747755 -6.123724 -6.123724 
C -7.747755 -4.499694 -8.660254 -2.296726 -8.660254 0 
C -8.660254 2.296726 -7.747755 4.499694 -6.123724 6.123724 
C -4.499694 7.747755 -2.296726 8.660254 0 8.660254 
z
" id="C0_0_51842d30f7"/>
    </defs>
    <g clip-path="url(#pea71aaa319)">
     <use style="fill:#66b3ff;stroke:#000000;" x="121.053719" xlink:href="#C0_0_51842d30f7" y="770.517834"/>
    </g>
    <g clip-path="url(#pea71aaa319)">
     <use style="fill:#66b3ff;stroke:#000000;" x="242.410831" xlink:href="#C0_0_51842d30f7" y="770.517834"/>
    </g>
    <g clip-path="url(#pea71aaa319)">
     <use style="fill:#808080;stroke:#000000;" x="363.767943" xlink:href="#C0_0_51842d30f7" y="770.517834"/>
    </g>
    <g clip-path="url(#pea71aaa319)">
     <use style="fill:#808080;stroke:#000000;" x="485.125054" xlink:href="#C0_0_51842d30f7" y="770.517834"/>
    </g>
    <g clip-path="url(#pea71aaa319)">
     <use style="fill:#66b3ff;stroke:#000000;" x="121.053719" xlink:href="#C0_0_51842d30f7" y="709.839278"/>
    </g>
    <g clip-path="url(#pea71aaa319)">
     <use style="fill:#66b3ff;stroke:#000000;" x="242.410831" xlink:href="#C0_0_51842d30f7" y="709.839278"/>
    </g>
    <g clip-path="url(#pea71aaa319)">
     <use style="fill:#808080;stroke:#000000;" x="363.767943" xlink:href="#C0_0_51842d30f7" y="709.839278"/>
    </g>
    <g clip-path="url(#pea71aaa319)">
     <use style="fill:#808080;stroke:#000000;" x="485.125054" xlink:href="#C0_0_51842d30f7" y="709.839278"/>
    </g>
    <g clip-path="url(#pea71aaa319)">
     <use style="fill:#808080;stroke:#000000;" x="485.125054" xlink:href="#C0_0_51842d30f7" y="588.482166"/>
    </g>
    <g clip-path="url(#pea71aaa319)">
     <use style="fill:#ff4d4d;stroke:#000000;" x="363.767943" xlink:href="#C0_0_51842d30f7" y="588.482166"/>
    </g>
    <g clip-path="url(#pea71aaa319)">
     <use style="fill:#808080;stroke:#000000;" x="485.125054" xlink:href="#C0_0_51842d30f7" y="649.160722"/>
    </g>
    <g clip-path="url(#pea71aaa319)">
     <use style="fill:#ff4d4d;stroke:#000000;" x="363.767943" xlink:href="#C0_0_51842d30f7" y="649.160722"/>
    </g>
    <g clip-path="url(#pea71aaa319)">
     <use style="fill:#66b3ff;stroke:#000000;" x="1273.946281" xlink:href="#C0_0_51842d30f7" y="588.482166"/>
    </g>
    <g clip-path="url(#pea71aaa319)">
     <use style="fill:#66b3ff;stroke:#000000;" x="1152.589169" xlink:href="#C0_0_51842d30f7" y="588.482166"/>
    </g>
    <g clip-path="url(#pea71aaa319)">
     <use style="fill:#808080;stroke:#000000;" x="1031.232057" xlink:href="#C0_0_51842d30f7" y="588.482166"/>
    </g>
    <g clip-path="url(#pea71aaa319)">
     <use style="fill:#808080;stroke:#000000;" x="909.874946" xlink:href="#C0_0_51842d30f7" y="588.482166"/>
    </g>
    <g clip-path="url(#pea71aaa319)">
     <use style="fill:#66b3ff;stroke:#000000;" x="1273.946281" xlink:href="#C0_0_51842d30f7" y="649.160722"/>
    </g>
    <g clip-path="url(#pea71aaa319)">
     <use style="fill:#66b3ff;stroke:#000000;" x="1152.589169" xlink:href="#C0_0_51842d30f7" y="649.160722"/>
    </g>
    <g clip-path="url(#pea71aaa319)">
     <use style="fill:#808080;stroke:#000000;" x="1031.232057" xlink:href="#C0_0_51842d30f7" y="649.160722"/>
    </g>
    <g clip-path="url(#pea71aaa319)">
     <use style="fill:#808080;stroke:#000000;" x="909.874946" xlink:href="#C0_0_51842d30f7" y="649.160722"/>
    </g>
    <g clip-path="url(#pea71aaa319)">
     <use style="fill:#808080;stroke:#000000;" x="909.874946" xlink:href="#C0_0_51842d30f7" y="770.517834"/>
    </g>
    <g clip-path="url(#pea71aaa319)">
     <use style="fill:#ff4d4d;stroke:#000000;" x="1031.232057" xlink:href="#C0_0_51842d30f7" y="770.517834"/>
    </g>
    <g clip-path="url(#pea71aaa319)">
     <use style="fill:#808080;stroke:#000000;" x="909.874946" xlink:href="#C0_0_51842d30f7" y="709.839278"/>
    </g>
    <g clip-path="url(#pea71aaa319)">
     <use style="fill:#ff4d4d;stroke:#000000;" x="1031.232057" xlink:href="#C0_0_51842d30f7" y="709.839278"/>
    </g>
    <g clip-path="url(#pea71aaa319)">
     <use style="fill:#66b3ff;stroke:#000000;" x="788.517834" xlink:href="#C0_0_51842d30f7" y="1255.946281"/>
    </g>
    <g clip-path="url(#pea71aaa319)">
     <use style="fill:#66b3ff;stroke:#000000;" x="788.517834" xlink:href="#C0_0_51842d30f7" y="1134.589169"/>
    </g>
    <g clip-path="url(#pea71aaa319)">
     <use style="fill:#808080;stroke:#000000;" x="788.517834" xlink:href="#C0_0_51842d30f7" y="1013.232057"/>
    </g>
    <g clip-path="url(#pea71aaa319)">
     <use style="fill:#808080;stroke:#000000;" x="788.517834" xlink:href="#C0_0_51842d30f7" y="891.874946"/>
    </g>
    <g clip-path="url(#pea71aaa319)">
     <use style="fill:#66b3ff;stroke:#000000;" x="727.839278" xlink:href="#C0_0_51842d30f7" y="1255.946281"/>
    </g>
    <g clip-path="url(#pea71aaa319)">
     <use style="fill:#66b3ff;stroke:#000000;" x="727.839278" xlink:href="#C0_0_51842d30f7" y="1134.589169"/>
    </g>
    <g clip-path="url(#pea71aaa319)">
     <use style="fill:#808080;stroke:#000000;" x="727.839278" xlink:href="#C0_0_51842d30f7" y="1013.232057"/>
    </g>
    <g clip-path="url(#pea71aaa319)">
     <use style="fill:#808080;stroke:#000000;" x="727.839278" xlink:href="#C0_0_51842d30f7" y="891.874946"/>
    </g>
    <g clip-path="url(#pea71aaa319)">
     <use style="fill:#808080;stroke:#000000;" x="606.482166" xlink:href="#C0_0_51842d30f7" y="891.874946"/>
    </g>
    <g clip-path="url(#pea71aaa319)">
     <use style="fill:#ff4d4d;stroke:#000000;" x="606.482166" xlink:href="#C0_0_51842d30f7" y="1013.232057"/>
    </g>
    <g clip-path="url(#pea71aaa319)">
     <use style="fill:#808080;stroke:#000000;" x="667.160722" xlink:href="#C0_0_51842d30f7" y="891.874946"/>
    </g>
    <g clip-path="url(#pea71aaa319)">
     <use style="fill:#ff4d4d;stroke:#000000;" x="667.160722" xlink:href="#C0_0_51842d30f7" y="1013.232057"/>
    </g>
    <g clip-path="url(#pea71aaa319)">
     <use style="fill:#66b3ff;stroke:#000000;" x="606.482166" xlink:href="#C0_0_51842d30f7" y="103.053719"/>
    </g>
    <g clip-path="url(#pea71aaa319)">
     <use style="fill:#66b3ff;stroke:#000000;" x="606.482166" xlink:href="#C0_0_51842d30f7" y="224.410831"/>
    </g>
    <g clip-path="url(#pea71aaa319)">
     <use style="fill:#808080;stroke:#000000;" x="606.482166" xlink:href="#C0_0_51842d30f7" y="345.767943"/>
    </g>
    <g clip-path="url(#pea71aaa319)">
     <use style="fill:#808080;stroke:#000000;" x="606.482166" xlink:href="#C0_0_51842d30f7" y="467.125054"/>
    </g>
    <g clip-path="url(#pea71aaa319)">
     <use style="fill:#66b3ff;stroke:#000000;" x="667.160722" xlink:href="#C0_0_51842d30f7" y="103.053719"/>
    </g>
    <g clip-path="url(#pea71aaa319)">
     <use style="fill:#66b3ff;stroke:#000000;" x="667.160722" xlink:href="#C0_0_51842d30f7" y="224.410831"/>
    </g>
    <g clip-path="url(#pea71aaa319)">
     <use style="fill:#808080;stroke:#000000;" x="667.160722" xlink:href="#C0_0_51842d30f7" y="345.767943"/>
    </g>
    <g clip-path="url(#pea71aaa319)">
     <use style="fill:#808080;stroke:#000000;" x="667.160722" xlink:href="#C0_0_51842d30f7" y="467.125054"/>
    </g>
    <g clip-path="url(#pea71aaa319)">
     <use style="fill:#808080;stroke:#000000;" x="788.517834" xlink:href="#C0_0_51842d30f7" y="467.125054"/>
    </g>
    <g clip-path="url(#pea71aaa319)">
     <use style="fill:#ff4d4d;stroke:#000000;" x="788.517834" xlink:href="#C0_0_51842d30f7" y="345.767943"/>
    </g>
    <g clip-path="url(#pea71aaa319)">
     <use style="fill:#808080;stroke:#000000;" x="727.839278" xlink:href="#C0_0_51842d30f7" y="467.125054"/>
    </g>
    <g clip-path="url(#pea71aaa319)">
     <use style="fill:#ff4d4d;stroke:#000000;" x="727.839278" xlink:href="#C0_0_51842d30f7" y="345.767943"/>
    </g>
    <g clip-path="url(#pea71aaa319)">
     <use style="fill:#808080;stroke:#000000;" x="594.346455" xlink:href="#C0_0_51842d30f7" y="782.653545"/>
    </g>
    <g clip-path="url(#pea71aaa319)">
     <use style="fill:#808080;stroke:#000000;" x="667.160722" xlink:href="#C0_0_51842d30f7" y="770.517834"/>
    </g>
    <g clip-path="url(#pea71aaa319)">
     <use style="fill:#808080;stroke:#000000;" x="727.839278" xlink:href="#C0_0_51842d30f7" y="770.517834"/>
    </g>
    <g clip-path="url(#pea71aaa319)">
     <use style="fill:#808080;stroke:#000000;" x="800.653545" xlink:href="#C0_0_51842d30f7" y="782.653545"/>
    </g>
    <g clip-path="url(#pea71aaa319)">
     <use style="fill:#808080;stroke:#000000;" x="606.482166" xlink:href="#C0_0_51842d30f7" y="709.839278"/>
    </g>
    <g clip-path="url(#pea71aaa319)">
     <use style="fill:#808080;stroke:#000000;" x="667.160722" xlink:href="#C0_0_51842d30f7" y="709.839278"/>
    </g>
    <g clip-path="url(#pea71aaa319)">
     <use style="fill:#808080;stroke:#000000;" x="727.839278" xlink:href="#C0_0_51842d30f7" y="709.839278"/>
    </g>
    <g clip-path="url(#pea71aaa319)">
     <use style="fill:#808080;stroke:#000000;" x="788.517834" xlink:href="#C0_0_51842d30f7" y="709.839278"/>
    </g>
    <g clip-path="url(#pea71aaa319)">
     <use style="fill:#808080;stroke:#000000;" x="606.482166" xlink:href="#C0_0_51842d30f7" y="649.160722"/>
    </g>
    <g clip-path="url(#pea71aaa319)">
     <use style="fill:#808080;stroke:#000000;" x="667.160722" xlink:href="#C0_0_51842d30f7" y="649.160722"/>
    </g>
    <g clip-path="url(#pea71aaa319)">
     <use style="fill:#808080;stroke:#000000;" x="727.839278" xlink:href="#C0_0_51842d30f7" y="649.160722"/>
    </g>
    <g clip-path="url(#pea71aaa319)">
     <use style="fill:#808080;stroke:#000000;" x="788.517834" xlink:href="#C0_0_51842d30f7" y="649.160722"/>
    </g>
    <g clip-path="url(#pea71aaa319)">
     <use style="fill:#808080;stroke:#000000;" x="594.346455" xlink:href="#C0_0_51842d30f7" y="576.346455"/>
    </g>
    <g clip-path="url(#pea71aaa319)">
     <use style="fill:#808080;stroke:#000000;" x="667.160722" xlink:href="#C0_0_51842d30f7" y="588.482166"/>
    </g>
    <g clip-path="url(#pea71aaa319)">
     <use style="fill:#808080;stroke:#000000;" x="727.839278" xlink:href="#C0_0_51842d30f7" y="588.482166"/>
    </g>
    <g clip-path="url(#pea71aaa319)">
     <use style="fill:#808080;stroke:#000000;" x="800.653545" xlink:href="#C0_0_51842d30f7" y="576.346455"/>
    </g>
    <g clip-path="url(#pea71aaa319)">
     <use style="fill:#808080;stroke:#000000;" x="679.296433" xlink:href="#C0_0_51842d30f7" y="679.5"/>
    </g>
    <g clip-path="url(#pea71aaa319)">
     <use style="fill:#808080;stroke:#000000;" x="697.5" xlink:href="#C0_0_51842d30f7" y="697.703567"/>
    </g>
    <g clip-path="url(#pea71aaa319)">
     <use style="fill:#808080;stroke:#000000;" x="715.703567" xlink:href="#C0_0_51842d30f7" y="679.5"/>
    </g>
    <g clip-path="url(#pea71aaa319)">
     <use style="fill:#808080;stroke:#000000;" x="697.5" xlink:href="#C0_0_51842d30f7" y="661.296433"/>
    </g>
   </g>
   <g id="text_1">
    <g clip-path="url(#pea71aaa319)">
     <!-- 0 -->
     <defs>
      <path d="M 31.78125 66.40625 
Q 24.171875 66.40625 20.328125 58.90625 
Q 16.5 51.421875 16.5 36.375 
Q 16.5 21.390625 20.328125 13.890625 
Q 24.171875 6.390625 31.78125 6.390625 
Q 39.453125 6.390625 43.28125 13.890625 
Q 47.125 21.390625 47.125 36.375 
Q 47.125 51.421875 43.28125 58.90625 
Q 39.453125 66.40625 31.78125 66.40625 
z
M 31.78125 74.21875 
Q 44.046875 74.21875 50.515625 64.515625 
Q 56.984375 54.828125 56.984375 36.375 
Q 56.984375 17.96875 50.515625 8.265625 
Q 44.046875 -1.421875 31.78125 -1.421875 
Q 19.53125 -1.421875 13.0625 8.265625 
Q 6.59375 17.96875 6.59375 36.375 
Q 6.59375 54.828125 13.0625 64.515625 
Q 19.53125 74.21875 31.78125 74.21875 
z
" id="DejaVuSans-48"/>
     </defs>
     <g transform="translate(117.236219 773.829084)scale(0.12 -0.12)">
      <use xlink:href="#DejaVuSans-48"/>
     </g>
    </g>
   </g>
   <g id="text_2">
    <g clip-path="url(#pea71aaa319)">
     <!-- 1 -->
     <defs>
      <path d="M 12.40625 8.296875 
L 28.515625 8.296875 
L 28.515625 63.921875 
L 10.984375 60.40625 
L 10.984375 69.390625 
L 28.421875 72.90625 
L 38.28125 72.90625 
L 38.28125 8.296875 
L 54.390625 8.296875 
L 54.390625 0 
L 12.40625 0 
z
" id="DejaVuSans-49"/>
     </defs>
     <g transform="translate(238.593331 773.829084)scale(0.12 -0.12)">
      <use xlink:href="#DejaVuSans-49"/>
     </g>
    </g>
   </g>
   <g id="text_3">
    <g clip-path="url(#pea71aaa319)">
     <!-- 2 -->
     <defs>
      <path d="M 19.1875 8.296875 
L 53.609375 8.296875 
L 53.609375 0 
L 7.328125 0 
L 7.328125 8.296875 
Q 12.9375 14.109375 22.625 23.890625 
Q 32.328125 33.6875 34.8125 36.53125 
Q 39.546875 41.84375 41.421875 45.53125 
Q 43.3125 49.21875 43.3125 52.78125 
Q 43.3125 58.59375 39.234375 62.25 
Q 35.15625 65.921875 28.609375 65.921875 
Q 23.96875 65.921875 18.8125 64.3125 
Q 13.671875 62.703125 7.8125 59.421875 
L 7.8125 69.390625 
Q 13.765625 71.78125 18.9375 73 
Q 24.125 74.21875 28.421875 74.21875 
Q 39.75 74.21875 46.484375 68.546875 
Q 53.21875 62.890625 53.21875 53.421875 
Q 53.21875 48.921875 51.53125 44.890625 
Q 49.859375 40.875 45.40625 35.40625 
Q 44.1875 33.984375 37.640625 27.21875 
Q 31.109375 20.453125 19.1875 8.296875 
z
" id="DejaVuSans-50"/>
     </defs>
     <g transform="translate(359.950443 773.829084)scale(0.12 -0.12)">
      <use xlink:href="#DejaVuSans-50"/>
     </g>
    </g>
   </g>
   <g id="text_4">
    <g clip-path="url(#pea71aaa319)">
     <!-- 3 -->
     <defs>
      <path d="M 40.578125 39.3125 
Q 47.65625 37.796875 51.625 33 
Q 55.609375 28.21875 55.609375 21.1875 
Q 55.609375 10.40625 48.1875 4.484375 
Q 40.765625 -1.421875 27.09375 -1.421875 
Q 22.515625 -1.421875 17.65625 -0.515625 
Q 12.796875 0.390625 7.625 2.203125 
L 7.625 11.71875 
Q 11.71875 9.328125 16.59375 8.109375 
Q 21.484375 6.890625 26.8125 6.890625 
Q 36.078125 6.890625 40.9375 10.546875 
Q 45.796875 14.203125 45.796875 21.1875 
Q 45.796875 27.640625 41.28125 31.265625 
Q 36.765625 34.90625 28.71875 34.90625 
L 20.21875 34.90625 
L 20.21875 43.015625 
L 29.109375 43.015625 
Q 36.375 43.015625 40.234375 45.921875 
Q 44.09375 48.828125 44.09375 54.296875 
Q 44.09375 59.90625 40.109375 62.90625 
Q 36.140625 65.921875 28.71875 65.921875 
Q 24.65625 65.921875 20.015625 65.03125 
Q 15.375 64.15625 9.8125 62.3125 
L 9.8125 71.09375 
Q 15.4375 72.65625 20.34375 73.4375 
Q 25.25 74.21875 29.59375 74.21875 
Q 40.828125 74.21875 47.359375 69.109375 
Q 53.90625 64.015625 53.90625 55.328125 
Q 53.90625 49.265625 50.4375 45.09375 
Q 46.96875 40.921875 40.578125 39.3125 
z
" id="DejaVuSans-51"/>
     </defs>
     <g transform="translate(481.307554 773.829084)scale(0.12 -0.12)">
      <use xlink:href="#DejaVuSans-51"/>
     </g>
    </g>
   </g>
   <g id="text_5">
    <g clip-path="url(#pea71aaa319)">
     <!-- 4 -->
     <defs>
      <path d="M 37.796875 64.3125 
L 12.890625 25.390625 
L 37.796875 25.390625 
z
M 35.203125 72.90625 
L 47.609375 72.90625 
L 47.609375 25.390625 
L 58.015625 25.390625 
L 58.015625 17.1875 
L 47.609375 17.1875 
L 47.609375 0 
L 37.796875 0 
L 37.796875 17.1875 
L 4.890625 17.1875 
L 4.890625 26.703125 
z
" id="DejaVuSans-52"/>
     </defs>
     <g transform="translate(117.236219 713.150528)scale(0.12 -0.12)">
      <use xlink:href="#DejaVuSans-52"/>
     </g>
    </g>
   </g>
   <g id="text_6">
    <g clip-path="url(#pea71aaa319)">
     <!-- 5 -->
     <defs>
      <path d="M 10.796875 72.90625 
L 49.515625 72.90625 
L 49.515625 64.59375 
L 19.828125 64.59375 
L 19.828125 46.734375 
Q 21.96875 47.46875 24.109375 47.828125 
Q 26.265625 48.1875 28.421875 48.1875 
Q 40.625 48.1875 47.75 41.5 
Q 54.890625 34.8125 54.890625 23.390625 
Q 54.890625 11.625 47.5625 5.09375 
Q 40.234375 -1.421875 26.90625 -1.421875 
Q 22.3125 -1.421875 17.546875 -0.640625 
Q 12.796875 0.140625 7.71875 1.703125 
L 7.71875 11.625 
Q 12.109375 9.234375 16.796875 8.0625 
Q 21.484375 6.890625 26.703125 6.890625 
Q 35.15625 6.890625 40.078125 11.328125 
Q 45.015625 15.765625 45.015625 23.390625 
Q 45.015625 31 40.078125 35.4375 
Q 35.15625 39.890625 26.703125 39.890625 
Q 22.75 39.890625 18.8125 39.015625 
Q 14.890625 38.140625 10.796875 36.28125 
z
" id="DejaVuSans-53"/>
     </defs>
     <g transform="translate(238.593331 713.150528)scale(0.12 -0.12)">
      <use xlink:href="#DejaVuSans-53"/>
     </g>
    </g>
   </g>
   <g id="text_7">
    <g clip-path="url(#pea71aaa319)">
     <!-- 6 -->
     <defs>
      <path d="M 33.015625 40.375 
Q 26.375 40.375 22.484375 35.828125 
Q 18.609375 31.296875 18.609375 23.390625 
Q 18.609375 15.53125 22.484375 10.953125 
Q 26.375 6.390625 33.015625 6.390625 
Q 39.65625 6.390625 43.53125 10.953125 
Q 47.40625 15.53125 47.40625 23.390625 
Q 47.40625 31.296875 43.53125 35.828125 
Q 39.65625 40.375 33.015625 40.375 
z
M 52.59375 71.296875 
L 52.59375 62.3125 
Q 48.875 64.0625 45.09375 64.984375 
Q 41.3125 65.921875 37.59375 65.921875 
Q 27.828125 65.921875 22.671875 59.328125 
Q 17.53125 52.734375 16.796875 39.40625 
Q 19.671875 43.65625 24.015625 45.921875 
Q 28.375 48.1875 33.59375 48.1875 
Q 44.578125 48.1875 50.953125 41.515625 
Q 57.328125 34.859375 57.328125 23.390625 
Q 57.328125 12.15625 50.6875 5.359375 
Q 44.046875 -1.421875 33.015625 -1.421875 
Q 20.359375 -1.421875 13.671875 8.265625 
Q 6.984375 17.96875 6.984375 36.375 
Q 6.984375 53.65625 15.1875 63.9375 
Q 23.390625 74.21875 37.203125 74.21875 
Q 40.921875 74.21875 44.703125 73.484375 
Q 48.484375 72.75 52.59375 71.296875 
z
" id="DejaVuSans-54"/>
     </defs>
     <g transform="translate(359.950443 713.150528)scale(0.12 -0.12)">
      <use xlink:href="#DejaVuSans-54"/>
     </g>
    </g>
   </g>
   <g id="text_8">
    <g clip-path="url(#pea71aaa319)">
     <!-- 7 -->
     <defs>
      <path d="M 8.203125 72.90625 
L 55.078125 72.90625 
L 55.078125 68.703125 
L 28.609375 0 
L 18.3125 0 
L 43.21875 64.59375 
L 8.203125 64.59375 
z
" id="DejaVuSans-55"/>
     </defs>
     <g transform="translate(481.307554 713.150528)scale(0.12 -0.12)">
      <use xlink:href="#DejaVuSans-55"/>
     </g>
    </g>
   </g>
   <g id="text_9">
    <g clip-path="url(#pea71aaa319)">
     <!-- 8 -->
     <defs>
      <path d="M 31.78125 34.625 
Q 24.75 34.625 20.71875 30.859375 
Q 16.703125 27.09375 16.703125 20.515625 
Q 16.703125 13.921875 20.71875 10.15625 
Q 24.75 6.390625 31.78125 6.390625 
Q 38.8125 6.390625 42.859375 10.171875 
Q 46.921875 13.96875 46.921875 20.515625 
Q 46.921875 27.09375 42.890625 30.859375 
Q 38.875 34.625 31.78125 34.625 
z
M 21.921875 38.8125 
Q 15.578125 40.375 12.03125 44.71875 
Q 8.5 49.078125 8.5 55.328125 
Q 8.5 64.0625 14.71875 69.140625 
Q 20.953125 74.21875 31.78125 74.21875 
Q 42.671875 74.21875 48.875 69.140625 
Q 55.078125 64.0625 55.078125 55.328125 
Q 55.078125 49.078125 51.53125 44.71875 
Q 48 40.375 41.703125 38.8125 
Q 48.828125 37.15625 52.796875 32.3125 
Q 56.78125 27.484375 56.78125 20.515625 
Q 56.78125 9.90625 50.3125 4.234375 
Q 43.84375 -1.421875 31.78125 -1.421875 
Q 19.734375 -1.421875 13.25 4.234375 
Q 6.78125 9.90625 6.78125 20.515625 
Q 6.78125 27.484375 10.78125 32.3125 
Q 14.796875 37.15625 21.921875 38.8125 
z
M 18.3125 54.390625 
Q 18.3125 48.734375 21.84375 45.5625 
Q 25.390625 42.390625 31.78125 42.390625 
Q 38.140625 42.390625 41.71875 45.5625 
Q 45.3125 48.734375 45.3125 54.390625 
Q 45.3125 60.0625 41.71875 63.234375 
Q 38.140625 66.40625 31.78125 66.40625 
Q 25.390625 66.40625 21.84375 63.234375 
Q 18.3125 60.0625 18.3125 54.390625 
z
" id="DejaVuSans-56"/>
     </defs>
     <g transform="translate(481.307554 591.793416)scale(0.12 -0.12)">
      <use xlink:href="#DejaVuSans-56"/>
     </g>
    </g>
   </g>
   <g id="text_10">
    <g clip-path="url(#pea71aaa319)">
     <!-- 9 -->
     <defs>
      <path d="M 10.984375 1.515625 
L 10.984375 10.5 
Q 14.703125 8.734375 18.5 7.8125 
Q 22.3125 6.890625 25.984375 6.890625 
Q 35.75 6.890625 40.890625 13.453125 
Q 46.046875 20.015625 46.78125 33.40625 
Q 43.953125 29.203125 39.59375 26.953125 
Q 35.25 24.703125 29.984375 24.703125 
Q 19.046875 24.703125 12.671875 31.3125 
Q 6.296875 37.9375 6.296875 49.421875 
Q 6.296875 60.640625 12.9375 67.421875 
Q 19.578125 74.21875 30.609375 74.21875 
Q 43.265625 74.21875 49.921875 64.515625 
Q 56.59375 54.828125 56.59375 36.375 
Q 56.59375 19.140625 48.40625 8.859375 
Q 40.234375 -1.421875 26.421875 -1.421875 
Q 22.703125 -1.421875 18.890625 -0.6875 
Q 15.09375 0.046875 10.984375 1.515625 
z
M 30.609375 32.421875 
Q 37.25 32.421875 41.125 36.953125 
Q 45.015625 41.5 45.015625 49.421875 
Q 45.015625 57.28125 41.125 61.84375 
Q 37.25 66.40625 30.609375 66.40625 
Q 23.96875 66.40625 20.09375 61.84375 
Q 16.21875 57.28125 16.21875 49.421875 
Q 16.21875 41.5 20.09375 36.953125 
Q 23.96875 32.421875 30.609375 32.421875 
z
" id="DejaVuSans-57"/>
     </defs>
     <g transform="translate(359.950443 591.793416)scale(0.12 -0.12)">
      <use xlink:href="#DejaVuSans-57"/>
     </g>
    </g>
   </g>
   <g id="text_11">
    <g clip-path="url(#pea71aaa319)">
     <!-- 10 -->
     <g transform="translate(477.490054 652.471972)scale(0.12 -0.12)">
      <use xlink:href="#DejaVuSans-49"/>
      <use x="63.623047" xlink:href="#DejaVuSans-48"/>
     </g>
    </g>
   </g>
   <g id="text_12">
    <g clip-path="url(#pea71aaa319)">
     <!-- 11 -->
     <g transform="translate(356.132943 652.471972)scale(0.12 -0.12)">
      <use xlink:href="#DejaVuSans-49"/>
      <use x="63.623047" xlink:href="#DejaVuSans-49"/>
     </g>
    </g>
   </g>
   <g id="text_13">
    <g clip-path="url(#pea71aaa319)">
     <!-- 12 -->
     <g transform="translate(1266.311281 591.793416)scale(0.12 -0.12)">
      <use xlink:href="#DejaVuSans-49"/>
      <use x="63.623047" xlink:href="#DejaVuSans-50"/>
     </g>
    </g>
   </g>
   <g id="text_14">
    <g clip-path="url(#pea71aaa319)">
     <!-- 13 -->
     <g transform="translate(1144.954169 591.793416)scale(0.12 -0.12)">
      <use xlink:href="#DejaVuSans-49"/>
      <use x="63.623047" xlink:href="#DejaVuSans-51"/>
     </g>
    </g>
   </g>
   <g id="text_15">
    <g clip-path="url(#pea71aaa319)">
     <!-- 14 -->
     <g transform="translate(1023.597057 591.793416)scale(0.12 -0.12)">
      <use xlink:href="#DejaVuSans-49"/>
      <use x="63.623047" xlink:href="#DejaVuSans-52"/>
     </g>
    </g>
   </g>
   <g id="text_16">
    <g clip-path="url(#pea71aaa319)">
     <!-- 15 -->
     <g transform="translate(902.239946 591.793416)scale(0.12 -0.12)">
      <use xlink:href="#DejaVuSans-49"/>
      <use x="63.623047" xlink:href="#DejaVuSans-53"/>
     </g>
    </g>
   </g>
   <g id="text_17">
    <g clip-path="url(#pea71aaa319)">
     <!-- 16 -->
     <g transform="translate(1266.311281 652.471972)scale(0.12 -0.12)">
      <use xlink:href="#DejaVuSans-49"/>
      <use x="63.623047" xlink:href="#DejaVuSans-54"/>
     </g>
    </g>
   </g>
   <g id="text_18">
    <g clip-path="url(#pea71aaa319)">
     <!-- 17 -->
     <g transform="translate(1144.954169 652.471972)scale(0.12 -0.12)">
      <use xlink:href="#DejaVuSans-49"/>
      <use x="63.623047" xlink:href="#DejaVuSans-55"/>
     </g>
    </g>
   </g>
   <g id="text_19">
    <g clip-path="url(#pea71aaa319)">
     <!-- 18 -->
     <g transform="translate(1023.597057 652.471972)scale(0.12 -0.12)">
      <use xlink:href="#DejaVuSans-49"/>
      <use x="63.623047" xlink:href="#DejaVuSans-56"/>
     </g>
    </g>
   </g>
   <g id="text_20">
    <g clip-path="url(#pea71aaa319)">
     <!-- 19 -->
     <g transform="translate(902.239946 652.471972)scale(0.12 -0.12)">
      <use xlink:href="#DejaVuSans-49"/>
      <use x="63.623047" xlink:href="#DejaVuSans-57"/>
     </g>
    </g>
   </g>
   <g id="text_21">
    <g clip-path="url(#pea71aaa319)">
     <!-- 20 -->
     <g transform="translate(902.239946 773.829084)scale(0.12 -0.12)">
      <use xlink:href="#DejaVuSans-50"/>
      <use x="63.623047" xlink:href="#DejaVuSans-48"/>
     </g>
    </g>
   </g>
   <g id="text_22">
    <g clip-path="url(#pea71aaa319)">
     <!-- 21 -->
     <g transform="translate(1023.597057 773.829084)scale(0.12 -0.12)">
      <use xlink:href="#DejaVuSans-50"/>
      <use x="63.623047" xlink:href="#DejaVuSans-49"/>
     </g>
    </g>
   </g>
   <g id="text_23">
    <g clip-path="url(#pea71aaa319)">
     <!-- 22 -->
     <g transform="translate(902.239946 713.150528)scale(0.12 -0.12)">
      <use xlink:href="#DejaVuSans-50"/>
      <use x="63.623047" xlink:href="#DejaVuSans-50"/>
     </g>
    </g>
   </g>
   <g id="text_24">
    <g clip-path="url(#pea71aaa319)">
     <!-- 23 -->
     <g transform="translate(1023.597057 713.150528)scale(0.12 -0.12)">
      <use xlink:href="#DejaVuSans-50"/>
      <use x="63.623047" xlink:href="#DejaVuSans-51"/>
     </g>
    </g>
   </g>
   <g id="text_25">
    <g clip-path="url(#pea71aaa319)">
     <!-- 24 -->
     <g transform="translate(780.882834 1259.257531)scale(0.12 -0.12)">
      <use xlink:href="#DejaVuSans-50"/>
      <use x="63.623047" xlink:href="#DejaVuSans-52"/>
     </g>
    </g>
   </g>
   <g id="text_26">
    <g clip-path="url(#pea71aaa319)">
     <!-- 25 -->
     <g transform="translate(780.882834 1137.900419)scale(0.12 -0.12)">
      <use xlink:href="#DejaVuSans-50"/>
      <use x="63.623047" xlink:href="#DejaVuSans-53"/>
     </g>
    </g>
   </g>
   <g id="text_27">
    <g clip-path="url(#pea71aaa319)">
     <!-- 26 -->
     <g transform="translate(780.882834 1016.543307)scale(0.12 -0.12)">
      <use xlink:href="#DejaVuSans-50"/>
      <use x="63.623047" xlink:href="#DejaVuSans-54"/>
     </g>
    </g>
   </g>
   <g id="text_28">
    <g clip-path="url(#pea71aaa319)">
     <!-- 27 -->
     <g transform="translate(780.882834 895.186196)scale(0.12 -0.12)">
      <use xlink:href="#DejaVuSans-50"/>
      <use x="63.623047" xlink:href="#DejaVuSans-55"/>
     </g>
    </g>
   </g>
   <g id="text_29">
    <g clip-path="url(#pea71aaa319)">
     <!-- 28 -->
     <g transform="translate(720.204278 1259.257531)scale(0.12 -0.12)">
      <use xlink:href="#DejaVuSans-50"/>
      <use x="63.623047" xlink:href="#DejaVuSans-56"/>
     </g>
    </g>
   </g>
   <g id="text_30">
    <g clip-path="url(#pea71aaa319)">
     <!-- 29 -->
     <g transform="translate(720.204278 1137.900419)scale(0.12 -0.12)">
      <use xlink:href="#DejaVuSans-50"/>
      <use x="63.623047" xlink:href="#DejaVuSans-57"/>
     </g>
    </g>
   </g>
   <g id="text_31">
    <g clip-path="url(#pea71aaa319)">
     <!-- 30 -->
     <g transform="translate(720.204278 1016.543307)scale(0.12 -0.12)">
      <use xlink:href="#DejaVuSans-51"/>
      <use x="63.623047" xlink:href="#DejaVuSans-48"/>
     </g>
    </g>
   </g>
   <g id="text_32">
    <g clip-path="url(#pea71aaa319)">
     <!-- 31 -->
     <g transform="translate(720.204278 895.186196)scale(0.12 -0.12)">
      <use xlink:href="#DejaVuSans-51"/>
      <use x="63.623047" xlink:href="#DejaVuSans-49"/>
     </g>
    </g>
   </g>
   <g id="text_33">
    <g clip-path="url(#pea71aaa319)">
     <!-- 32 -->
     <g transform="translate(598.847166 895.186196)scale(0.12 -0.12)">
      <use xlink:href="#DejaVuSans-51"/>
      <use x="63.623047" xlink:href="#DejaVuSans-50"/>
     </g>
    </g>
   </g>
   <g id="text_34">
    <g clip-path="url(#pea71aaa319)">
     <!-- 33 -->
     <g transform="translate(598.847166 1016.543307)scale(0.12 -0.12)">
      <use xlink:href="#DejaVuSans-51"/>
      <use x="63.623047" xlink:href="#DejaVuSans-51"/>
     </g>
    </g>
   </g>
   <g id="text_35">
    <g clip-path="url(#pea71aaa319)">
     <!-- 34 -->
     <g transform="translate(659.525722 895.186196)scale(0.12 -0.12)">
      <use xlink:href="#DejaVuSans-51"/>
      <use x="63.623047" xlink:href="#DejaVuSans-52"/>
     </g>
    </g>
   </g>
   <g id="text_36">
    <g clip-path="url(#pea71aaa319)">
     <!-- 35 -->
     <g transform="translate(659.525722 1016.543307)scale(0.12 -0.12)">
      <use xlink:href="#DejaVuSans-51"/>
      <use x="63.623047" xlink:href="#DejaVuSans-53"/>
     </g>
    </g>
   </g>
   <g id="text_37">
    <g clip-path="url(#pea71aaa319)">
     <!-- 36 -->
     <g transform="translate(598.847166 106.364969)scale(0.12 -0.12)">
      <use xlink:href="#DejaVuSans-51"/>
      <use x="63.623047" xlink:href="#DejaVuSans-54"/>
     </g>
    </g>
   </g>
   <g id="text_38">
    <g clip-path="url(#pea71aaa319)">
     <!-- 37 -->
     <g transform="translate(598.847166 227.722081)scale(0.12 -0.12)">
      <use xlink:href="#DejaVuSans-51"/>
      <use x="63.623047" xlink:href="#DejaVuSans-55"/>
     </g>
    </g>
   </g>
   <g id="text_39">
    <g clip-path="url(#pea71aaa319)">
     <!-- 38 -->
     <g transform="translate(598.847166 349.079193)scale(0.12 -0.12)">
      <use xlink:href="#DejaVuSans-51"/>
      <use x="63.623047" xlink:href="#DejaVuSans-56"/>
     </g>
    </g>
   </g>
   <g id="text_40">
    <g clip-path="url(#pea71aaa319)">
     <!-- 39 -->
     <g transform="translate(598.847166 470.436304)scale(0.12 -0.12)">
      <use xlink:href="#DejaVuSans-51"/>
      <use x="63.623047" xlink:href="#DejaVuSans-57"/>
     </g>
    </g>
   </g>
   <g id="text_41">
    <g clip-path="url(#pea71aaa319)">
     <!-- 40 -->
     <g transform="translate(659.525722 106.364969)scale(0.12 -0.12)">
      <use xlink:href="#DejaVuSans-52"/>
      <use x="63.623047" xlink:href="#DejaVuSans-48"/>
     </g>
    </g>
   </g>
   <g id="text_42">
    <g clip-path="url(#pea71aaa319)">
     <!-- 41 -->
     <g transform="translate(659.525722 227.722081)scale(0.12 -0.12)">
      <use xlink:href="#DejaVuSans-52"/>
      <use x="63.623047" xlink:href="#DejaVuSans-49"/>
     </g>
    </g>
   </g>
   <g id="text_43">
    <g clip-path="url(#pea71aaa319)">
     <!-- 42 -->
     <g transform="translate(659.525722 349.079193)scale(0.12 -0.12)">
      <use xlink:href="#DejaVuSans-52"/>
      <use x="63.623047" xlink:href="#DejaVuSans-50"/>
     </g>
    </g>
   </g>
   <g id="text_44">
    <g clip-path="url(#pea71aaa319)">
     <!-- 43 -->
     <g transform="translate(659.525722 470.436304)scale(0.12 -0.12)">
      <use xlink:href="#DejaVuSans-52"/>
      <use x="63.623047" xlink:href="#DejaVuSans-51"/>
     </g>
    </g>
   </g>
   <g id="text_45">
    <g clip-path="url(#pea71aaa319)">
     <!-- 44 -->
     <g transform="translate(780.882834 470.436304)scale(0.12 -0.12)">
      <use xlink:href="#DejaVuSans-52"/>
      <use x="63.623047" xlink:href="#DejaVuSans-52"/>
     </g>
    </g>
   </g>
   <g id="text_46">
    <g clip-path="url(#pea71aaa319)">
     <!-- 45 -->
     <g transform="translate(780.882834 349.079193)scale(0.12 -0.12)">
      <use xlink:href="#DejaVuSans-52"/>
      <use x="63.623047" xlink:href="#DejaVuSans-53"/>
     </g>
    </g>
   </g>
   <g id="text_47">
    <g clip-path="url(#pea71aaa319)">
     <!-- 46 -->
     <g transform="translate(720.204278 470.436304)scale(0.12 -0.12)">
      <use xlink:href="#DejaVuSans-52"/>
      <use x="63.623047" xlink:href="#DejaVuSans-54"/>
     </g>
    </g>
   </g>
   <g id="text_48">
    <g clip-path="url(#pea71aaa319)">
     <!-- 47 -->
     <g transform="translate(720.204278 349.079193)scale(0.12 -0.12)">
      <use xlink:href="#DejaVuSans-52"/>
      <use x="63.623047" xlink:href="#DejaVuSans-55"/>
     </g>
    </g>
   </g>
   <g id="text_49">
    <g clip-path="url(#pea71aaa319)">
     <!-- 48 -->
     <g transform="translate(586.711455 785.964795)scale(0.12 -0.12)">
      <use xlink:href="#DejaVuSans-52"/>
      <use x="63.623047" xlink:href="#DejaVuSans-56"/>
     </g>
    </g>
   </g>
   <g id="text_50">
    <g clip-path="url(#pea71aaa319)">
     <!-- 49 -->
     <g transform="translate(659.525722 773.829084)scale(0.12 -0.12)">
      <use xlink:href="#DejaVuSans-52"/>
      <use x="63.623047" xlink:href="#DejaVuSans-57"/>
     </g>
    </g>
   </g>
   <g id="text_51">
    <g clip-path="url(#pea71aaa319)">
     <!-- 50 -->
     <g transform="translate(720.204278 773.829084)scale(0.12 -0.12)">
      <use xlink:href="#DejaVuSans-53"/>
      <use x="63.623047" xlink:href="#DejaVuSans-48"/>
     </g>
    </g>
   </g>
   <g id="text_52">
    <g clip-path="url(#pea71aaa319)">
     <!-- 51 -->
     <g transform="translate(793.018545 785.964795)scale(0.12 -0.12)">
      <use xlink:href="#DejaVuSans-53"/>
      <use x="63.623047" xlink:href="#DejaVuSans-49"/>
     </g>
    </g>
   </g>
   <g id="text_53">
    <g clip-path="url(#pea71aaa319)">
     <!-- 52 -->
     <g transform="translate(598.847166 713.150528)scale(0.12 -0.12)">
      <use xlink:href="#DejaVuSans-53"/>
      <use x="63.623047" xlink:href="#DejaVuSans-50"/>
     </g>
    </g>
   </g>
   <g id="text_54">
    <g clip-path="url(#pea71aaa319)">
     <!-- 53 -->
     <g transform="translate(659.525722 713.150528)scale(0.12 -0.12)">
      <use xlink:href="#DejaVuSans-53"/>
      <use x="63.623047" xlink:href="#DejaVuSans-51"/>
     </g>
    </g>
   </g>
   <g id="text_55">
    <g clip-path="url(#pea71aaa319)">
     <!-- 54 -->
     <g transform="translate(720.204278 713.150528)scale(0.12 -0.12)">
      <use xlink:href="#DejaVuSans-53"/>
      <use x="63.623047" xlink:href="#DejaVuSans-52"/>
     </g>
    </g>
   </g>
   <g id="text_56">
    <g clip-path="url(#pea71aaa319)">
     <!-- 55 -->
     <g transform="translate(780.882834 713.150528)scale(0.12 -0.12)">
      <use xlink:href="#DejaVuSans-53"/>
      <use x="63.623047" xlink:href="#DejaVuSans-53"/>
     </g>
    </g>
   </g>
   <g id="text_57">
    <g clip-path="url(#pea71aaa319)">
     <!-- 56 -->
     <g transform="translate(598.847166 652.471972)scale(0.12 -0.12)">
      <use xlink:href="#DejaVuSans-53"/>
      <use x="63.623047" xlink:href="#DejaVuSans-54"/>
     </g>
    </g>
   </g>
   <g id="text_58">
    <g clip-path="url(#pea71aaa319)">
     <!-- 57 -->
     <g transform="translate(659.525722 652.471972)scale(0.12 -0.12)">
      <use xlink:href="#DejaVuSans-53"/>
      <use x="63.623047" xlink:href="#DejaVuSans-55"/>
     </g>
    </g>
   </g>
   <g id="text_59">
    <g clip-path="url(#pea71aaa319)">
     <!-- 58 -->
     <g transform="translate(720.204278 652.471972)scale(0.12 -0.12)">
      <use xlink:href="#DejaVuSans-53"/>
      <use x="63.623047" xlink:href="#DejaVuSans-56"/>
     </g>
    </g>
   </g>
   <g id="text_60">
    <g clip-path="url(#pea71aaa319)">
     <!-- 59 -->
     <g transform="translate(780.882834 652.471972)scale(0.12 -0.12)">
      <use xlink:href="#DejaVuSans-53"/>
      <use x="63.623047" xlink:href="#DejaVuSans-57"/>
     </g>
    </g>
   </g>
   <g id="text_61">
    <g clip-path="url(#pea71aaa319)">
     <!-- 60 -->
     <g transform="translate(586.711455 579.657705)scale(0.12 -0.12)">
      <use xlink:href="#DejaVuSans-54"/>
      <use x="63.623047" xlink:href="#DejaVuSans-48"/>
     </g>
    </g>
   </g>
   <g id="text_62">
    <g clip-path="url(#pea71aaa319)">
     <!-- 61 -->
     <g transform="translate(659.525722 591.793416)scale(0.12 -0.12)">
      <use xlink:href="#DejaVuSans-54"/>
      <use x="63.623047" xlink:href="#DejaVuSans-49"/>
     </g>
    </g>
   </g>
   <g id="text_63">
    <g clip-path="url(#pea71aaa319)">
     <!-- 62 -->
     <g transform="translate(720.204278 591.793416)scale(0.12 -0.12)">
      <use xlink:href="#DejaVuSans-54"/>
      <use x="63.623047" xlink:href="#DejaVuSans-50"/>
     </g>
    </g>
   </g>
   <g id="text_64">
    <g clip-path="url(#pea71aaa319)">
     <!-- 63 -->
     <g transform="translate(793.018545 579.657705)scale(0.12 -0.12)">
      <use xlink:href="#DejaVuSans-54"/>
      <use x="63.623047" xlink:href="#DejaVuSans-51"/>
     </g>
    </g>
   </g>
   <g id="text_65">
    <g clip-path="url(#pea71aaa319)">
     <!-- 64 -->
     <g transform="translate(671.661433 682.81125)scale(0.12 -0.12)">
      <use xlink:href="#DejaVuSans-54"/>
      <use x="63.623047" xlink:href="#DejaVuSans-52"/>
     </g>
    </g>
   </g>
   <g id="text_66">
    <g clip-path="url(#pea71aaa319)">
     <!-- 65 -->
     <g transform="translate(689.865 701.014817)scale(0.12 -0.12)">
      <use xlink:href="#DejaVuSans-54"/>
      <use x="63.623047" xlink:href="#DejaVuSans-53"/>
     </g>
    </g>
   </g>
   <g id="text_67">
    <g clip-path="url(#pea71aaa319)">
     <!-- 66 -->
     <g transform="translate(708.068567 682.81125)scale(0.12 -0.12)">
      <use xlink:href="#DejaVuSans-54"/>
      <use x="63.623047" xlink:href="#DejaVuSans-54"/>
     </g>
    </g>
   </g>
   <g id="text_68">
    <g clip-path="url(#pea71aaa319)">
     <!-- 67 -->
     <g transform="translate(689.865 664.607683)scale(0.12 -0.12)">
      <use xlink:href="#DejaVuSans-54"/>
      <use x="63.623047" xlink:href="#DejaVuSans-55"/>
     </g>
    </g>
   </g>
  </g>
 </g>
 <defs>
  <clipPath id="pea71aaa319">
   <rect height="1359" width="1395" x="0" y="0"/>
  </clipPath>
 </defs>
</svg>
