<?xml version="1.0" encoding="utf-8" standalone="no"?>
<!DOCTYPE svg PUBLIC "-//W3C//DTD SVG 1.1//EN"
  "http://www.w3.org/Graphics/SVG/1.1/DTD/svg11.dtd">
<!-- Created with matplotlib (https://matplotlib.org/) -->
<svg height="1359pt" version="1.1" viewBox="0 0 1395 1359" width="1395pt" xmlns="http://www.w3.org/2000/svg" xmlns:xlink="http://www.w3.org/1999/xlink">
 <defs>
  <style type="text/css">
*{stroke-linecap:butt;stroke-linejoin:round;}
  </style>
 </defs>
 <g id="figure_1">
  <g id="patch_1">
   <path d="M 0 1359 
L 1395 1359 
L 1395 0 
L 0 0 
z
" style="fill:#ffffff;"/>
  </g>
  <g id="axes_1">
   <g id="patch_2">
    <path clip-path="url(#pa7baf5eec8)" d="M 121.053719 700.849862 
Q 159.423268 700.849862 196.674783 700.849862 
" style="fill:none;stroke:#000000;stroke-linecap:round;"/>
    <path clip-path="url(#pa7baf5eec8)" d="M 192.674783 698.849862 
L 196.674783 700.849862 
L 192.674783 702.849862 
L 192.674783 698.849862 
z
" style="stroke:#000000;stroke-linecap:round;"/>
   </g>
   <g id="patch_3">
    <path clip-path="url(#pa7baf5eec8)" d="M 206.453168 700.849862 
Q 244.822717 700.849862 282.074232 700.849862 
" style="fill:none;stroke:#000000;stroke-linecap:round;"/>
    <path clip-path="url(#pa7baf5eec8)" d="M 278.074232 698.849862 
L 282.074232 700.849862 
L 278.074232 702.849862 
L 278.074232 698.849862 
z
" style="stroke:#000000;stroke-linecap:round;"/>
   </g>
   <g id="patch_4">
    <path clip-path="url(#pa7baf5eec8)" d="M 291.852617 700.849862 
Q 330.222166 700.849862 367.473682 700.849862 
" style="fill:none;stroke:#000000;stroke-linecap:round;"/>
    <path clip-path="url(#pa7baf5eec8)" d="M 363.473682 698.849862 
L 367.473682 700.849862 
L 363.473682 702.849862 
L 363.473682 698.849862 
z
" style="stroke:#000000;stroke-linecap:round;"/>
   </g>
   <g id="patch_5">
    <path clip-path="url(#pa7baf5eec8)" d="M 377.252066 700.849862 
Q 415.621615 700.849862 452.873131 700.849862 
" style="fill:none;stroke:#000000;stroke-linecap:round;"/>
    <path clip-path="url(#pa7baf5eec8)" d="M 448.873131 698.849862 
L 452.873131 700.849862 
L 448.873131 702.849862 
L 448.873131 698.849862 
z
" style="stroke:#000000;stroke-linecap:round;"/>
   </g>
   <g id="patch_6">
    <path clip-path="url(#pa7baf5eec8)" d="M 462.651515 700.849862 
Q 501.021064 700.849862 538.27258 700.849862 
" style="fill:none;stroke:#000000;stroke-linecap:round;"/>
    <path clip-path="url(#pa7baf5eec8)" d="M 534.27258 698.849862 
L 538.27258 700.849862 
L 534.27258 702.849862 
L 534.27258 698.849862 
z
" style="stroke:#000000;stroke-linecap:round;"/>
   </g>
   <g id="patch_7">
    <path clip-path="url(#pa7baf5eec8)" d="M 548.050964 700.849862 
Q 567.46378 739.675494 586.376596 777.501125 
" style="fill:none;stroke:#000000;stroke-linecap:round;"/>
    <path clip-path="url(#pa7baf5eec8)" d="M 586.376596 773.028989 
L 586.376596 777.501125 
L 582.798887 774.817844 
L 586.376596 773.028989 
z
" style="stroke:#000000;stroke-linecap:round;"/>
   </g>
   <g id="patch_8">
    <path clip-path="url(#pa7baf5eec8)" d="M 548.050964 658.150138 
Q 509.681415 658.150138 472.4299 658.150138 
" style="fill:none;stroke:#000000;stroke-linecap:round;"/>
    <path clip-path="url(#pa7baf5eec8)" d="M 476.4299 660.150138 
L 472.4299 658.150138 
L 476.4299 656.150138 
L 476.4299 660.150138 
z
" style="stroke:#000000;stroke-linecap:round;"/>
   </g>
   <g id="patch_9">
    <path clip-path="url(#pa7baf5eec8)" d="M 548.050964 658.150138 
Q 548.050964 675.169825 548.050964 691.071478 
" style="fill:none;stroke:#000000;stroke-linecap:round;"/>
    <path clip-path="url(#pa7baf5eec8)" d="M 550.050964 687.071478 
L 548.050964 691.071478 
L 546.050964 687.071478 
L 550.050964 687.071478 
z
" style="stroke:#000000;stroke-linecap:round;"/>
   </g>
   <g id="patch_10">
    <path clip-path="url(#pa7baf5eec8)" d="M 1273.946281 658.150138 
Q 1235.576732 658.150138 1198.325217 658.150138 
" style="fill:none;stroke:#000000;stroke-linecap:round;"/>
    <path clip-path="url(#pa7baf5eec8)" d="M 1202.325217 660.150138 
L 1198.325217 658.150138 
L 1202.325217 656.150138 
L 1202.325217 660.150138 
z
" style="stroke:#000000;stroke-linecap:round;"/>
   </g>
   <g id="patch_11">
    <path clip-path="url(#pa7baf5eec8)" d="M 1188.546832 658.150138 
Q 1150.177283 658.150138 1112.925768 658.150138 
" style="fill:none;stroke:#000000;stroke-linecap:round;"/>
    <path clip-path="url(#pa7baf5eec8)" d="M 1116.925768 660.150138 
L 1112.925768 658.150138 
L 1116.925768 656.150138 
L 1116.925768 660.150138 
z
" style="stroke:#000000;stroke-linecap:round;"/>
   </g>
   <g id="patch_12">
    <path clip-path="url(#pa7baf5eec8)" d="M 1103.147383 658.150138 
Q 1064.777834 658.150138 1027.526318 658.150138 
" style="fill:none;stroke:#000000;stroke-linecap:round;"/>
    <path clip-path="url(#pa7baf5eec8)" d="M 1031.526318 660.150138 
L 1027.526318 658.150138 
L 1031.526318 656.150138 
L 1031.526318 660.150138 
z
" style="stroke:#000000;stroke-linecap:round;"/>
   </g>
   <g id="patch_13">
    <path clip-path="url(#pa7baf5eec8)" d="M 1017.747934 658.150138 
Q 979.378385 658.150138 942.126869 658.150138 
" style="fill:none;stroke:#000000;stroke-linecap:round;"/>
    <path clip-path="url(#pa7baf5eec8)" d="M 946.126869 660.150138 
L 942.126869 658.150138 
L 946.126869 656.150138 
L 946.126869 660.150138 
z
" style="stroke:#000000;stroke-linecap:round;"/>
   </g>
   <g id="patch_14">
    <path clip-path="url(#pa7baf5eec8)" d="M 932.348485 658.150138 
Q 893.978936 658.150138 856.72742 658.150138 
" style="fill:none;stroke:#000000;stroke-linecap:round;"/>
    <path clip-path="url(#pa7baf5eec8)" d="M 860.72742 660.150138 
L 856.72742 658.150138 
L 860.72742 656.150138 
L 860.72742 660.150138 
z
" style="stroke:#000000;stroke-linecap:round;"/>
   </g>
   <g id="patch_15">
    <path clip-path="url(#pa7baf5eec8)" d="M 846.949036 658.150138 
Q 827.53622 619.324506 808.623404 581.498875 
" style="fill:none;stroke:#000000;stroke-linecap:round;"/>
    <path clip-path="url(#pa7baf5eec8)" d="M 808.623404 585.971011 
L 808.623404 581.498875 
L 812.201113 584.182156 
L 808.623404 585.971011 
z
" style="stroke:#000000;stroke-linecap:round;"/>
   </g>
   <g id="patch_16">
    <path clip-path="url(#pa7baf5eec8)" d="M 846.949036 700.849862 
Q 885.318585 700.849862 922.5701 700.849862 
" style="fill:none;stroke:#000000;stroke-linecap:round;"/>
    <path clip-path="url(#pa7baf5eec8)" d="M 918.5701 698.849862 
L 922.5701 700.849862 
L 918.5701 702.849862 
L 918.5701 698.849862 
z
" style="stroke:#000000;stroke-linecap:round;"/>
   </g>
   <g id="patch_17">
    <path clip-path="url(#pa7baf5eec8)" d="M 846.949036 700.849862 
Q 846.949036 683.830175 846.949036 667.928522 
" style="fill:none;stroke:#000000;stroke-linecap:round;"/>
    <path clip-path="url(#pa7baf5eec8)" d="M 844.949036 671.928522 
L 846.949036 667.928522 
L 848.949036 671.928522 
L 844.949036 671.928522 
z
" style="stroke:#000000;stroke-linecap:round;"/>
   </g>
   <g id="patch_18">
    <path clip-path="url(#pa7baf5eec8)" d="M 718.849862 1255.946281 
Q 718.849862 1217.576732 718.849862 1180.325217 
" style="fill:none;stroke:#000000;stroke-linecap:round;"/>
    <path clip-path="url(#pa7baf5eec8)" d="M 716.849862 1184.325217 
L 718.849862 1180.325217 
L 720.849862 1184.325217 
L 716.849862 1184.325217 
z
" style="stroke:#000000;stroke-linecap:round;"/>
   </g>
   <g id="patch_19">
    <path clip-path="url(#pa7baf5eec8)" d="M 718.849862 1170.546832 
Q 718.849862 1132.177283 718.849862 1094.925768 
" style="fill:none;stroke:#000000;stroke-linecap:round;"/>
    <path clip-path="url(#pa7baf5eec8)" d="M 716.849862 1098.925768 
L 718.849862 1094.925768 
L 720.849862 1098.925768 
L 716.849862 1098.925768 
z
" style="stroke:#000000;stroke-linecap:round;"/>
   </g>
   <g id="patch_20">
    <path clip-path="url(#pa7baf5eec8)" d="M 718.849862 1085.147383 
Q 718.849862 1046.777834 718.849862 1009.526318 
" style="fill:none;stroke:#000000;stroke-linecap:round;"/>
    <path clip-path="url(#pa7baf5eec8)" d="M 716.849862 1013.526318 
L 718.849862 1009.526318 
L 720.849862 1013.526318 
L 716.849862 1013.526318 
z
" style="stroke:#000000;stroke-linecap:round;"/>
   </g>
   <g id="patch_21">
    <path clip-path="url(#pa7baf5eec8)" d="M 718.849862 999.747934 
Q 718.849862 961.378385 718.849862 924.126869 
" style="fill:none;stroke:#000000;stroke-linecap:round;"/>
    <path clip-path="url(#pa7baf5eec8)" d="M 716.849862 928.126869 
L 718.849862 924.126869 
L 720.849862 928.126869 
L 716.849862 928.126869 
z
" style="stroke:#000000;stroke-linecap:round;"/>
   </g>
   <g id="patch_22">
    <path clip-path="url(#pa7baf5eec8)" d="M 718.849862 914.348485 
Q 718.849862 875.978936 718.849862 838.72742 
" style="fill:none;stroke:#000000;stroke-linecap:round;"/>
    <path clip-path="url(#pa7baf5eec8)" d="M 716.849862 842.72742 
L 718.849862 838.72742 
L 720.849862 842.72742 
L 716.849862 842.72742 
z
" style="stroke:#000000;stroke-linecap:round;"/>
   </g>
   <g id="patch_23">
    <path clip-path="url(#pa7baf5eec8)" d="M 718.849862 828.949036 
Q 757.675494 809.53622 795.501125 790.623404 
" style="fill:none;stroke:#000000;stroke-linecap:round;"/>
    <path clip-path="url(#pa7baf5eec8)" d="M 791.028989 790.623404 
L 795.501125 790.623404 
L 792.817844 794.201113 
L 791.028989 790.623404 
z
" style="stroke:#000000;stroke-linecap:round;"/>
   </g>
   <g id="patch_24">
    <path clip-path="url(#pa7baf5eec8)" d="M 676.150138 828.949036 
Q 676.150138 867.318585 676.150138 904.5701 
" style="fill:none;stroke:#000000;stroke-linecap:round;"/>
    <path clip-path="url(#pa7baf5eec8)" d="M 678.150138 900.5701 
L 676.150138 904.5701 
L 674.150138 900.5701 
L 678.150138 900.5701 
z
" style="stroke:#000000;stroke-linecap:round;"/>
   </g>
   <g id="patch_25">
    <path clip-path="url(#pa7baf5eec8)" d="M 676.150138 828.949036 
Q 693.169825 828.949036 709.071478 828.949036 
" style="fill:none;stroke:#000000;stroke-linecap:round;"/>
    <path clip-path="url(#pa7baf5eec8)" d="M 705.071478 826.949036 
L 709.071478 828.949036 
L 705.071478 830.949036 
L 705.071478 826.949036 
z
" style="stroke:#000000;stroke-linecap:round;"/>
   </g>
   <g id="patch_26">
    <path clip-path="url(#pa7baf5eec8)" d="M 676.150138 103.053719 
Q 676.150138 141.423268 676.150138 178.674783 
" style="fill:none;stroke:#000000;stroke-linecap:round;"/>
    <path clip-path="url(#pa7baf5eec8)" d="M 678.150138 174.674783 
L 676.150138 178.674783 
L 674.150138 174.674783 
L 678.150138 174.674783 
z
" style="stroke:#000000;stroke-linecap:round;"/>
   </g>
   <g id="patch_27">
    <path clip-path="url(#pa7baf5eec8)" d="M 676.150138 188.453168 
Q 676.150138 226.822717 676.150138 264.074232 
" style="fill:none;stroke:#000000;stroke-linecap:round;"/>
    <path clip-path="url(#pa7baf5eec8)" d="M 678.150138 260.074232 
L 676.150138 264.074232 
L 674.150138 260.074232 
L 678.150138 260.074232 
z
" style="stroke:#000000;stroke-linecap:round;"/>
   </g>
   <g id="patch_28">
    <path clip-path="url(#pa7baf5eec8)" d="M 676.150138 273.852617 
Q 676.150138 312.222166 676.150138 349.473682 
" style="fill:none;stroke:#000000;stroke-linecap:round;"/>
    <path clip-path="url(#pa7baf5eec8)" d="M 678.150138 345.473682 
L 676.150138 349.473682 
L 674.150138 345.473682 
L 678.150138 345.473682 
z
" style="stroke:#000000;stroke-linecap:round;"/>
   </g>
   <g id="patch_29">
    <path clip-path="url(#pa7baf5eec8)" d="M 676.150138 359.252066 
Q 676.150138 397.621615 676.150138 434.873131 
" style="fill:none;stroke:#000000;stroke-linecap:round;"/>
    <path clip-path="url(#pa7baf5eec8)" d="M 678.150138 430.873131 
L 676.150138 434.873131 
L 674.150138 430.873131 
L 678.150138 430.873131 
z
" style="stroke:#000000;stroke-linecap:round;"/>
   </g>
   <g id="patch_30">
    <path clip-path="url(#pa7baf5eec8)" d="M 676.150138 444.651515 
Q 676.150138 483.021064 676.150138 520.27258 
" style="fill:none;stroke:#000000;stroke-linecap:round;"/>
    <path clip-path="url(#pa7baf5eec8)" d="M 678.150138 516.27258 
L 676.150138 520.27258 
L 674.150138 516.27258 
L 678.150138 516.27258 
z
" style="stroke:#000000;stroke-linecap:round;"/>
   </g>
   <g id="patch_31">
    <path clip-path="url(#pa7baf5eec8)" d="M 676.150138 530.050964 
Q 637.324506 549.46378 599.498875 568.376596 
" style="fill:none;stroke:#000000;stroke-linecap:round;"/>
    <path clip-path="url(#pa7baf5eec8)" d="M 603.971011 568.376596 
L 599.498875 568.376596 
L 602.182156 564.798887 
L 603.971011 568.376596 
z
" style="stroke:#000000;stroke-linecap:round;"/>
   </g>
   <g id="patch_32">
    <path clip-path="url(#pa7baf5eec8)" d="M 718.849862 530.050964 
Q 718.849862 491.681415 718.849862 454.4299 
" style="fill:none;stroke:#000000;stroke-linecap:round;"/>
    <path clip-path="url(#pa7baf5eec8)" d="M 716.849862 458.4299 
L 718.849862 454.4299 
L 720.849862 458.4299 
L 716.849862 458.4299 
z
" style="stroke:#000000;stroke-linecap:round;"/>
   </g>
   <g id="patch_33">
    <path clip-path="url(#pa7baf5eec8)" d="M 718.849862 530.050964 
Q 701.830175 530.050964 685.928522 530.050964 
" style="fill:none;stroke:#000000;stroke-linecap:round;"/>
    <path clip-path="url(#pa7baf5eec8)" d="M 689.928522 532.050964 
L 685.928522 530.050964 
L 689.928522 528.050964 
L 689.928522 532.050964 
z
" style="stroke:#000000;stroke-linecap:round;"/>
   </g>
   <g id="patch_34">
    <path clip-path="url(#pa7baf5eec8)" d="M 590.750689 786.249311 
Q 629.57632 805.662127 667.401952 824.574943 
" style="fill:none;stroke:#000000;stroke-linecap:round;"/>
    <path clip-path="url(#pa7baf5eec8)" d="M 664.71867 820.997234 
L 667.401952 824.574943 
L 662.929816 824.574943 
L 664.71867 820.997234 
z
" style="stroke:#000000;stroke-linecap:round;"/>
   </g>
   <g id="patch_35">
    <path clip-path="url(#pa7baf5eec8)" d="M 804.249311 786.249311 
Q 823.662127 747.42368 842.574943 709.598048 
" style="fill:none;stroke:#000000;stroke-linecap:round;"/>
    <path clip-path="url(#pa7baf5eec8)" d="M 838.997234 712.28133 
L 842.574943 709.598048 
L 842.574943 714.070184 
L 838.997234 712.28133 
z
" style="stroke:#000000;stroke-linecap:round;"/>
   </g>
   <g id="patch_36">
    <path clip-path="url(#pa7baf5eec8)" d="M 804.249311 572.750689 
Q 765.42368 553.337873 727.598048 534.425057 
" style="fill:none;stroke:#000000;stroke-linecap:round;"/>
    <path clip-path="url(#pa7baf5eec8)" d="M 730.28133 538.002766 
L 727.598048 534.425057 
L 732.070184 534.425057 
L 730.28133 538.002766 
z
" style="stroke:#000000;stroke-linecap:round;"/>
   </g>
   <g id="patch_37">
    <path clip-path="url(#pa7baf5eec8)" d="M 590.750689 572.750689 
Q 571.337873 611.57632 552.425057 649.401952 
" style="fill:none;stroke:#000000;stroke-linecap:round;"/>
    <path clip-path="url(#pa7baf5eec8)" d="M 556.002766 646.71867 
L 552.425057 649.401952 
L 552.425057 644.929816 
L 556.002766 646.71867 
z
" style="stroke:#000000;stroke-linecap:round;"/>
   </g>
   <g id="PathCollection_1">
    <defs>
     <path d="M 0 8.660254 
C 2.296726 8.660254 4.499694 7.747755 6.123724 6.123724 
C 7.747755 4.499694 8.660254 2.296726 8.660254 0 
C 8.660254 -2.296726 7.747755 -4.499694 6.123724 -6.123724 
C 4.499694 -7.747755 2.296726 -8.660254 0 -8.660254 
C -2.296726 -8.660254 -4.499694 -7.747755 -6.123724 -6.123724 
C -7.747755 -4.499694 -8.660254 -2.296726 -8.660254 0 
C -8.660254 2.296726 -7.747755 4.499694 -6.123724 6.123724 
C -4.499694 7.747755 -2.296726 8.660254 0 8.660254 
z
" id="C0_0_acfc53d212"/>
    </defs>
    <g clip-path="url(#pa7baf5eec8)">
     <use style="fill:#66b3ff;stroke:#000000;" x="121.053719" xlink:href="#C0_0_acfc53d212" y="700.849862"/>
    </g>
    <g clip-path="url(#pa7baf5eec8)">
     <use style="fill:#66b3ff;stroke:#000000;" x="206.453168" xlink:href="#C0_0_acfc53d212" y="700.849862"/>
    </g>
    <g clip-path="url(#pa7baf5eec8)">
     <use style="fill:#66b3ff;stroke:#000000;" x="291.852617" xlink:href="#C0_0_acfc53d212" y="700.849862"/>
    </g>
    <g clip-path="url(#pa7baf5eec8)">
     <use style="fill:#66b3ff;stroke:#000000;" x="377.252066" xlink:href="#C0_0_acfc53d212" y="700.849862"/>
    </g>
    <g clip-path="url(#pa7baf5eec8)">
     <use style="fill:#808080;stroke:#000000;" x="462.651515" xlink:href="#C0_0_acfc53d212" y="700.849862"/>
    </g>
    <g clip-path="url(#pa7baf5eec8)">
     <use style="fill:#808080;stroke:#000000;" x="548.050964" xlink:href="#C0_0_acfc53d212" y="700.849862"/>
    </g>
    <g clip-path="url(#pa7baf5eec8)">
     <use style="fill:#808080;stroke:#000000;" x="548.050964" xlink:href="#C0_0_acfc53d212" y="658.150138"/>
    </g>
    <g clip-path="url(#pa7baf5eec8)">
     <use style="fill:#ff4d4d;stroke:#000000;" x="462.651515" xlink:href="#C0_0_acfc53d212" y="658.150138"/>
    </g>
    <g clip-path="url(#pa7baf5eec8)">
     <use style="fill:#66b3ff;stroke:#000000;" x="1273.946281" xlink:href="#C0_0_acfc53d212" y="658.150138"/>
    </g>
    <g clip-path="url(#pa7baf5eec8)">
     <use style="fill:#66b3ff;stroke:#000000;" x="1188.546832" xlink:href="#C0_0_acfc53d212" y="658.150138"/>
    </g>
    <g clip-path="url(#pa7baf5eec8)">
     <use style="fill:#66b3ff;stroke:#000000;" x="1103.147383" xlink:href="#C0_0_acfc53d212" y="658.150138"/>
    </g>
    <g clip-path="url(#pa7baf5eec8)">
     <use style="fill:#66b3ff;stroke:#000000;" x="1017.747934" xlink:href="#C0_0_acfc53d212" y="658.150138"/>
    </g>
    <g clip-path="url(#pa7baf5eec8)">
     <use style="fill:#808080;stroke:#000000;" x="932.348485" xlink:href="#C0_0_acfc53d212" y="658.150138"/>
    </g>
    <g clip-path="url(#pa7baf5eec8)">
     <use style="fill:#808080;stroke:#000000;" x="846.949036" xlink:href="#C0_0_acfc53d212" y="658.150138"/>
    </g>
    <g clip-path="url(#pa7baf5eec8)">
     <use style="fill:#808080;stroke:#000000;" x="846.949036" xlink:href="#C0_0_acfc53d212" y="700.849862"/>
    </g>
    <g clip-path="url(#pa7baf5eec8)">
     <use style="fill:#ff4d4d;stroke:#000000;" x="932.348485" xlink:href="#C0_0_acfc53d212" y="700.849862"/>
    </g>
    <g clip-path="url(#pa7baf5eec8)">
     <use style="fill:#66b3ff;stroke:#000000;" x="718.849862" xlink:href="#C0_0_acfc53d212" y="1255.946281"/>
    </g>
    <g clip-path="url(#pa7baf5eec8)">
     <use style="fill:#66b3ff;stroke:#000000;" x="718.849862" xlink:href="#C0_0_acfc53d212" y="1170.546832"/>
    </g>
    <g clip-path="url(#pa7baf5eec8)">
     <use style="fill:#66b3ff;stroke:#000000;" x="718.849862" xlink:href="#C0_0_acfc53d212" y="1085.147383"/>
    </g>
    <g clip-path="url(#pa7baf5eec8)">
     <use style="fill:#66b3ff;stroke:#000000;" x="718.849862" xlink:href="#C0_0_acfc53d212" y="999.747934"/>
    </g>
    <g clip-path="url(#pa7baf5eec8)">
     <use style="fill:#808080;stroke:#000000;" x="718.849862" xlink:href="#C0_0_acfc53d212" y="914.348485"/>
    </g>
    <g clip-path="url(#pa7baf5eec8)">
     <use style="fill:#808080;stroke:#000000;" x="718.849862" xlink:href="#C0_0_acfc53d212" y="828.949036"/>
    </g>
    <g clip-path="url(#pa7baf5eec8)">
     <use style="fill:#808080;stroke:#000000;" x="676.150138" xlink:href="#C0_0_acfc53d212" y="828.949036"/>
    </g>
    <g clip-path="url(#pa7baf5eec8)">
     <use style="fill:#ff4d4d;stroke:#000000;" x="676.150138" xlink:href="#C0_0_acfc53d212" y="914.348485"/>
    </g>
    <g clip-path="url(#pa7baf5eec8)">
     <use style="fill:#66b3ff;stroke:#000000;" x="676.150138" xlink:href="#C0_0_acfc53d212" y="103.053719"/>
    </g>
    <g clip-path="url(#pa7baf5eec8)">
     <use style="fill:#66b3ff;stroke:#000000;" x="676.150138" xlink:href="#C0_0_acfc53d212" y="188.453168"/>
    </g>
    <g clip-path="url(#pa7baf5eec8)">
     <use style="fill:#66b3ff;stroke:#000000;" x="676.150138" xlink:href="#C0_0_acfc53d212" y="273.852617"/>
    </g>
    <g clip-path="url(#pa7baf5eec8)">
     <use style="fill:#66b3ff;stroke:#000000;" x="676.150138" xlink:href="#C0_0_acfc53d212" y="359.252066"/>
    </g>
    <g clip-path="url(#pa7baf5eec8)">
     <use style="fill:#808080;stroke:#000000;" x="676.150138" xlink:href="#C0_0_acfc53d212" y="444.651515"/>
    </g>
    <g clip-path="url(#pa7baf5eec8)">
     <use style="fill:#808080;stroke:#000000;" x="676.150138" xlink:href="#C0_0_acfc53d212" y="530.050964"/>
    </g>
    <g clip-path="url(#pa7baf5eec8)">
     <use style="fill:#808080;stroke:#000000;" x="718.849862" xlink:href="#C0_0_acfc53d212" y="530.050964"/>
    </g>
    <g clip-path="url(#pa7baf5eec8)">
     <use style="fill:#ff4d4d;stroke:#000000;" x="718.849862" xlink:href="#C0_0_acfc53d212" y="444.651515"/>
    </g>
    <g clip-path="url(#pa7baf5eec8)">
     <use style="fill:#808080;stroke:#000000;" x="590.750689" xlink:href="#C0_0_acfc53d212" y="786.249311"/>
    </g>
    <g clip-path="url(#pa7baf5eec8)">
     <use style="fill:#808080;stroke:#000000;" x="804.249311" xlink:href="#C0_0_acfc53d212" y="786.249311"/>
    </g>
    <g clip-path="url(#pa7baf5eec8)">
     <use style="fill:#808080;stroke:#000000;" x="804.249311" xlink:href="#C0_0_acfc53d212" y="572.750689"/>
    </g>
    <g clip-path="url(#pa7baf5eec8)">
     <use style="fill:#808080;stroke:#000000;" x="590.750689" xlink:href="#C0_0_acfc53d212" y="572.750689"/>
    </g>
   </g>
   <g id="text_1">
    <g clip-path="url(#pa7baf5eec8)">
     <!-- 0 -->
     <defs>
      <path d="M 31.78125 66.40625 
Q 24.171875 66.40625 20.328125 58.90625 
Q 16.5 51.421875 16.5 36.375 
Q 16.5 21.390625 20.328125 13.890625 
Q 24.171875 6.390625 31.78125 6.390625 
Q 39.453125 6.390625 43.28125 13.890625 
Q 47.125 21.390625 47.125 36.375 
Q 47.125 51.421875 43.28125 58.90625 
Q 39.453125 66.40625 31.78125 66.40625 
z
M 31.78125 74.21875 
Q 44.046875 74.21875 50.515625 64.515625 
Q 56.984375 54.828125 56.984375 36.375 
Q 56.984375 17.96875 50.515625 8.265625 
Q 44.046875 -1.421875 31.78125 -1.421875 
Q 19.53125 -1.421875 13.0625 8.265625 
Q 6.59375 17.96875 6.59375 36.375 
Q 6.59375 54.828125 13.0625 64.515625 
Q 19.53125 74.21875 31.78125 74.21875 
z
" id="DejaVuSans-48"/>
     </defs>
     <g transform="translate(117.236219 704.161112)scale(0.12 -0.12)">
      <use xlink:href="#DejaVuSans-48"/>
     </g>
    </g>
   </g>
   <g id="text_2">
    <g clip-path="url(#pa7baf5eec8)">
     <!-- 1 -->
     <defs>
      <path d="M 12.40625 8.296875 
L 28.515625 8.296875 
L 28.515625 63.921875 
L 10.984375 60.40625 
L 10.984375 69.390625 
L 28.421875 72.90625 
L 38.28125 72.90625 
L 38.28125 8.296875 
L 54.390625 8.296875 
L 54.390625 0 
L 12.40625 0 
z
" id="DejaVuSans-49"/>
     </defs>
     <g transform="translate(202.635668 704.161112)scale(0.12 -0.12)">
      <use xlink:href="#DejaVuSans-49"/>
     </g>
    </g>
   </g>
   <g id="text_3">
    <g clip-path="url(#pa7baf5eec8)">
     <!-- 2 -->
     <defs>
      <path d="M 19.1875 8.296875 
L 53.609375 8.296875 
L 53.609375 0 
L 7.328125 0 
L 7.328125 8.296875 
Q 12.9375 14.109375 22.625 23.890625 
Q 32.328125 33.6875 34.8125 36.53125 
Q 39.546875 41.84375 41.421875 45.53125 
Q 43.3125 49.21875 43.3125 52.78125 
Q 43.3125 58.59375 39.234375 62.25 
Q 35.15625 65.921875 28.609375 65.921875 
Q 23.96875 65.921875 18.8125 64.3125 
Q 13.671875 62.703125 7.8125 59.421875 
L 7.8125 69.390625 
Q 13.765625 71.78125 18.9375 73 
Q 24.125 74.21875 28.421875 74.21875 
Q 39.75 74.21875 46.484375 68.546875 
Q 53.21875 62.890625 53.21875 53.421875 
Q 53.21875 48.921875 51.53125 44.890625 
Q 49.859375 40.875 45.40625 35.40625 
Q 44.1875 33.984375 37.640625 27.21875 
Q 31.109375 20.453125 19.1875 8.296875 
z
" id="DejaVuSans-50"/>
     </defs>
     <g transform="translate(288.035117 704.161112)scale(0.12 -0.12)">
      <use xlink:href="#DejaVuSans-50"/>
     </g>
    </g>
   </g>
   <g id="text_4">
    <g clip-path="url(#pa7baf5eec8)">
     <!-- 3 -->
     <defs>
      <path d="M 40.578125 39.3125 
Q 47.65625 37.796875 51.625 33 
Q 55.609375 28.21875 55.609375 21.1875 
Q 55.609375 10.40625 48.1875 4.484375 
Q 40.765625 -1.421875 27.09375 -1.421875 
Q 22.515625 -1.421875 17.65625 -0.515625 
Q 12.796875 0.390625 7.625 2.203125 
L 7.625 11.71875 
Q 11.71875 9.328125 16.59375 8.109375 
Q 21.484375 6.890625 26.8125 6.890625 
Q 36.078125 6.890625 40.9375 10.546875 
Q 45.796875 14.203125 45.796875 21.1875 
Q 45.796875 27.640625 41.28125 31.265625 
Q 36.765625 34.90625 28.71875 34.90625 
L 20.21875 34.90625 
L 20.21875 43.015625 
L 29.109375 43.015625 
Q 36.375 43.015625 40.234375 45.921875 
Q 44.09375 48.828125 44.09375 54.296875 
Q 44.09375 59.90625 40.109375 62.90625 
Q 36.140625 65.921875 28.71875 65.921875 
Q 24.65625 65.921875 20.015625 65.03125 
Q 15.375 64.15625 9.8125 62.3125 
L 9.8125 71.09375 
Q 15.4375 72.65625 20.34375 73.4375 
Q 25.25 74.21875 29.59375 74.21875 
Q 40.828125 74.21875 47.359375 69.109375 
Q 53.90625 64.015625 53.90625 55.328125 
Q 53.90625 49.265625 50.4375 45.09375 
Q 46.96875 40.921875 40.578125 39.3125 
z
" id="DejaVuSans-51"/>
     </defs>
     <g transform="translate(373.434566 704.161112)scale(0.12 -0.12)">
      <use xlink:href="#DejaVuSans-51"/>
     </g>
    </g>
   </g>
   <g id="text_5">
    <g clip-path="url(#pa7baf5eec8)">
     <!-- 4 -->
     <defs>
      <path d="M 37.796875 64.3125 
L 12.890625 25.390625 
L 37.796875 25.390625 
z
M 35.203125 72.90625 
L 47.609375 72.90625 
L 47.609375 25.390625 
L 58.015625 25.390625 
L 58.015625 17.1875 
L 47.609375 17.1875 
L 47.609375 0 
L 37.796875 0 
L 37.796875 17.1875 
L 4.890625 17.1875 
L 4.890625 26.703125 
z
" id="DejaVuSans-52"/>
     </defs>
     <g transform="translate(458.834015 704.161112)scale(0.12 -0.12)">
      <use xlink:href="#DejaVuSans-52"/>
     </g>
    </g>
   </g>
   <g id="text_6">
    <g clip-path="url(#pa7baf5eec8)">
     <!-- 5 -->
     <defs>
      <path d="M 10.796875 72.90625 
L 49.515625 72.90625 
L 49.515625 64.59375 
L 19.828125 64.59375 
L 19.828125 46.734375 
Q 21.96875 47.46875 24.109375 47.828125 
Q 26.265625 48.1875 28.421875 48.1875 
Q 40.625 48.1875 47.75 41.5 
Q 54.890625 34.8125 54.890625 23.390625 
Q 54.890625 11.625 47.5625 5.09375 
Q 40.234375 -1.421875 26.90625 -1.421875 
Q 22.3125 -1.421875 17.546875 -0.640625 
Q 12.796875 0.140625 7.71875 1.703125 
L 7.71875 11.625 
Q 12.109375 9.234375 16.796875 8.0625 
Q 21.484375 6.890625 26.703125 6.890625 
Q 35.15625 6.890625 40.078125 11.328125 
Q 45.015625 15.765625 45.015625 23.390625 
Q 45.015625 31 40.078125 35.4375 
Q 35.15625 39.890625 26.703125 39.890625 
Q 22.75 39.890625 18.8125 39.015625 
Q 14.890625 38.140625 10.796875 36.28125 
z
" id="DejaVuSans-53"/>
     </defs>
     <g transform="translate(544.233464 704.161112)scale(0.12 -0.12)">
      <use xlink:href="#DejaVuSans-53"/>
     </g>
    </g>
   </g>
   <g id="text_7">
    <g clip-path="url(#pa7baf5eec8)">
     <!-- 6 -->
     <defs>
      <path d="M 33.015625 40.375 
Q 26.375 40.375 22.484375 35.828125 
Q 18.609375 31.296875 18.609375 23.390625 
Q 18.609375 15.53125 22.484375 10.953125 
Q 26.375 6.390625 33.015625 6.390625 
Q 39.65625 6.390625 43.53125 10.953125 
Q 47.40625 15.53125 47.40625 23.390625 
Q 47.40625 31.296875 43.53125 35.828125 
Q 39.65625 40.375 33.015625 40.375 
z
M 52.59375 71.296875 
L 52.59375 62.3125 
Q 48.875 64.0625 45.09375 64.984375 
Q 41.3125 65.921875 37.59375 65.921875 
Q 27.828125 65.921875 22.671875 59.328125 
Q 17.53125 52.734375 16.796875 39.40625 
Q 19.671875 43.65625 24.015625 45.921875 
Q 28.375 48.1875 33.59375 48.1875 
Q 44.578125 48.1875 50.953125 41.515625 
Q 57.328125 34.859375 57.328125 23.390625 
Q 57.328125 12.15625 50.6875 5.359375 
Q 44.046875 -1.421875 33.015625 -1.421875 
Q 20.359375 -1.421875 13.671875 8.265625 
Q 6.984375 17.96875 6.984375 36.375 
Q 6.984375 53.65625 15.1875 63.9375 
Q 23.390625 74.21875 37.203125 74.21875 
Q 40.921875 74.21875 44.703125 73.484375 
Q 48.484375 72.75 52.59375 71.296875 
z
" id="DejaVuSans-54"/>
     </defs>
     <g transform="translate(544.233464 661.461388)scale(0.12 -0.12)">
      <use xlink:href="#DejaVuSans-54"/>
     </g>
    </g>
   </g>
   <g id="text_8">
    <g clip-path="url(#pa7baf5eec8)">
     <!-- 7 -->
     <defs>
      <path d="M 8.203125 72.90625 
L 55.078125 72.90625 
L 55.078125 68.703125 
L 28.609375 0 
L 18.3125 0 
L 43.21875 64.59375 
L 8.203125 64.59375 
z
" id="DejaVuSans-55"/>
     </defs>
     <g transform="translate(458.834015 661.461388)scale(0.12 -0.12)">
      <use xlink:href="#DejaVuSans-55"/>
     </g>
    </g>
   </g>
   <g id="text_9">
    <g clip-path="url(#pa7baf5eec8)">
     <!-- 8 -->
     <defs>
      <path d="M 31.78125 34.625 
Q 24.75 34.625 20.71875 30.859375 
Q 16.703125 27.09375 16.703125 20.515625 
Q 16.703125 13.921875 20.71875 10.15625 
Q 24.75 6.390625 31.78125 6.390625 
Q 38.8125 6.390625 42.859375 10.171875 
Q 46.921875 13.96875 46.921875 20.515625 
Q 46.921875 27.09375 42.890625 30.859375 
Q 38.875 34.625 31.78125 34.625 
z
M 21.921875 38.8125 
Q 15.578125 40.375 12.03125 44.71875 
Q 8.5 49.078125 8.5 55.328125 
Q 8.5 64.0625 14.71875 69.140625 
Q 20.953125 74.21875 31.78125 74.21875 
Q 42.671875 74.21875 48.875 69.140625 
Q 55.078125 64.0625 55.078125 55.328125 
Q 55.078125 49.078125 51.53125 44.71875 
Q 48 40.375 41.703125 38.8125 
Q 48.828125 37.15625 52.796875 32.3125 
Q 56.78125 27.484375 56.78125 20.515625 
Q 56.78125 9.90625 50.3125 4.234375 
Q 43.84375 -1.421875 31.78125 -1.421875 
Q 19.734375 -1.421875 13.25 4.234375 
Q 6.78125 9.90625 6.78125 20.515625 
Q 6.78125 27.484375 10.78125 32.3125 
Q 14.796875 37.15625 21.921875 38.8125 
z
M 18.3125 54.390625 
Q 18.3125 48.734375 21.84375 45.5625 
Q 25.390625 42.390625 31.78125 42.390625 
Q 38.140625 42.390625 41.71875 45.5625 
Q 45.3125 48.734375 45.3125 54.390625 
Q 45.3125 60.0625 41.71875 63.234375 
Q 38.140625 66.40625 31.78125 66.40625 
Q 25.390625 66.40625 21.84375 63.234375 
Q 18.3125 60.0625 18.3125 54.390625 
z
" id="DejaVuSans-56"/>
     </defs>
     <g transform="translate(1270.128781 661.461388)scale(0.12 -0.12)">
      <use xlink:href="#DejaVuSans-56"/>
     </g>
    </g>
   </g>
   <g id="text_10">
    <g clip-path="url(#pa7baf5eec8)">
     <!-- 9 -->
     <defs>
      <path d="M 10.984375 1.515625 
L 10.984375 10.5 
Q 14.703125 8.734375 18.5 7.8125 
Q 22.3125 6.890625 25.984375 6.890625 
Q 35.75 6.890625 40.890625 13.453125 
Q 46.046875 20.015625 46.78125 33.40625 
Q 43.953125 29.203125 39.59375 26.953125 
Q 35.25 24.703125 29.984375 24.703125 
Q 19.046875 24.703125 12.671875 31.3125 
Q 6.296875 37.9375 6.296875 49.421875 
Q 6.296875 60.640625 12.9375 67.421875 
Q 19.578125 74.21875 30.609375 74.21875 
Q 43.265625 74.21875 49.921875 64.515625 
Q 56.59375 54.828125 56.59375 36.375 
Q 56.59375 19.140625 48.40625 8.859375 
Q 40.234375 -1.421875 26.421875 -1.421875 
Q 22.703125 -1.421875 18.890625 -0.6875 
Q 15.09375 0.046875 10.984375 1.515625 
z
M 30.609375 32.421875 
Q 37.25 32.421875 41.125 36.953125 
Q 45.015625 41.5 45.015625 49.421875 
Q 45.015625 57.28125 41.125 61.84375 
Q 37.25 66.40625 30.609375 66.40625 
Q 23.96875 66.40625 20.09375 61.84375 
Q 16.21875 57.28125 16.21875 49.421875 
Q 16.21875 41.5 20.09375 36.953125 
Q 23.96875 32.421875 30.609375 32.421875 
z
" id="DejaVuSans-57"/>
     </defs>
     <g transform="translate(1184.729332 661.461388)scale(0.12 -0.12)">
      <use xlink:href="#DejaVuSans-57"/>
     </g>
    </g>
   </g>
   <g id="text_11">
    <g clip-path="url(#pa7baf5eec8)">
     <!-- 10 -->
     <g transform="translate(1095.512383 661.461388)scale(0.12 -0.12)">
      <use xlink:href="#DejaVuSans-49"/>
      <use x="63.623047" xlink:href="#DejaVuSans-48"/>
     </g>
    </g>
   </g>
   <g id="text_12">
    <g clip-path="url(#pa7baf5eec8)">
     <!-- 11 -->
     <g transform="translate(1010.112934 661.461388)scale(0.12 -0.12)">
      <use xlink:href="#DejaVuSans-49"/>
      <use x="63.623047" xlink:href="#DejaVuSans-49"/>
     </g>
    </g>
   </g>
   <g id="text_13">
    <g clip-path="url(#pa7baf5eec8)">
     <!-- 12 -->
     <g transform="translate(924.713485 661.461388)scale(0.12 -0.12)">
      <use xlink:href="#DejaVuSans-49"/>
      <use x="63.623047" xlink:href="#DejaVuSans-50"/>
     </g>
    </g>
   </g>
   <g id="text_14">
    <g clip-path="url(#pa7baf5eec8)">
     <!-- 13 -->
     <g transform="translate(839.314036 661.461388)scale(0.12 -0.12)">
      <use xlink:href="#DejaVuSans-49"/>
      <use x="63.623047" xlink:href="#DejaVuSans-51"/>
     </g>
    </g>
   </g>
   <g id="text_15">
    <g clip-path="url(#pa7baf5eec8)">
     <!-- 14 -->
     <g transform="translate(839.314036 704.161112)scale(0.12 -0.12)">
      <use xlink:href="#DejaVuSans-49"/>
      <use x="63.623047" xlink:href="#DejaVuSans-52"/>
     </g>
    </g>
   </g>
   <g id="text_16">
    <g clip-path="url(#pa7baf5eec8)">
     <!-- 15 -->
     <g transform="translate(924.713485 704.161112)scale(0.12 -0.12)">
      <use xlink:href="#DejaVuSans-49"/>
      <use x="63.623047" xlink:href="#DejaVuSans-53"/>
     </g>
    </g>
   </g>
   <g id="text_17">
    <g clip-path="url(#pa7baf5eec8)">
     <!-- 16 -->
     <g transform="translate(711.214862 1259.257531)scale(0.12 -0.12)">
      <use xlink:href="#DejaVuSans-49"/>
      <use x="63.623047" xlink:href="#DejaVuSans-54"/>
     </g>
    </g>
   </g>
   <g id="text_18">
    <g clip-path="url(#pa7baf5eec8)">
     <!-- 17 -->
     <g transform="translate(711.214862 1173.858082)scale(0.12 -0.12)">
      <use xlink:href="#DejaVuSans-49"/>
      <use x="63.623047" xlink:href="#DejaVuSans-55"/>
     </g>
    </g>
   </g>
   <g id="text_19">
    <g clip-path="url(#pa7baf5eec8)">
     <!-- 18 -->
     <g transform="translate(711.214862 1088.458633)scale(0.12 -0.12)">
      <use xlink:href="#DejaVuSans-49"/>
      <use x="63.623047" xlink:href="#DejaVuSans-56"/>
     </g>
    </g>
   </g>
   <g id="text_20">
    <g clip-path="url(#pa7baf5eec8)">
     <!-- 19 -->
     <g transform="translate(711.214862 1003.059184)scale(0.12 -0.12)">
      <use xlink:href="#DejaVuSans-49"/>
      <use x="63.623047" xlink:href="#DejaVuSans-57"/>
     </g>
    </g>
   </g>
   <g id="text_21">
    <g clip-path="url(#pa7baf5eec8)">
     <!-- 20 -->
     <g transform="translate(711.214862 917.659735)scale(0.12 -0.12)">
      <use xlink:href="#DejaVuSans-50"/>
      <use x="63.623047" xlink:href="#DejaVuSans-48"/>
     </g>
    </g>
   </g>
   <g id="text_22">
    <g clip-path="url(#pa7baf5eec8)">
     <!-- 21 -->
     <g transform="translate(711.214862 832.260286)scale(0.12 -0.12)">
      <use xlink:href="#DejaVuSans-50"/>
      <use x="63.623047" xlink:href="#DejaVuSans-49"/>
     </g>
    </g>
   </g>
   <g id="text_23">
    <g clip-path="url(#pa7baf5eec8)">
     <!-- 22 -->
     <g transform="translate(668.515138 832.260286)scale(0.12 -0.12)">
      <use xlink:href="#DejaVuSans-50"/>
      <use x="63.623047" xlink:href="#DejaVuSans-50"/>
     </g>
    </g>
   </g>
   <g id="text_24">
    <g clip-path="url(#pa7baf5eec8)">
     <!-- 23 -->
     <g transform="translate(668.515138 917.659735)scale(0.12 -0.12)">
      <use xlink:href="#DejaVuSans-50"/>
      <use x="63.623047" xlink:href="#DejaVuSans-51"/>
     </g>
    </g>
   </g>
   <g id="text_25">
    <g clip-path="url(#pa7baf5eec8)">
     <!-- 24 -->
     <g transform="translate(668.515138 106.364969)scale(0.12 -0.12)">
      <use xlink:href="#DejaVuSans-50"/>
      <use x="63.623047" xlink:href="#DejaVuSans-52"/>
     </g>
    </g>
   </g>
   <g id="text_26">
    <g clip-path="url(#pa7baf5eec8)">
     <!-- 25 -->
     <g transform="translate(668.515138 191.764418)scale(0.12 -0.12)">
      <use xlink:href="#DejaVuSans-50"/>
      <use x="63.623047" xlink:href="#DejaVuSans-53"/>
     </g>
    </g>
   </g>
   <g id="text_27">
    <g clip-path="url(#pa7baf5eec8)">
     <!-- 26 -->
     <g transform="translate(668.515138 277.163867)scale(0.12 -0.12)">
      <use xlink:href="#DejaVuSans-50"/>
      <use x="63.623047" xlink:href="#DejaVuSans-54"/>
     </g>
    </g>
   </g>
   <g id="text_28">
    <g clip-path="url(#pa7baf5eec8)">
     <!-- 27 -->
     <g transform="translate(668.515138 362.563316)scale(0.12 -0.12)">
      <use xlink:href="#DejaVuSans-50"/>
      <use x="63.623047" xlink:href="#DejaVuSans-55"/>
     </g>
    </g>
   </g>
   <g id="text_29">
    <g clip-path="url(#pa7baf5eec8)">
     <!-- 28 -->
     <g transform="translate(668.515138 447.962765)scale(0.12 -0.12)">
      <use xlink:href="#DejaVuSans-50"/>
      <use x="63.623047" xlink:href="#DejaVuSans-56"/>
     </g>
    </g>
   </g>
   <g id="text_30">
    <g clip-path="url(#pa7baf5eec8)">
     <!-- 29 -->
     <g transform="translate(668.515138 533.362214)scale(0.12 -0.12)">
      <use xlink:href="#DejaVuSans-50"/>
      <use x="63.623047" xlink:href="#DejaVuSans-57"/>
     </g>
    </g>
   </g>
   <g id="text_31">
    <g clip-path="url(#pa7baf5eec8)">
     <!-- 30 -->
     <g transform="translate(711.214862 533.362214)scale(0.12 -0.12)">
      <use xlink:href="#DejaVuSans-51"/>
      <use x="63.623047" xlink:href="#DejaVuSans-48"/>
     </g>
    </g>
   </g>
   <g id="text_32">
    <g clip-path="url(#pa7baf5eec8)">
     <!-- 31 -->
     <g transform="translate(711.214862 447.962765)scale(0.12 -0.12)">
      <use xlink:href="#DejaVuSans-51"/>
      <use x="63.623047" xlink:href="#DejaVuSans-49"/>
     </g>
    </g>
   </g>
   <g id="text_33">
    <g clip-path="url(#pa7baf5eec8)">
     <!-- 32 -->
     <g transform="translate(583.115689 789.560561)scale(0.12 -0.12)">
      <use xlink:href="#DejaVuSans-51"/>
      <use x="63.623047" xlink:href="#DejaVuSans-50"/>
     </g>
    </g>
   </g>
   <g id="text_34">
    <g clip-path="url(#pa7baf5eec8)">
     <!-- 33 -->
     <g transform="translate(796.614311 789.560561)scale(0.12 -0.12)">
      <use xlink:href="#DejaVuSans-51"/>
      <use x="63.623047" xlink:href="#DejaVuSans-51"/>
     </g>
    </g>
   </g>
   <g id="text_35">
    <g clip-path="url(#pa7baf5eec8)">
     <!-- 34 -->
     <g transform="translate(796.614311 576.061939)scale(0.12 -0.12)">
      <use xlink:href="#DejaVuSans-51"/>
      <use x="63.623047" xlink:href="#DejaVuSans-52"/>
     </g>
    </g>
   </g>
   <g id="text_36">
    <g clip-path="url(#pa7baf5eec8)">
     <!-- 35 -->
     <g transform="translate(583.115689 576.061939)scale(0.12 -0.12)">
      <use xlink:href="#DejaVuSans-51"/>
      <use x="63.623047" xlink:href="#DejaVuSans-53"/>
     </g>
    </g>
   </g>
  </g>
 </g>
 <defs>
  <clipPath id="pa7baf5eec8">
   <rect height="1359" width="1395" x="0" y="0"/>
  </clipPath>
 </defs>
</svg>
